<svg width="1255" height="260" xmlns="http://www.w3.org/2000/svg" xmlns:xlink="http://www.w3.org/1999/xlink" xml:space="preserve" overflow="hidden"><defs><clipPath id="clip0"><rect x="590" y="1391" width="1255" height="260"/></clipPath></defs><g clip-path="url(#clip0)" transform="translate(-590 -1391)"><rect x="636.5" y="1440.5" width="1099" height="156" stroke="#000000" stroke-width="4.58333" stroke-miterlimit="8" fill="#FFFFFF"/><text font-family="Segoe UI Symbol,Segoe UI Symbol_MSFontService,sans-serif" font-weight="400" font-size="83" transform="matrix(1 0 0 1 640.292 1546)">④</text><text font-family="Segoe UI Symbol,Segoe UI Symbol_MSFontService,sans-serif" font-weight="400" font-size="83" transform="matrix(1 0 0 1 845.396 1546)">③</text><text font-family="Segoe UI Symbol,Segoe UI Symbol_MSFontService,sans-serif" font-weight="400" font-size="83" transform="matrix(1 0 0 1 1005.81 1546)">②</text><text font-family="Segoe UI Symbol,Segoe UI Symbol_MSFontService,sans-serif" font-weight="400" font-size="83" transform="matrix(1 0 0 1 1300.29 1546)">①</text><path d="M772 1440 772 1595.83" stroke="#000000" stroke-width="2.29167" stroke-miterlimit="8" fill="none" fill-rule="evenodd"/><path d="M797 1439 797.001 1594.83" stroke="#000000" stroke-width="2.29167" stroke-miterlimit="8" fill="none" fill-rule="evenodd"/><path d="M759 1441 759 1596.83" stroke="#000000" stroke-width="2.29167" stroke-miterlimit="8" fill="none" fill-rule="evenodd"/><path d="M783 1440 783 1595.83" stroke="#000000" stroke-width="2.29167" stroke-miterlimit="8" fill="none" fill-rule="evenodd"/><path d="M9.55992e-06-1.14583 20.3392-1.14566 20.3392 1.146-9.55992e-06 1.14583ZM15.756-13.7499 43.2558 0.000360892 15.7557 13.7501Z" transform="matrix(-1 0 0 1 759.256 1517)"/><path d="M925.5 1439.5 925.5 1595.33" stroke="#000000" stroke-width="3.4375" stroke-linejoin="round" stroke-miterlimit="10" stroke-dasharray="13.75 10.3125" fill="none" fill-rule="evenodd"/><path d="M1117.5 1440.5 1117.5 1596.33" stroke="#000000" stroke-width="6.875" stroke-miterlimit="8" fill="none" fill-rule="evenodd"/><path d="M925 1515.85 951.927 1515.85 951.927 1518.15 925 1518.15ZM947.344 1503.25 974.844 1517 947.344 1530.75Z"/><path d="M1117 1515.85 1178.3 1515.85 1178.3 1518.15 1117 1518.15ZM1173.72 1503.25 1201.22 1517 1173.72 1530.75Z"/><text font-family="Times New Roman,Times New Roman_MSFontService,sans-serif" font-weight="400" font-size="23" transform="matrix(1 0 0 1 690.787 1430)">Expansion wav</text><text font-family="Times New Roman,Times New Roman_MSFontService,sans-serif" font-weight="400" font-size="23" transform="matrix(1 0 0 1 831.724 1430)">e</text><text font-family="Times New Roman,Times New Roman_MSFontService,sans-serif" font-weight="400" font-size="23" transform="matrix(1 0 0 1 879.287 1430)">Contact surface</text><text font-family="Times New Roman,Times New Roman_MSFontService,sans-serif" font-weight="400" font-size="23" transform="matrix(1 0 0 1 1085.32 1430)">Shock wave</text><text font-family="Times New Roman,Times New Roman_MSFontService,sans-serif" font-weight="400" font-size="23" transform="matrix(1 0 0 1 787.799 1628)">Diaphragm </text><path d="M833 1595C833 1573.46 841.059 1556 851 1556" stroke="#000000" stroke-width="2.29167" stroke-miterlimit="8" fill="none" fill-rule="evenodd"/><path d="M39 0C60.5391-4.96523e-15 78 8.05884 78 17.9999" stroke="#000000" stroke-width="2.29167" stroke-miterlimit="8" fill="none" fill-rule="evenodd" transform="matrix(1.83697e-16 1 1 -1.83697e-16 834 1401)"/></g></svg>