<svg width="1901" height="2227" xmlns="http://www.w3.org/2000/svg" xmlns:xlink="http://www.w3.org/1999/xlink" xml:space="preserve" overflow="hidden"><defs><clipPath id="clip0"><rect x="350" y="462" width="1901" height="2227"/></clipPath></defs><g clip-path="url(#clip0)" transform="translate(-350 -462)"><rect x="1040.5" y="579.5" width="215" height="516" stroke="#000000" stroke-width="4.58333" stroke-miterlimit="8" fill="#FFFFFF"/><rect x="1040.5" y="1095.5" width="215" height="956" stroke="#000000" stroke-width="4.58333" stroke-miterlimit="8" fill="#FFFFFF"/><text font-family="Times New Roman,Times New Roman_MSFontService,sans-serif" font-weight="400" font-size="28" transform="matrix(1 0 0 1 1180.71 505)">PX</text><text font-family="Times New Roman,Times New Roman_MSFontService,sans-serif" font-weight="400" font-size="28" transform="matrix(1 0 0 1 1216.23 505)">-</text><text font-family="Times New Roman,Times New Roman_MSFontService,sans-serif" font-weight="400" font-size="28" transform="matrix(1 0 0 1 1180.71 538)">303</text><path d="M1158.5 512.5C1158.5 489.856 1177.08 471.5 1200 471.5 1222.92 471.5 1241.5 489.856 1241.5 512.5 1241.5 535.144 1222.92 553.5 1200 553.5 1177.08 553.5 1158.5 535.144 1158.5 512.5Z" stroke="#FF0000" stroke-width="4.58333" stroke-miterlimit="8" fill="none" fill-rule="evenodd"/><path d="M1200.5 1606.5 1200.5 1606.5" stroke="#4472C4" stroke-width="4.58333" stroke-miterlimit="8" fill="none" fill-rule="evenodd"/><path d="M1200.5 553.5 1200.5 578.929" stroke="#FF0000" stroke-width="4.58333" stroke-miterlimit="8" fill="none" fill-rule="evenodd"/><text font-family="Times New Roman,Times New Roman_MSFontService,sans-serif" font-weight="400" font-size="28" transform="matrix(1 0 0 1 948.519 1262)">PX</text><text font-family="Times New Roman,Times New Roman_MSFontService,sans-serif" font-weight="400" font-size="28" transform="matrix(1 0 0 1 984.04 1262)">-</text><text font-family="Times New Roman,Times New Roman_MSFontService,sans-serif" font-weight="400" font-size="28" transform="matrix(1 0 0 1 948.519 1295)">303</text><path d="M926.5 1269C926.5 1246.08 945.08 1227.5 968 1227.5 990.92 1227.5 1009.5 1246.08 1009.5 1269 1009.5 1291.92 990.92 1310.5 968 1310.5 945.08 1310.5 926.5 1291.92 926.5 1269Z" stroke="#FF0000" stroke-width="4.58333" stroke-miterlimit="8" fill="none" fill-rule="evenodd"/><path d="M1009.5 1270.5 1039.91 1270.5" stroke="#FF0000" stroke-width="4.58333" stroke-miterlimit="8" fill="none" fill-rule="evenodd"/><path d="M1158.59 512 1158.59 513.793 856 513.793 856 1625.89" stroke="#0070C0" stroke-width="2.29167" stroke-miterlimit="8" fill="none" fill-rule="evenodd"/><path d="M922.636 1272 922.636 1272.07 874 1272.07 874 1641.67" stroke="#0070C0" stroke-width="2.29167" stroke-miterlimit="8" fill="none" fill-rule="evenodd"/><path d="M0 0 2.22391 0 2.22391 308.752 1101 308.752" stroke="#0070C0" stroke-width="2.29167" stroke-miterlimit="8" fill="none" fill-rule="evenodd" transform="matrix(1.83697e-16 1 1 -1.83697e-16 527 512)"/><path d="M420.5 613.167C420.5 585.184 448.258 562.5 482.5 562.5 516.742 562.5 544.5 585.184 544.5 613.167L544.5 815.833C544.5 843.816 516.742 866.5 482.5 866.5 448.258 866.5 420.5 843.816 420.5 815.833Z" fill="#FFFFFF" fill-rule="evenodd"/><path d="M544.5 613.167C544.5 641.149 516.742 663.833 482.5 663.833 448.258 663.833 420.5 641.149 420.5 613.167" stroke="#000000" stroke-width="4.58333" stroke-miterlimit="8" fill="none" fill-rule="evenodd"/><path d="M420.5 613.167C420.5 585.184 448.258 562.5 482.5 562.5 516.742 562.5 544.5 585.184 544.5 613.167L544.5 815.833C544.5 843.816 516.742 866.5 482.5 866.5 448.258 866.5 420.5 843.816 420.5 815.833Z" stroke="#000000" stroke-width="4.58333" stroke-miterlimit="8" fill="none" fill-rule="evenodd"/><text font-family="Times New Roman,Times New Roman_MSFontService,sans-serif" font-weight="400" font-size="28" transform="matrix(1 0 0 1 463.456 505)">PX</text><text font-family="Times New Roman,Times New Roman_MSFontService,sans-serif" font-weight="400" font-size="28" transform="matrix(1 0 0 1 498.977 505)">-</text><text font-family="Times New Roman,Times New Roman_MSFontService,sans-serif" font-weight="400" font-size="28" transform="matrix(1 0 0 1 463.456 538)">303</text><path d="M441.5 512.5C441.5 489.856 460.08 471.5 483 471.5 505.92 471.5 524.5 489.856 524.5 512.5 524.5 535.144 505.92 553.5 483 553.5 460.08 553.5 441.5 535.144 441.5 512.5Z" stroke="#FF0000" stroke-width="4.58333" stroke-miterlimit="8" fill="none" fill-rule="evenodd"/><path d="M482.5 553.5 482.5 578.929" stroke="#FF0000" stroke-width="4.58333" stroke-miterlimit="8" fill="none" fill-rule="evenodd"/><text font-family="Times New Roman,Times New Roman_MSFontService,sans-serif" font-weight="400" font-size="37" transform="matrix(1 0 0 1 437.581 730)">Boost </text><text font-family="Times New Roman,Times New Roman_MSFontService,sans-serif" font-weight="400" font-size="37" transform="matrix(1 0 0 1 453.623 774)">tank</text><path d="M811 1627 855.94 1627" stroke="#4472C4" stroke-width="2.29167" stroke-miterlimit="8" fill="none" fill-rule="evenodd"/><path d="M811 1641 874.427 1641" stroke="#4472C4" stroke-width="2.29167" stroke-miterlimit="8" fill="none" fill-rule="evenodd"/><path d="M811 1613 835.813 1613" stroke="#4472C4" stroke-width="2.29167" stroke-miterlimit="8" fill="none" fill-rule="evenodd"/><text font-family="Times New Roman,Times New Roman_MSFontService,sans-serif" font-weight="400" font-size="37" transform="matrix(1 0 0 1 1100.14 791)">Driver</text><text font-family="Times New Roman,Times New Roman_MSFontService,sans-serif" font-weight="400" font-size="37" transform="matrix(1 0 0 1 1095.86 835)">sectio</text><text font-family="Times New Roman,Times New Roman_MSFontService,sans-serif" font-weight="400" font-size="37" transform="matrix(1 0 0 1 1181.22 835)">n</text><text font-family="Times New Roman,Times New Roman_MSFontService,sans-serif" font-weight="400" font-size="37" transform="matrix(1 0 0 1 1097 1534)">Driven</text><text font-family="Times New Roman,Times New Roman_MSFontService,sans-serif" font-weight="400" font-size="37" transform="matrix(1 0 0 1 1095.86 1578)">sectio</text><text font-family="Times New Roman,Times New Roman_MSFontService,sans-serif" font-weight="400" font-size="37" transform="matrix(1 0 0 1 1181.22 1578)">n</text><path d="M555 960.834C555 946.014 567.014 934 581.834 934L743.166 934C757.986 934 770 946.014 770 960.834L770 1068.17C770 1082.99 757.986 1095 743.166 1095L581.834 1095C567.014 1095 555 1082.99 555 1068.17Z" fill="#000000" fill-rule="evenodd" fill-opacity="0.501961"/><text fill="#FFFFFF" font-family="Times New Roman,Times New Roman_MSFontService,sans-serif" font-weight="400" font-size="37" transform="matrix(1 0 0 1 615.039 983)">Driver </text><text fill="#FFFFFF" font-family="Times New Roman,Times New Roman_MSFontService,sans-serif" font-weight="400" font-size="37" transform="matrix(1 0 0 1 641.118 1027)">fill </text><text fill="#FFFFFF" font-family="Times New Roman,Times New Roman_MSFontService,sans-serif" font-weight="400" font-size="37" transform="matrix(1 0 0 1 596.431 1071)">manifold</text><path d="M554 1153C554 1138.09 566.089 1126 581 1126L741 1126C755.911 1126 768 1138.09 768 1153L768 1261C768 1275.91 755.911 1288 741 1288L581 1288C566.089 1288 554 1275.91 554 1261Z" fill="#000000" fill-rule="evenodd" fill-opacity="0.501961"/><text fill="#FFFFFF" font-family="Times New Roman,Times New Roman_MSFontService,sans-serif" font-weight="400" font-size="37" transform="matrix(1 0 0 1 610.525 1176)">Driven </text><text fill="#FFFFFF" font-family="Times New Roman,Times New Roman_MSFontService,sans-serif" font-weight="400" font-size="37" transform="matrix(1 0 0 1 639.744 1220)">fill </text><text fill="#FFFFFF" font-family="Times New Roman,Times New Roman_MSFontService,sans-serif" font-weight="400" font-size="37" transform="matrix(1 0 0 1 595.057 1264)">manifold</text><path d="M554 1394.83C554 1380.01 566.014 1368 580.834 1368L741.166 1368C755.986 1368 768 1380.01 768 1394.83L768 1502.17C768 1516.99 755.986 1529 741.166 1529L580.834 1529C566.014 1529 554 1516.99 554 1502.17Z" fill="#000000" fill-rule="evenodd" fill-opacity="0.501961"/><text fill="#FFFFFF" font-family="Times New Roman,Times New Roman_MSFontService,sans-serif" font-weight="400" font-size="37" transform="matrix(1 0 0 1 599.353 1439)">Vacuum </text><text fill="#FFFFFF" font-family="Times New Roman,Times New Roman_MSFontService,sans-serif" font-weight="400" font-size="37" transform="matrix(1 0 0 1 624.86 1483)">relay</text><path d="M0 0 166.49 0.000360892" stroke="#4472C4" stroke-width="2.29167" stroke-miterlimit="8" fill="none" fill-rule="evenodd" transform="matrix(-1 0 0 1 554.491 1448)"/><path d="M0 0 183.362 0.000360892" stroke="#4472C4" stroke-width="2.29167" stroke-miterlimit="8" fill="none" fill-rule="evenodd" transform="matrix(-1 0 0 1 554.362 1207)"/><path d="M555.789 1014.85 351 1013" stroke="#4472C4" stroke-width="2.29167" stroke-miterlimit="8" fill="none" fill-rule="evenodd"/><path d="M0 0 0.000360892 193.743" stroke="#4472C4" stroke-width="2.29167" stroke-miterlimit="8" fill="none" fill-rule="evenodd" transform="matrix(1 0 0 -1 388 1640.74)"/><path d="M0 0 0.000360892 447.417" stroke="#4472C4" stroke-width="2.29167" stroke-miterlimit="8" fill="none" fill-rule="evenodd" transform="matrix(1 0 0 -1 371 1654.42)"/><path d="M0 0 0.000360892 656.54" stroke="#4472C4" stroke-width="2.29167" stroke-miterlimit="8" fill="none" fill-rule="evenodd" transform="matrix(1 0 0 -1 351 1669.54)"/><path d="M388 1640 413.578 1640" stroke="#4472C4" stroke-width="2.29167" stroke-miterlimit="8" fill="none" fill-rule="evenodd"/><path d="M372 1654 412.926 1654" stroke="#4472C4" stroke-width="2.29167" stroke-miterlimit="8" fill="none" fill-rule="evenodd"/><path d="M351 1669 413.502 1669" stroke="#4472C4" stroke-width="2.29167" stroke-miterlimit="8" fill="none" fill-rule="evenodd"/><path d="M413 1586.07C413 1578.85 418.852 1573 426.072 1573L797.928 1573C805.147 1573 811 1578.85 811 1586.07L811 1929.93C811 1937.15 805.147 1943 797.928 1943L426.072 1943C418.852 1943 413 1937.15 413 1929.93Z" fill="#000000" fill-rule="evenodd" fill-opacity="0.501961"/><text fill="#FFFFFF" font-family="Times New Roman,Times New Roman_MSFontService,sans-serif" font-weight="400" font-size="37" transform="matrix(1 0 0 1 511.743 1771)">Control panel</text><path d="M554 2022C554 2007.09 566.089 1995 581 1995L741 1995C755.911 1995 768 2007.09 768 2022L768 2130C768 2144.91 755.911 2157 741 2157L581 2157C566.089 2157 554 2144.91 554 2130Z" fill="#000000" fill-rule="evenodd" fill-opacity="0.501961"/><text fill="#FFFFFF" font-family="Times New Roman,Times New Roman_MSFontService,sans-serif" font-weight="400" font-size="37" transform="matrix(1 0 0 1 597.348 2067)">MST fill </text><text fill="#FFFFFF" font-family="Times New Roman,Times New Roman_MSFontService,sans-serif" font-weight="400" font-size="37" transform="matrix(1 0 0 1 595.057 2111)">manifold</text><path d="M554.414 2070.15 351 2067" stroke="#4472C4" stroke-width="2.29167" stroke-miterlimit="8" fill="none" fill-rule="evenodd"/><path d="M0 0 0.000360892 366.895" stroke="#4472C4" stroke-width="2.29167" stroke-miterlimit="8" fill="none" fill-rule="evenodd" transform="matrix(1 0 0 -1 352 2068.89)"/><path d="M351 1702 413.107 1702" stroke="#4472C4" stroke-width="2.29167" stroke-miterlimit="8" fill="none" fill-rule="evenodd"/><path d="M1234.5 2053.5 1234.5 2106.1" stroke="#FF0000" stroke-width="4.58333" stroke-miterlimit="8" fill="none" fill-rule="evenodd"/><path d="M0 0 55.3714 0.000360892" stroke="#FF0000" stroke-width="4.58333" stroke-miterlimit="8" fill="none" fill-rule="evenodd" transform="matrix(-1 0 0 1 1288.87 2105.5)"/><path d="M0 0 31.5308 0.000360892" stroke="#FF0000" stroke-width="4.58333" stroke-miterlimit="8" fill="none" fill-rule="evenodd" transform="matrix(-1 0 0 1 1289.03 1153.5)"/><rect x="1289.5" y="1130.5" width="62.0002" height="46.0001" stroke="#FF0000" stroke-width="4.58333" stroke-miterlimit="8" fill="#FFFFFF"/><text font-family="Times New Roman,Times New Roman_MSFontService,sans-serif" font-weight="400" font-size="28" transform="matrix(1 0 0 1 1299.62 1162)">PT</text><text font-family="Times New Roman,Times New Roman_MSFontService,sans-serif" font-weight="400" font-size="28" transform="matrix(1 0 0 1 1331.7 1162)">1</text><rect x="1290.5" y="2082.5" width="80.0001" height="47" stroke="#FF0000" stroke-width="4.58333" stroke-miterlimit="8" fill="#FFFFFF"/><text font-family="Times New Roman,Times New Roman_MSFontService,sans-serif" font-weight="400" font-size="28" transform="matrix(1 0 0 1 1300.33 2114)">PT10</text><path d="M0 0 0.000360892 412.278" stroke="#4472C4" stroke-width="2.29167" stroke-miterlimit="8" fill="none" fill-rule="evenodd" transform="matrix(1 0 0 -1 1377 1152.28)"/><path d="M1352 1152 1376.81 1152" stroke="#4472C4" stroke-width="2.29167" stroke-miterlimit="8" fill="none" fill-rule="evenodd"/><path d="M1372 2104 1459.53 2104" stroke="#4472C4" stroke-width="2.29167" stroke-miterlimit="8" fill="none" fill-rule="evenodd"/><path d="M1377 740 1579.14 740" stroke="#4472C4" stroke-width="2.29167" stroke-miterlimit="8" fill="none" fill-rule="evenodd"/><path d="M0 0 0.000360892 1238.3" stroke="#4472C4" stroke-width="2.29167" stroke-miterlimit="8" fill="none" fill-rule="evenodd" transform="matrix(1 0 0 -1 1460 2104.3)"/><path d="M1460 866 1579.64 866" stroke="#4472C4" stroke-width="2.29167" stroke-miterlimit="8" fill="none" fill-rule="evenodd"/><path d="M1389.5 752.5 1579.42 752.5" stroke="#4472C4" stroke-width="3.4375" stroke-linejoin="round" stroke-miterlimit="10" stroke-dasharray="13.75 10.3125" fill="none" fill-rule="evenodd"/><path d="M1389.5 765.5 1579.42 765.5" stroke="#4472C4" stroke-width="3.4375" stroke-linejoin="round" stroke-miterlimit="10" stroke-dasharray="13.75 10.3125" fill="none" fill-rule="evenodd"/><path d="M1389.5 777.5 1579.42 777.5" stroke="#4472C4" stroke-width="3.4375" stroke-linejoin="round" stroke-miterlimit="10" stroke-dasharray="13.75 10.3125" fill="none" fill-rule="evenodd"/><path d="M1389.5 790.5 1579.42 790.5" stroke="#4472C4" stroke-width="3.4375" stroke-linejoin="round" stroke-miterlimit="10" stroke-dasharray="13.75 10.3125" fill="none" fill-rule="evenodd"/><path d="M1389.5 804.5 1579.42 804.5" stroke="#4472C4" stroke-width="3.4375" stroke-linejoin="round" stroke-miterlimit="10" stroke-dasharray="13.75 10.3125" fill="none" fill-rule="evenodd"/><path d="M1389.5 819.5 1579.42 819.5" stroke="#4472C4" stroke-width="3.4375" stroke-linejoin="round" stroke-miterlimit="10" stroke-dasharray="13.75 10.3125" fill="none" fill-rule="evenodd"/><path d="M1390.5 834.5 1580.42 834.5" stroke="#4472C4" stroke-width="3.4375" stroke-linejoin="round" stroke-miterlimit="10" stroke-dasharray="13.75 10.3125" fill="none" fill-rule="evenodd"/><path d="M1390.5 849.5 1580.42 849.5" stroke="#4472C4" stroke-width="3.4375" stroke-linejoin="round" stroke-miterlimit="10" stroke-dasharray="13.75 10.3125" fill="none" fill-rule="evenodd"/><rect x="1404" y="743" width="156" height="123" fill="#FFFFFF" fill-opacity="0.501961"/><text font-family="Times New Roman,Times New Roman_MSFontService,sans-serif" font-weight="400" font-size="37" transform="matrix(1 0 0 1 1445.36 795)">PT1</text><text font-family="Times New Roman,Times New Roman_MSFontService,sans-serif" font-weight="400" font-size="37" transform="matrix(1 0 0 1 1506.66 795)">-</text><text font-family="Times New Roman,Times New Roman_MSFontService,sans-serif" font-weight="400" font-size="37" transform="matrix(1 0 0 1 1442.22 839)">P</text><text font-family="Times New Roman,Times New Roman_MSFontService,sans-serif" font-weight="400" font-size="37" transform="matrix(1 0 0 1 1462.85 839)">T</text><text font-family="Times New Roman,Times New Roman_MSFontService,sans-serif" font-weight="400" font-size="37" transform="matrix(1 0 0 1 1485.19 839)">10</text><path d="M1582 538.468C1582 533.239 1586.24 529 1591.47 529L1840.53 529C1845.76 529 1850 533.239 1850 538.468L1850 896.532C1850 901.761 1845.76 906 1840.53 906L1591.47 906C1586.24 906 1582 901.761 1582 896.532Z" fill="#000000" fill-rule="evenodd" fill-opacity="0.501961"/><text fill="#FFFFFF" font-family="Times New Roman,Times New Roman_MSFontService,sans-serif" font-weight="400" font-size="37" transform="matrix(1 0 0 1 1621.32 620)">Oscilloscope </text><text fill="#FFFFFF" font-family="Times New Roman,Times New Roman_MSFontService,sans-serif" font-weight="400" font-size="37" transform="matrix(1 0 0 1 1646.8 664)">computer</text><path d="M1582 739.876C1582 737.183 1584.18 735 1586.88 735L1827.12 735C1829.82 735 1832 737.183 1832 739.876L1832 868.125C1832 870.817 1829.82 873 1827.12 873L1586.88 873C1584.18 873 1582 870.817 1582 868.125Z" fill="#000000" fill-rule="evenodd" fill-opacity="0.501961"/><text fill="#FFFFFF" font-family="Times New Roman,Times New Roman_MSFontService,sans-serif" font-weight="400" font-size="37" transform="matrix(1 0 0 1 1687.74 795)">NI </text><text fill="#FFFFFF" font-family="Times New Roman,Times New Roman_MSFontService,sans-serif" font-weight="400" font-size="37" transform="matrix(1 0 0 1 1635.61 839)">PCI</text><text fill="#FFFFFF" font-family="Times New Roman,Times New Roman_MSFontService,sans-serif" font-weight="400" font-size="37" transform="matrix(1 0 0 1 1692.9 839)">-</text><text fill="#FFFFFF" font-family="Times New Roman,Times New Roman_MSFontService,sans-serif" font-weight="400" font-size="37" transform="matrix(1 0 0 1 1704.93 839)">6133</text><path d="M1894 538.433C1894 533.223 1898.22 529 1903.43 529L2151.57 529C2156.78 529 2161 533.223 2161 538.433L2161 896.567C2161 901.777 2156.78 906 2151.57 906L1903.43 906C1898.22 906 1894 901.777 1894 896.567Z" fill="#000000" fill-rule="evenodd" fill-opacity="0.501961"/><text fill="#FFFFFF" font-family="Times New Roman,Times New Roman_MSFontService,sans-serif" font-weight="400" font-size="37" transform="matrix(1 0 0 1 1971.28 620)">Control </text><text fill="#FFFFFF" font-family="Times New Roman,Times New Roman_MSFontService,sans-serif" font-weight="400" font-size="37" transform="matrix(1 0 0 1 1958.37 664)">computer</text><path d="M1912 739.876C1912 737.183 1914.18 735 1916.88 735L2157.12 735C2159.82 735 2162 737.183 2162 739.876L2162 868.125C2162 870.817 2159.82 873 2157.12 873L1916.88 873C1914.18 873 1912 870.817 1912 868.125Z" fill="#000000" fill-rule="evenodd" fill-opacity="0.501961"/><text fill="#FFFFFF" font-family="Times New Roman,Times New Roman_MSFontService,sans-serif" font-weight="400" font-size="37" transform="matrix(1 0 0 1 1993.11 795)">Delay</text><text fill="#FFFFFF" font-family="Times New Roman,Times New Roman_MSFontService,sans-serif" font-weight="400" font-size="37" transform="matrix(1 0 0 1 1967.9 839)">generato</text><text fill="#FFFFFF" font-family="Times New Roman,Times New Roman_MSFontService,sans-serif" font-weight="400" font-size="37" transform="matrix(1 0 0 1 2093.37 839)">r</text><path d="M1832 804 1911.56 804" stroke="#4472C4" stroke-width="2.29167" stroke-miterlimit="8" fill="none" fill-rule="evenodd"/><path d="M1917 988.889C1917 985.085 1920.08 982 1923.89 982L2160.11 982C2163.92 982 2167 985.085 2167 988.889L2167 1170.11C2167 1173.92 2163.92 1177 2160.11 1177L1923.89 1177C1920.08 1177 1917 1173.92 1917 1170.11Z" fill="#000000" fill-rule="evenodd" fill-opacity="0.501961"/><text fill="#FFFFFF" font-family="Times New Roman,Times New Roman_MSFontService,sans-serif" font-weight="400" font-size="37" transform="matrix(1 0 0 1 1970.56 1049)">BNC</text><text fill="#FFFFFF" font-family="Times New Roman,Times New Roman_MSFontService,sans-serif" font-weight="400" font-size="37" transform="matrix(1 0 0 1 2046.18 1049)">-</text><text fill="#FFFFFF" font-family="Times New Roman,Times New Roman_MSFontService,sans-serif" font-weight="400" font-size="37" transform="matrix(1 0 0 1 2058.21 1049)">575 </text><text fill="#FFFFFF" font-family="Times New Roman,Times New Roman_MSFontService,sans-serif" font-weight="400" font-size="37" transform="matrix(1 0 0 1 2002.36 1093)">delay </text><text fill="#FFFFFF" font-family="Times New Roman,Times New Roman_MSFontService,sans-serif" font-weight="400" font-size="37" transform="matrix(1 0 0 1 1973.15 1137)">generator</text><path d="M1603 988.889C1603 985.085 1606.08 982 1609.89 982L1846.11 982C1849.92 982 1853 985.085 1853 988.889L1853 1170.11C1853 1173.92 1849.92 1177 1846.11 1177L1609.89 1177C1606.08 1177 1603 1173.92 1603 1170.11Z" fill="#000000" fill-rule="evenodd" fill-opacity="0.501961"/><text fill="#FFFFFF" font-family="Times New Roman,Times New Roman_MSFontService,sans-serif" font-weight="400" font-size="37" transform="matrix(1 0 0 1 1698.76 1049)">PIV </text><text fill="#FFFFFF" font-family="Times New Roman,Times New Roman_MSFontService,sans-serif" font-weight="400" font-size="37" transform="matrix(1 0 0 1 1647.77 1093)">acquisition </text><text fill="#FFFFFF" font-family="Times New Roman,Times New Roman_MSFontService,sans-serif" font-weight="400" font-size="37" transform="matrix(1 0 0 1 1659.23 1137)">computer</text><path d="M1603 1233.89C1603 1230.08 1606.08 1227 1609.89 1227L1846.11 1227C1849.92 1227 1853 1230.08 1853 1233.89L1853 1415.11C1853 1418.92 1849.92 1422 1846.11 1422L1609.89 1422C1606.08 1422 1603 1418.92 1603 1415.11Z" fill="#000000" fill-rule="evenodd" fill-opacity="0.501961"/><text fill="#FFFFFF" font-family="Times New Roman,Times New Roman_MSFontService,sans-serif" font-weight="400" font-size="37" transform="matrix(1 0 0 1 1678.42 1294)">Ekspla</text><text fill="#FFFFFF" font-family="Times New Roman,Times New Roman_MSFontService,sans-serif" font-weight="400" font-size="37" transform="matrix(1 0 0 1 1657.22 1338)">NL</text><text fill="#FFFFFF" font-family="Times New Roman,Times New Roman_MSFontService,sans-serif" font-weight="400" font-size="37" transform="matrix(1 0 0 1 1705.92 1338)">-</text><text fill="#FFFFFF" font-family="Times New Roman,Times New Roman_MSFontService,sans-serif" font-weight="400" font-size="37" transform="matrix(1 0 0 1 1717.95 1338)">303D</text><text fill="#FFFFFF" font-family="Times New Roman,Times New Roman_MSFontService,sans-serif" font-weight="400" font-size="37" transform="matrix(1 0 0 1 1659.79 1382)">PIV laser</text><path d="M1603 1632.89C1603 1629.08 1606.08 1626 1609.89 1626L1846.11 1626C1849.92 1626 1853 1629.08 1853 1632.89L1853 1814.11C1853 1817.92 1849.92 1821 1846.11 1821L1609.89 1821C1606.08 1821 1603 1817.92 1603 1814.11Z" fill="#000000" fill-rule="evenodd" fill-opacity="0.501961"/><text fill="#FFFFFF" font-family="Times New Roman,Times New Roman_MSFontService,sans-serif" font-weight="400" font-size="37" transform="matrix(1 0 0 1 1678.42 1670)">Ekspla</text><text fill="#FFFFFF" font-family="Times New Roman,Times New Roman_MSFontService,sans-serif" font-weight="400" font-size="37" transform="matrix(1 0 0 1 1657.22 1714)">NL</text><text fill="#FFFFFF" font-family="Times New Roman,Times New Roman_MSFontService,sans-serif" font-weight="400" font-size="37" transform="matrix(1 0 0 1 1705.92 1714)">-</text><text fill="#FFFFFF" font-family="Times New Roman,Times New Roman_MSFontService,sans-serif" font-weight="400" font-size="37" transform="matrix(1 0 0 1 1717.95 1714)">303D</text><text fill="#FFFFFF" font-family="Times New Roman,Times New Roman_MSFontService,sans-serif" font-weight="400" font-size="37" transform="matrix(1 0 0 1 1675.55 1758)">rupture</text><text fill="#FFFFFF" font-family="Times New Roman,Times New Roman_MSFontService,sans-serif" font-weight="400" font-size="37" transform="matrix(1 0 0 1 1693.89 1802)">laser</text><path d="M1635 1949.89C1635 1946.08 1638.08 1943 1641.89 1943L1878.11 1943C1881.92 1943 1885 1946.08 1885 1949.89L1885 2131.11C1885 2134.92 1881.92 2138 1878.11 2138L1641.89 2138C1638.08 2138 1635 2134.92 1635 2131.11Z" fill="#000000" fill-rule="evenodd" fill-opacity="0.501961"/><text fill="#FFFFFF" font-family="Times New Roman,Times New Roman_MSFontService,sans-serif" font-weight="400" font-size="37" transform="matrix(1 0 0 1 1694.75 1988)">Phantom </text><text fill="#FFFFFF" font-family="Times New Roman,Times New Roman_MSFontService,sans-serif" font-weight="400" font-size="37" transform="matrix(1 0 0 1 1710.22 2032)">V1211 </text><text fill="#FFFFFF" font-family="Times New Roman,Times New Roman_MSFontService,sans-serif" font-weight="400" font-size="37" transform="matrix(1 0 0 1 1722.25 2076)">PLIF </text><text fill="#FFFFFF" font-family="Times New Roman,Times New Roman_MSFontService,sans-serif" font-weight="400" font-size="37" transform="matrix(1 0 0 1 1707.63 2120)">camera</text><path d="M1917 1949.89C1917 1946.08 1920.08 1943 1923.89 1943L2160.11 1943C2163.92 1943 2167 1946.08 2167 1949.89L2167 2131.11C2167 2134.92 2163.92 2138 2160.11 2138L1923.89 2138C1920.08 2138 1917 2134.92 1917 2131.11Z" fill="#000000" fill-rule="evenodd" fill-opacity="0.501961"/><text fill="#FFFFFF" font-family="Times New Roman,Times New Roman_MSFontService,sans-serif" font-weight="400" font-size="37" transform="matrix(1 0 0 1 2004.08 2009)">PLIF </text><text fill="#FFFFFF" font-family="Times New Roman,Times New Roman_MSFontService,sans-serif" font-weight="400" font-size="37" transform="matrix(1 0 0 1 1961.39 2053)">acquisition </text><text fill="#FFFFFF" font-family="Times New Roman,Times New Roman_MSFontService,sans-serif" font-weight="400" font-size="37" transform="matrix(1 0 0 1 1972.85 2097)">computer </text><path d="M1637 2296.62C1637 2293.51 1639.51 2291 1642.62 2291L1990.38 2291C1993.49 2291 1996 2293.51 1996 2296.62L1996 2444.38C1996 2447.48 1993.49 2450 1990.38 2450L1642.62 2450C1639.51 2450 1637 2447.48 1637 2444.38Z" fill="#000000" fill-rule="evenodd" fill-opacity="0.501961"/><text fill="#FFFFFF" font-family="Times New Roman,Times New Roman_MSFontService,sans-serif" font-weight="400" font-size="37" transform="matrix(1 0 0 1 1694.88 2361)">Pulse</text><text fill="#FFFFFF" font-family="Times New Roman,Times New Roman_MSFontService,sans-serif" font-weight="400" font-size="37" transform="matrix(1 0 0 1 1774.51 2361)">-</text><text fill="#FFFFFF" font-family="Times New Roman,Times New Roman_MSFontService,sans-serif" font-weight="400" font-size="37" transform="matrix(1 0 0 1 1786.54 2361)">burst laser </text><text fill="#FFFFFF" font-family="Times New Roman,Times New Roman_MSFontService,sans-serif" font-weight="400" font-size="37" transform="matrix(1 0 0 1 1703.47 2405)">delay generator</text><path d="M1637 2516.32C1637 2512.83 1639.83 2510 1643.32 2510L1989.68 2510C1993.17 2510 1996 2512.83 1996 2516.32L1996 2682.68C1996 2686.17 1993.17 2689 1989.68 2689L1643.32 2689C1639.83 2689 1637 2686.17 1637 2682.68Z" fill="#000000" fill-rule="evenodd" fill-opacity="0.501961"/><text fill="#FFFFFF" font-family="Times New Roman,Times New Roman_MSFontService,sans-serif" font-weight="400" font-size="37" transform="matrix(1 0 0 1 1694.88 2613)">Pulse</text><text fill="#FFFFFF" font-family="Times New Roman,Times New Roman_MSFontService,sans-serif" font-weight="400" font-size="37" transform="matrix(1 0 0 1 1774.51 2613)">-</text><text fill="#FFFFFF" font-family="Times New Roman,Times New Roman_MSFontService,sans-serif" font-weight="400" font-size="37" transform="matrix(1 0 0 1 1786.54 2613)">burst laser</text><path d="M2161 822 2214.1 822" stroke="#4472C4" stroke-width="2.29167" stroke-miterlimit="8" fill="none" fill-rule="evenodd"/><path d="M2161 803 2231.8 803" stroke="#4472C4" stroke-width="2.29167" stroke-miterlimit="8" fill="none" fill-rule="evenodd"/><path d="M2161 784 2248.54 784" stroke="#4472C4" stroke-width="2.29167" stroke-miterlimit="8" fill="none" fill-rule="evenodd"/><path d="M2214 822 2214.06 1079.68" stroke="#4472C4" stroke-width="2.29167" stroke-miterlimit="8" fill="none" fill-rule="evenodd"/><path d="M2166 1080 2213.41 1080" stroke="#4472C4" stroke-width="2.29167" stroke-miterlimit="8" fill="none" fill-rule="evenodd"/><path d="M0 0 0.859646 919.022" stroke="#4472C4" stroke-width="2.29167" stroke-miterlimit="8" fill="none" fill-rule="evenodd" transform="matrix(-1 0 0 1 2232.86 803)"/><path d="M2250 784 2250 2370.56" stroke="#4472C4" stroke-width="2.29167" stroke-miterlimit="8" fill="none" fill-rule="evenodd"/><path d="M1853 1723 2231.73 1723" stroke="#4472C4" stroke-width="2.29167" stroke-miterlimit="8" fill="none" fill-rule="evenodd"/><path d="M1996 2370 2248.66 2370" stroke="#4472C4" stroke-width="2.29167" stroke-miterlimit="8" fill="none" fill-rule="evenodd"/><path d="M0 0 0.000360892 153.328" stroke="#4472C4" stroke-width="2.29167" stroke-miterlimit="8" fill="none" fill-rule="evenodd" transform="matrix(1 0 0 -1 1767 2290.33)"/><path d="M0 0 0.000360892 64.0396" stroke="#4472C4" stroke-width="2.29167" stroke-miterlimit="8" fill="none" fill-rule="evenodd" transform="matrix(1 0 0 -1 1766 2510.04)"/><path d="M0 0 31.6698 0.363419" stroke="#4472C4" stroke-width="2.29167" stroke-miterlimit="8" fill="none" fill-rule="evenodd" transform="matrix(1 0 0 -1 1885 2040.36)"/><path d="M1853 1078 1916.47 1078" stroke="#4472C4" stroke-width="2.29167" stroke-miterlimit="8" fill="none" fill-rule="evenodd"/><path d="M1988 1176 1988 1317.84" stroke="#4472C4" stroke-width="2.29167" stroke-miterlimit="8" fill="none" fill-rule="evenodd"/><path d="M1853 1319 1987.92 1319" stroke="#4472C4" stroke-width="2.29167" stroke-miterlimit="8" fill="none" fill-rule="evenodd"/></g></svg>