<svg width="1737" height="2418" xmlns="http://www.w3.org/2000/svg" xmlns:xlink="http://www.w3.org/1999/xlink" xml:space="preserve" overflow="hidden"><defs><clipPath id="clip0"><rect x="250" y="289" width="1737" height="2418"/></clipPath></defs><g clip-path="url(#clip0)" transform="translate(-250 -289)"><path d="M0 0 463.534 1.55436" stroke="#FF0000" stroke-width="4.58333" stroke-miterlimit="8" fill="none" fill-rule="evenodd" transform="matrix(-1 0 0 1 1636.03 1979.5)"/><path d="M832.722 1678.31 829.5 1128.5" stroke="#FF0000" stroke-width="4.58333" stroke-miterlimit="8" fill="none" fill-rule="evenodd"/><path d="M0 0 25.4739 0.000360892" stroke="#FF0000" stroke-width="4.58333" stroke-miterlimit="8" fill="none" fill-rule="evenodd" transform="matrix(-1 0 0 1 1337.97 459.5)"/><path d="M1336.56 360.664 614.5 360.5" stroke="#FF0000" stroke-width="4.58333" stroke-miterlimit="8" fill="none" fill-rule="evenodd"/><path d="M0 0 554.068 1.70269" stroke="#FF0000" stroke-width="4.58333" stroke-miterlimit="8" fill="none" fill-rule="evenodd" transform="matrix(-1 0 0 1 1234.57 457.5)"/><rect x="578.5" y="570.5" width="215" height="517" stroke="#000000" stroke-width="4.58333" stroke-miterlimit="8" fill="#FFFFFF"/><rect x="578.5" y="1087.5" width="215" height="956" stroke="#000000" stroke-width="4.58333" stroke-miterlimit="8" fill="#FFFFFF"/><text font-family="Times New Roman,Times New Roman_MSFontService,sans-serif" font-weight="400" font-size="37" transform="matrix(1 0 0 1 638.143 783)">Driver</text><text font-family="Times New Roman,Times New Roman_MSFontService,sans-serif" font-weight="400" font-size="37" transform="matrix(1 0 0 1 633.857 827)">sectio</text><text font-family="Times New Roman,Times New Roman_MSFontService,sans-serif" font-weight="400" font-size="37" transform="matrix(1 0 0 1 719.222 827)">n</text><text font-family="Times New Roman,Times New Roman_MSFontService,sans-serif" font-weight="400" font-size="37" transform="matrix(1 0 0 1 635.003 1526)">Driven</text><text font-family="Times New Roman,Times New Roman_MSFontService,sans-serif" font-weight="400" font-size="37" transform="matrix(1 0 0 1 633.857 1570)">sectio</text><text font-family="Times New Roman,Times New Roman_MSFontService,sans-serif" font-weight="400" font-size="37" transform="matrix(1 0 0 1 719.222 1570)">n</text><rect x="676.5" y="2043.5" width="18.9999" height="125" stroke="#000000" stroke-width="4.58333" stroke-miterlimit="8" fill="#FFFFFF"/><rect x="666.5" y="2168.5" width="39.9999" height="55" stroke="#000000" stroke-width="4.58333" stroke-miterlimit="8" fill="#FFFFFF"/><path d="M294 2113.67C294 2098.94 305.939 2087 320.667 2087L481.333 2087C496.061 2087 508 2098.94 508 2113.67L508 2220.33C508 2235.06 496.061 2247 481.333 2247L320.667 2247C305.939 2247 294 2235.06 294 2220.33Z" fill="#000000" fill-rule="evenodd" fill-opacity="0.501961"/><text fill="#FFFFFF" font-family="Times New Roman,Times New Roman_MSFontService,sans-serif" font-weight="400" font-size="37" transform="matrix(1 0 0 1 337.442 2158)">MST fill </text><text fill="#FFFFFF" font-family="Times New Roman,Times New Roman_MSFontService,sans-serif" font-weight="400" font-size="37" transform="matrix(1 0 0 1 335.15 2202)">manifold</text><path d="M665.5 2044.5 665.5 2118.39" stroke="#FF0000" stroke-width="4.58333" stroke-miterlimit="8" fill="none" fill-rule="evenodd"/><path d="M0 0 155.755 0.000360892" stroke="#FF0000" stroke-width="4.58333" stroke-miterlimit="8" fill="none" fill-rule="evenodd" transform="matrix(-1 0 0 1 664.255 2118.5)"/><text font-family="Times New Roman,Times New Roman_MSFontService,sans-serif" font-weight="400" font-size="28" transform="matrix(1 0 0 1 518.543 2115)">Vacuum</text><path d="M0 0 167.903 0.000360892" stroke="#FF0000" stroke-width="4.58333" stroke-miterlimit="8" fill="none" fill-rule="evenodd" transform="matrix(-1 0 0 1 676.403 2156.5)"/><path d="M0 0 156.614 0.000360892" stroke="#FF0000" stroke-width="4.58333" stroke-miterlimit="8" fill="none" fill-rule="evenodd" transform="matrix(-1 0 0 1 665.114 2197.5)"/><text font-family="Times New Roman,Times New Roman_MSFontService,sans-serif" font-weight="400" font-size="28" transform="matrix(1 0 0 1 519.402 2153)">Driven fill</text><text font-family="Times New Roman,Times New Roman_MSFontService,sans-serif" font-weight="400" font-size="28" transform="matrix(1 0 0 1 519.402 2194)">Driver fill</text><path d="M325 1886.83C325 1872.01 337.014 1860 351.834 1860L512.166 1860C526.986 1860 539 1872.01 539 1886.83L539 1994.17C539 2008.99 526.986 2021 512.166 2021L351.834 2021C337.014 2021 325 2008.99 325 1994.17Z" fill="#000000" fill-rule="evenodd" fill-opacity="0.501961"/><text fill="#FFFFFF" font-family="Times New Roman,Times New Roman_MSFontService,sans-serif" font-weight="400" font-size="37" transform="matrix(1 0 0 1 369.804 1953)">Vacuum</text><path d="M350 1659.83C350 1645.01 362.014 1633 376.834 1633L486.166 1633C500.986 1633 513 1645.01 513 1659.83L513 1767.17C513 1781.99 500.986 1794 486.166 1794L376.834 1794C362.014 1794 350 1781.99 350 1767.17Z" fill="#000000" fill-rule="evenodd" fill-opacity="0.501961"/><text fill="#FFFFFF" font-family="Times New Roman,Times New Roman_MSFontService,sans-serif" font-weight="400" font-size="37" transform="matrix(1 0 0 1 395.811 1727)">Vent</text><path d="M431.5 2021.5 431.847 2087.26" stroke="#FF0000" stroke-width="4.58333" stroke-miterlimit="8" fill="none" fill-rule="evenodd"/><path d="M0 0 41.3013 0.000360892" stroke="#FF0000" stroke-width="4.58333" stroke-miterlimit="8" fill="none" fill-rule="evenodd" transform="matrix(-1 0 0 1 294.801 2168.5)"/><path d="M252.5 1713.5 252.501 2170.74" stroke="#FF0000" stroke-width="4.58333" stroke-miterlimit="8" fill="none" fill-rule="evenodd"/><path d="M431.5 1794.5 431.847 1860.26" stroke="#FF0000" stroke-width="4.58333" stroke-miterlimit="8" fill="none" fill-rule="evenodd"/><path d="M350.58 1714.33 252.5 1713.5" stroke="#FF0000" stroke-width="4.58333" stroke-miterlimit="8" fill="none" fill-rule="evenodd"/><path d="M816 1946.17C816 1935.58 824.581 1927 835.167 1927L911.833 1927C922.418 1927 931 1935.58 931 1946.17L931 2156.83C931 2167.42 922.418 2176 911.833 2176L835.167 2176C824.581 2176 816 2167.42 816 2156.83Z" fill="#000000" fill-rule="evenodd" fill-opacity="0.501961"/><text fill="#FFFFFF" font-family="Times New Roman,Times New Roman_MSFontService,sans-serif" font-weight="400" font-size="37" transform="matrix(6.12323e-17 -1 1 6.12323e-17 886.379 2138)">TiO</text><text fill="#FFFFFF" font-family="Times New Roman,Times New Roman_MSFontService,sans-serif" font-weight="400" font-size="37" transform="matrix(6.12323e-17 -1 1 6.12323e-17 886.379 2079)">₂ seeder</text><path d="M950 1959.17C950 1941.4 964.402 1927 982.168 1927L1110.83 1927C1128.6 1927 1143 1941.4 1143 1959.17L1143 2143.83C1143 2161.6 1128.6 2176 1110.83 2176L982.168 2176C964.402 2176 950 2161.6 950 2143.83Z" fill="#000000" fill-rule="evenodd" fill-opacity="0.501961"/><text fill="#FFFFFF" font-family="Times New Roman,Times New Roman_MSFontService,sans-serif" font-weight="400" font-size="37" transform="matrix(1 0 0 1 1008.08 2021)">Mass </text><text fill="#FFFFFF" font-family="Times New Roman,Times New Roman_MSFontService,sans-serif" font-weight="400" font-size="37" transform="matrix(1 0 0 1 1013.23 2065)">flow </text><text fill="#FFFFFF" font-family="Times New Roman,Times New Roman_MSFontService,sans-serif" font-weight="400" font-size="37" transform="matrix(1 0 0 1 994.898 2109)">control</text><path d="M1064 2249C1064 2234.09 1076.09 2222 1091 2222L1273 2222C1287.91 2222 1300 2234.09 1300 2249L1300 2357C1300 2371.91 1287.91 2384 1273 2384L1091 2384C1076.09 2384 1064 2371.91 1064 2357Z" fill="#000000" fill-rule="evenodd" fill-opacity="0.501961"/><text fill="#FFFFFF" font-family="Times New Roman,Times New Roman_MSFontService,sans-serif" font-weight="400" font-size="37" transform="matrix(1 0 0 1 1131.37 2294)">Digital </text><text fill="#FFFFFF" font-family="Times New Roman,Times New Roman_MSFontService,sans-serif" font-weight="400" font-size="37" transform="matrix(1 0 0 1 1116.47 2338)">regulator</text><path d="M0 0 19.254 0.000360892" stroke="#FF0000" stroke-width="4.58333" stroke-miterlimit="8" fill="none" fill-rule="evenodd" transform="matrix(-1 0 0 1 950.754 2052.5)"/><path d="M844.5 1887.5 844.5 1927.36" stroke="#FF0000" stroke-width="4.58333" stroke-miterlimit="8" fill="none" fill-rule="evenodd"/><path d="M0 0 51.1334 0.000360892" stroke="#FF0000" stroke-width="4.58333" stroke-miterlimit="8" fill="none" fill-rule="evenodd" transform="matrix(-1 0 0 1 846.633 1888.5)"/><path d="M948 1611.83C948 1593.7 962.7 1579 980.834 1579L1169.17 1579C1187.3 1579 1202 1593.7 1202 1611.83L1202 1743.17C1202 1761.3 1187.3 1776 1169.17 1776L980.834 1776C962.7 1776 948 1761.3 948 1743.17Z" fill="#000000" fill-rule="evenodd" fill-opacity="0.501961"/><text fill="#FFFFFF" font-family="Times New Roman,Times New Roman_MSFontService,sans-serif" font-weight="400" font-size="37" transform="matrix(1 0 0 1 997.872 1669)">Driven fill </text><text fill="#FFFFFF" font-family="Times New Roman,Times New Roman_MSFontService,sans-serif" font-weight="400" font-size="37" transform="matrix(1 0 0 1 1008.46 1713)">manifold</text><path d="M910 1364.83C910 1346.7 924.7 1332 942.834 1332L1131.17 1332C1149.3 1332 1164 1346.7 1164 1364.83L1164 1496.17C1164 1514.3 1149.3 1529 1131.17 1529L942.834 1529C924.7 1529 910 1514.3 910 1496.17Z" fill="#000000" fill-rule="evenodd" fill-opacity="0.501961"/><text fill="#FFFFFF" font-family="Times New Roman,Times New Roman_MSFontService,sans-serif" font-weight="400" font-size="37" transform="matrix(1 0 0 1 963.482 1421)">Driver fill </text><text fill="#FFFFFF" font-family="Times New Roman,Times New Roman_MSFontService,sans-serif" font-weight="400" font-size="37" transform="matrix(1 0 0 1 970.93 1465)">manifold</text><path d="M1241 1249.83C1241 1231.7 1255.7 1217 1273.83 1217L1462.17 1217C1480.3 1217 1495 1231.7 1495 1249.83L1495 1381.17C1495 1399.3 1480.3 1414 1462.17 1414L1273.83 1414C1255.7 1414 1241 1399.3 1241 1381.17Z" fill="#000000" fill-rule="evenodd" fill-opacity="0.501961"/><text fill="#FFFFFF" font-family="Times New Roman,Times New Roman_MSFontService,sans-serif" font-weight="400" font-size="37" transform="matrix(1 0 0 1 1324.96 1262)">High</text><text fill="#FFFFFF" font-family="Times New Roman,Times New Roman_MSFontService,sans-serif" font-weight="400" font-size="37" transform="matrix(1 0 0 1 1398.29 1262)">-</text><text fill="#FFFFFF" font-family="Times New Roman,Times New Roman_MSFontService,sans-serif" font-weight="400" font-size="37" transform="matrix(1 0 0 1 1306.92 1306)">pressure </text><text fill="#FFFFFF" font-family="Times New Roman,Times New Roman_MSFontService,sans-serif" font-weight="400" font-size="37" transform="matrix(1 0 0 1 1318.66 1350)">supply </text><text fill="#FFFFFF" font-family="Times New Roman,Times New Roman_MSFontService,sans-serif" font-weight="400" font-size="37" transform="matrix(1 0 0 1 1301.47 1394)">manifold</text><path d="M1241 1485.83C1241 1467.7 1255.7 1453 1273.83 1453L1462.17 1453C1480.3 1453 1495 1467.7 1495 1485.83L1495 1617.17C1495 1635.3 1480.3 1650 1462.17 1650L1273.83 1650C1255.7 1650 1241 1635.3 1241 1617.17Z" fill="#000000" fill-rule="evenodd" fill-opacity="0.501961"/><text fill="#FFFFFF" font-family="Times New Roman,Times New Roman_MSFontService,sans-serif" font-weight="400" font-size="37" transform="matrix(1 0 0 1 1305.76 1564)">Vacuum</text><path d="M1241 1721.83C1241 1703.7 1255.7 1689 1273.83 1689L1462.17 1689C1480.3 1689 1495 1703.7 1495 1721.83L1495 1853.17C1495 1871.3 1480.3 1886 1462.17 1886L1273.83 1886C1255.7 1886 1241 1871.3 1241 1853.17Z" fill="#000000" fill-rule="evenodd" fill-opacity="0.501961"/><text fill="#FFFFFF" font-family="Times New Roman,Times New Roman_MSFontService,sans-serif" font-weight="400" font-size="37" transform="matrix(1 0 0 1 1332.12 1800)">Vent</text><path d="M1031.5 557.167C1031.5 529.184 1059.48 506.5 1094 506.5 1128.52 506.5 1156.5 529.184 1156.5 557.167L1156.5 759.833C1156.5 787.816 1128.52 810.5 1094 810.5 1059.48 810.5 1031.5 787.816 1031.5 759.833Z" fill="#FFFFFF" fill-rule="evenodd"/><path d="M1156.5 557.167C1156.5 585.149 1128.52 607.833 1094 607.833 1059.48 607.833 1031.5 585.149 1031.5 557.167" stroke="#000000" stroke-width="4.58333" stroke-miterlimit="8" fill="none" fill-rule="evenodd"/><path d="M1031.5 557.167C1031.5 529.184 1059.48 506.5 1094 506.5 1128.52 506.5 1156.5 529.184 1156.5 557.167L1156.5 759.833C1156.5 787.816 1128.52 810.5 1094 810.5 1059.48 810.5 1031.5 787.816 1031.5 759.833Z" stroke="#000000" stroke-width="4.58333" stroke-miterlimit="8" fill="none" fill-rule="evenodd"/><text font-family="Times New Roman,Times New Roman_MSFontService,sans-serif" font-weight="400" font-size="37" transform="matrix(1 0 0 1 1049.36 674)">Boost </text><text font-family="Times New Roman,Times New Roman_MSFontService,sans-serif" font-weight="400" font-size="37" transform="matrix(1 0 0 1 1065.4 718)">tank</text><path d="M1274.5 556.167C1274.5 528.184 1302.26 505.5 1336.5 505.5 1370.74 505.5 1398.5 528.184 1398.5 556.167L1398.5 758.833C1398.5 786.816 1370.74 809.5 1336.5 809.5 1302.26 809.5 1274.5 786.816 1274.5 758.833Z" fill="#FFFFFF" fill-rule="evenodd"/><path d="M1398.5 556.167C1398.5 584.149 1370.74 606.833 1336.5 606.833 1302.26 606.833 1274.5 584.149 1274.5 556.167" stroke="#000000" stroke-width="4.58333" stroke-miterlimit="8" fill="none" fill-rule="evenodd"/><path d="M1274.5 556.167C1274.5 528.184 1302.26 505.5 1336.5 505.5 1370.74 505.5 1398.5 528.184 1398.5 556.167L1398.5 758.833C1398.5 786.816 1370.74 809.5 1336.5 809.5 1302.26 809.5 1274.5 786.816 1274.5 758.833Z" stroke="#000000" stroke-width="4.58333" stroke-miterlimit="8" fill="none" fill-rule="evenodd"/><text font-family="Times New Roman,Times New Roman_MSFontService,sans-serif" font-weight="400" font-size="37" transform="matrix(1 0 0 1 1291.5 673)">Boost </text><text font-family="Times New Roman,Times New Roman_MSFontService,sans-serif" font-weight="400" font-size="37" transform="matrix(1 0 0 1 1307.55 717)">tank</text><path d="M1616.5 1328.17C1616.5 1300.18 1644.26 1277.5 1678.5 1277.5 1712.74 1277.5 1740.5 1300.18 1740.5 1328.17L1740.5 1530.83C1740.5 1558.82 1712.74 1581.5 1678.5 1581.5 1644.26 1581.5 1616.5 1558.82 1616.5 1530.83Z" fill="#FFFFFF" fill-rule="evenodd"/><path d="M1740.5 1328.17C1740.5 1356.15 1712.74 1378.83 1678.5 1378.83 1644.26 1378.83 1616.5 1356.15 1616.5 1328.17" stroke="#000000" stroke-width="4.58333" stroke-miterlimit="8" fill="none" fill-rule="evenodd"/><path d="M1616.5 1328.17C1616.5 1300.18 1644.26 1277.5 1678.5 1277.5 1712.74 1277.5 1740.5 1300.18 1740.5 1328.17L1740.5 1530.83C1740.5 1558.82 1712.74 1581.5 1678.5 1581.5 1644.26 1581.5 1616.5 1558.82 1616.5 1530.83Z" stroke="#000000" stroke-width="4.58333" stroke-miterlimit="8" fill="none" fill-rule="evenodd"/><text font-family="Times New Roman,Times New Roman_MSFontService,sans-serif" font-weight="400" font-size="34" transform="matrix(1 0 0 1 1628.01 1426)">Supply </text><text font-family="Times New Roman,Times New Roman_MSFontService,sans-serif" font-weight="400" font-size="34" transform="matrix(1 0 0 1 1619.99 1467)">cylinder </text><text font-family="Times New Roman,Times New Roman_MSFontService,sans-serif" font-weight="400" font-size="34" transform="matrix(1 0 0 1 1668.11 1509)">1</text><path d="M1833.5 1328.17C1833.5 1300.18 1861.26 1277.5 1895.5 1277.5 1929.74 1277.5 1957.5 1300.18 1957.5 1328.17L1957.5 1530.83C1957.5 1558.82 1929.74 1581.5 1895.5 1581.5 1861.26 1581.5 1833.5 1558.82 1833.5 1530.83Z" fill="#FFFFFF" fill-rule="evenodd"/><path d="M1957.5 1328.17C1957.5 1356.15 1929.74 1378.83 1895.5 1378.83 1861.26 1378.83 1833.5 1356.15 1833.5 1328.17" stroke="#000000" stroke-width="4.58333" stroke-miterlimit="8" fill="none" fill-rule="evenodd"/><path d="M1833.5 1328.17C1833.5 1300.18 1861.26 1277.5 1895.5 1277.5 1929.74 1277.5 1957.5 1300.18 1957.5 1328.17L1957.5 1530.83C1957.5 1558.82 1929.74 1581.5 1895.5 1581.5 1861.26 1581.5 1833.5 1558.82 1833.5 1530.83Z" stroke="#000000" stroke-width="4.58333" stroke-miterlimit="8" fill="none" fill-rule="evenodd"/><text font-family="Times New Roman,Times New Roman_MSFontService,sans-serif" font-weight="400" font-size="34" transform="matrix(1 0 0 1 1845.24 1426)">Supply </text><text font-family="Times New Roman,Times New Roman_MSFontService,sans-serif" font-weight="400" font-size="34" transform="matrix(1 0 0 1 1837.22 1467)">cylinder </text><text font-family="Times New Roman,Times New Roman_MSFontService,sans-serif" font-weight="400" font-size="34" transform="matrix(1 0 0 1 1885.35 1509)">8</text><path d="M1724 1453 1724 1453" stroke="#000000" stroke-width="2.29167" stroke-miterlimit="8" fill="none" fill-rule="evenodd"/><path d="M1744.5 1399.5 1833.2 1399.5" stroke="#000000" stroke-width="3.4375" stroke-linejoin="round" stroke-miterlimit="10" stroke-dasharray="3.4375 3.4375" fill="none" fill-rule="evenodd"/><path d="M1574.5 2038C1574.5 2010.11 1602.48 1987.5 1637 1987.5 1671.52 1987.5 1699.5 2010.11 1699.5 2038L1699.5 2240C1699.5 2267.89 1671.52 2290.5 1637 2290.5 1602.48 2290.5 1574.5 2267.89 1574.5 2240Z" fill="#FFFFFF" fill-rule="evenodd"/><path d="M1699.5 2038C1699.5 2065.89 1671.52 2088.5 1637 2088.5 1602.48 2088.5 1574.5 2065.89 1574.5 2038" stroke="#000000" stroke-width="4.58333" stroke-miterlimit="8" fill="none" fill-rule="evenodd"/><path d="M1574.5 2038C1574.5 2010.11 1602.48 1987.5 1637 1987.5 1671.52 1987.5 1699.5 2010.11 1699.5 2038L1699.5 2240C1699.5 2267.89 1671.52 2290.5 1637 2290.5 1602.48 2290.5 1574.5 2267.89 1574.5 2240Z" stroke="#000000" stroke-width="4.58333" stroke-miterlimit="8" fill="none" fill-rule="evenodd"/><text font-family="Times New Roman,Times New Roman_MSFontService,sans-serif" font-weight="400" font-size="34" transform="matrix(1 0 0 1 1617.91 2142)">N₂ </text><text font-family="Times New Roman,Times New Roman_MSFontService,sans-serif" font-weight="400" font-size="34" transform="matrix(1 0 0 1 1589.56 2183)">supply</text><path d="M1361.5 2207.17C1361.5 2179.18 1389.26 2156.5 1423.5 2156.5 1457.74 2156.5 1485.5 2179.18 1485.5 2207.17L1485.5 2409.83C1485.5 2437.82 1457.74 2460.5 1423.5 2460.5 1389.26 2460.5 1361.5 2437.82 1361.5 2409.83Z" fill="#FFFFFF" fill-rule="evenodd"/><path d="M1485.5 2207.17C1485.5 2235.15 1457.74 2257.83 1423.5 2257.83 1389.26 2257.83 1361.5 2235.15 1361.5 2207.17" stroke="#000000" stroke-width="4.58333" stroke-miterlimit="8" fill="none" fill-rule="evenodd"/><path d="M1361.5 2207.17C1361.5 2179.18 1389.26 2156.5 1423.5 2156.5 1457.74 2156.5 1485.5 2179.18 1485.5 2207.17L1485.5 2409.83C1485.5 2437.82 1457.74 2460.5 1423.5 2460.5 1389.26 2460.5 1361.5 2437.82 1361.5 2409.83Z" stroke="#000000" stroke-width="4.58333" stroke-miterlimit="8" fill="none" fill-rule="evenodd"/><text font-family="Times New Roman,Times New Roman_MSFontService,sans-serif" font-weight="400" font-size="34" transform="matrix(1 0 0 1 1406 2300)">N₂</text><text font-family="Times New Roman,Times New Roman_MSFontService,sans-serif" font-weight="400" font-size="34" transform="matrix(1 0 0 1 1405.42 2341)">Ar</text><text font-family="Times New Roman,Times New Roman_MSFontService,sans-serif" font-weight="400" font-size="34" transform="matrix(1 0 0 1 1397.4 2383)">CF₄</text><text font-family="Times New Roman,Times New Roman_MSFontService,sans-serif" font-weight="400" font-size="34" transform="matrix(1 0 0 1 1399.42 2424)">SF₆</text><path d="M1477.5 1957.5 1519.5 1981 1477.5 2004.5Z" stroke="#000000" stroke-width="4.58333" stroke-miterlimit="8" fill-rule="evenodd"/><path d="M1563.5 2004.5 1522.5 1981.5 1563.5 1958.5Z" stroke="#000000" stroke-width="4.58333" stroke-miterlimit="8" fill-rule="evenodd"/><path d="M1520.5 1948.5 1520.5 1979.54" stroke="#000000" stroke-width="6.875" stroke-miterlimit="8" fill="none" fill-rule="evenodd"/><path d="M1493.55 1946.5C1492.62 1933.55 1503.7 1922.38 1518.31 1921.55 1532.91 1920.72 1545.51 1930.55 1546.45 1943.5 1546.52 1944.51 1546.52 1945.52 1546.44 1946.53Z" stroke="#000000" stroke-width="4.58333" stroke-miterlimit="8" fill="#FFFFFF" fill-rule="evenodd"/><path d="M1520.5 1905.5 1520.5 1923.4" stroke="#000000" stroke-width="6.875" stroke-miterlimit="8" fill="none" fill-rule="evenodd"/><path d="M0 0 74.0096 0.105741" stroke="#000000" stroke-width="6.875" stroke-miterlimit="8" fill="none" fill-rule="evenodd" transform="matrix(1 0 0 -1 1516.5 1905.61)"/><path d="M0 0 71.1597 75.642" stroke="#000000" stroke-width="6.875" stroke-miterlimit="8" fill="none" fill-rule="evenodd" transform="matrix(-1 0 0 1 1593.66 1905.5)"/><path d="M0 0 68.0759 75.642" stroke="#000000" stroke-width="6.875" stroke-miterlimit="8" fill="none" fill-rule="evenodd" transform="matrix(-1 0 0 1 1590.58 1905.5)"/><path d="M1635.5 1978.5 1636.36 2030.38" stroke="#FF0000" stroke-width="4.58333" stroke-miterlimit="8" fill="none" fill-rule="evenodd"/><path d="M1265.5 2125.5 1306.5 2149 1265.5 2172.5Z" stroke="#000000" stroke-width="4.58333" stroke-miterlimit="8" fill-rule="evenodd"/><path d="M1351.5 2172.5 1309.5 2149.5 1351.5 2126.5Z" stroke="#000000" stroke-width="4.58333" stroke-miterlimit="8" fill-rule="evenodd"/><path d="M1308.5 2116.5 1308.5 2147.54" stroke="#000000" stroke-width="6.875" stroke-miterlimit="8" fill="none" fill-rule="evenodd"/><path d="M1281.55 2114.47C1280.65 2101.52 1291.54 2090.36 1305.87 2089.55 1320.2 2088.73 1332.55 2098.57 1333.45 2111.53 1333.52 2112.52 1333.52 2113.51 1333.45 2114.5Z" stroke="#000000" stroke-width="4.58333" stroke-miterlimit="8" fill="#FFFFFF" fill-rule="evenodd"/><path d="M1307.5 2073.5 1307.5 2091.41" stroke="#000000" stroke-width="6.875" stroke-miterlimit="8" fill="none" fill-rule="evenodd"/><path d="M0 0 74.0096 0.105741" stroke="#000000" stroke-width="6.875" stroke-miterlimit="8" fill="none" fill-rule="evenodd" transform="matrix(1 0 0 -1 1304.5 2073.61)"/><path d="M0 0 71.1597 75.642" stroke="#000000" stroke-width="6.875" stroke-miterlimit="8" fill="none" fill-rule="evenodd" transform="matrix(-1 0 0 1 1380.66 2073.5)"/><path d="M0 0 68.0759 75.642" stroke="#000000" stroke-width="6.875" stroke-miterlimit="8" fill="none" fill-rule="evenodd" transform="matrix(-1 0 0 1 1377.58 2073.5)"/><path d="M0 0 70.3538 0.000360892" stroke="#FF0000" stroke-width="4.58333" stroke-miterlimit="8" fill="none" fill-rule="evenodd" transform="matrix(-1 0 0 1 1422.85 2147.5)"/><path d="M1422.5 2146.5 1423.36 2198.38" stroke="#FF0000" stroke-width="4.58333" stroke-miterlimit="8" fill="none" fill-rule="evenodd"/><path d="M1519.5 1240.5 1561.5 1263.5 1519.5 1286.5Z" stroke="#000000" stroke-width="4.58333" stroke-miterlimit="8" fill-rule="evenodd"/><path d="M1605.5 1287.5 1564.5 1264 1605.5 1240.5Z" stroke="#000000" stroke-width="4.58333" stroke-miterlimit="8" fill-rule="evenodd"/><path d="M1562.5 1230.5 1562.5 1261.54" stroke="#000000" stroke-width="6.875" stroke-miterlimit="8" fill="none" fill-rule="evenodd"/><path d="M1535.55 1228.5C1534.62 1215.55 1545.7 1204.38 1560.31 1203.55 1574.91 1202.72 1587.51 1212.55 1588.45 1225.5 1588.52 1226.51 1588.52 1227.52 1588.44 1228.53Z" stroke="#000000" stroke-width="4.58333" stroke-miterlimit="8" fill="#FFFFFF" fill-rule="evenodd"/><path d="M1562.5 1188.5 1562.5 1206.4" stroke="#000000" stroke-width="6.875" stroke-miterlimit="8" fill="none" fill-rule="evenodd"/><path d="M0 0 74.0096 0.105741" stroke="#000000" stroke-width="6.875" stroke-miterlimit="8" fill="none" fill-rule="evenodd" transform="matrix(1 0 0 -1 1558.5 1188.61)"/><path d="M0 0 71.1597 75.642" stroke="#000000" stroke-width="6.875" stroke-miterlimit="8" fill="none" fill-rule="evenodd" transform="matrix(-1 0 0 1 1635.66 1188.5)"/><path d="M0 0 68.0759 75.642" stroke="#000000" stroke-width="6.875" stroke-miterlimit="8" fill="none" fill-rule="evenodd" transform="matrix(-1 0 0 1 1632.58 1188.5)"/><path d="M0 0 70.3538 0.000360892" stroke="#FF0000" stroke-width="4.58333" stroke-miterlimit="8" fill="none" fill-rule="evenodd" transform="matrix(-1 0 0 1 1678.85 1261.5)"/><path d="M1678.5 1260.5 1679.36 1312.38" stroke="#FF0000" stroke-width="4.58333" stroke-miterlimit="8" fill="none" fill-rule="evenodd"/><path d="M0 0 218.922 0.000360892" stroke="#FF0000" stroke-width="4.58333" stroke-miterlimit="8" fill="none" fill-rule="evenodd" transform="matrix(-1 0 0 1 1897.42 1261.5)"/><path d="M1897.5 1260.5 1898.36 1312.38" stroke="#FF0000" stroke-width="4.58333" stroke-miterlimit="8" fill="none" fill-rule="evenodd"/><path d="M1752.5 1260.5 1753.36 1312.38" stroke="#FF0000" stroke-width="4.58333" stroke-miterlimit="8" fill="none" fill-rule="evenodd"/><path d="M1766.5 1260.5 1767.36 1312.38" stroke="#FF0000" stroke-width="4.58333" stroke-miterlimit="8" fill="none" fill-rule="evenodd"/><path d="M1778.5 1260.5 1779.36 1312.38" stroke="#FF0000" stroke-width="4.58333" stroke-miterlimit="8" fill="none" fill-rule="evenodd"/><path d="M1792.5 1261.5 1793.36 1313.38" stroke="#FF0000" stroke-width="4.58333" stroke-miterlimit="8" fill="none" fill-rule="evenodd"/><path d="M1806.5 1261.5 1807.36 1313.38" stroke="#FF0000" stroke-width="4.58333" stroke-miterlimit="8" fill="none" fill-rule="evenodd"/><path d="M1819.5 1261.5 1820.36 1313.38" stroke="#FF0000" stroke-width="4.58333" stroke-miterlimit="8" fill="none" fill-rule="evenodd"/><path d="M0 0 25.4739 0.000360892" stroke="#FF0000" stroke-width="4.58333" stroke-miterlimit="8" fill="none" fill-rule="evenodd" transform="matrix(-1 0 0 1 1518.97 1263.5)"/><path d="M0 0 76.4421 0.000360892" stroke="#FF0000" stroke-width="4.58333" stroke-miterlimit="8" fill="none" fill-rule="evenodd" transform="matrix(-1 0 0 1 1240.94 1362.5)"/><path d="M0 0 76.4421 0.000360892" stroke="#FF0000" stroke-width="4.58333" stroke-miterlimit="8" fill="none" fill-rule="evenodd" transform="matrix(-1 0 0 1 1240.94 1494.5)"/><path d="M0 0 0.000360892 38.6981" stroke="#FF0000" stroke-width="4.58333" stroke-miterlimit="8" fill="none" fill-rule="evenodd" transform="matrix(1 0 0 -1 1368.5 1689.2)"/><path d="M0 0 42.5391 0.000360892" stroke="#FF0000" stroke-width="4.58333" stroke-miterlimit="8" fill="none" fill-rule="evenodd" transform="matrix(-1 0 0 1 1241.04 1613.5)"/><path d="M0 0 38.9013 0.000360892" stroke="#FF0000" stroke-width="4.58333" stroke-miterlimit="8" fill="none" fill-rule="evenodd" transform="matrix(-1 0 0 1 1241.4 1738.5)"/><path d="M0 0 115.143 0.100328" stroke="#FF0000" stroke-width="4.58333" stroke-miterlimit="8" fill="none" fill-rule="evenodd" transform="matrix(-1 0 0 1 947.643 1678.5)"/><path d="M986.5 436.5 1027.5 460 986.5 483.5Z" stroke="#000000" stroke-width="4.58333" stroke-miterlimit="8" fill-rule="evenodd"/><path d="M1071.5 483.5 1030.5 460 1071.5 436.5Z" stroke="#000000" stroke-width="4.58333" stroke-miterlimit="8" fill-rule="evenodd"/><path d="M1012.5 461C1012.5 451.887 1019.89 444.5 1029 444.5 1038.11 444.5 1045.5 451.887 1045.5 461 1045.5 470.113 1038.11 477.5 1029 477.5 1019.89 477.5 1012.5 470.113 1012.5 461Z" stroke="#000000" stroke-width="4.58333" stroke-miterlimit="8" fill-rule="evenodd"/><path d="M869.5 338.5 911.5 362 869.5 385.5Z" stroke="#000000" stroke-width="4.58333" stroke-miterlimit="8" fill-rule="evenodd"/><path d="M955.5 385.5 914.5 362 955.5 338.5Z" stroke="#000000" stroke-width="4.58333" stroke-miterlimit="8" fill-rule="evenodd"/><path d="M896.5 362C896.5 352.887 903.887 345.5 913 345.5 922.113 345.5 929.5 352.887 929.5 362 929.5 371.113 922.113 378.5 913 378.5 903.887 378.5 896.5 371.113 896.5 362Z" stroke="#000000" stroke-width="4.58333" stroke-miterlimit="8" fill-rule="evenodd"/><rect x="881.5" y="291.5" width="62.0002" height="33" stroke="#000000" stroke-width="4.58333" stroke-miterlimit="8" fill="#FFFFFF"/><path d="M899.5 291.5 899.5 322.542" stroke="#000000" stroke-width="6.875" stroke-miterlimit="8" fill="none" fill-rule="evenodd"/><path d="M926.5 291.5 926.5 322.542" stroke="#000000" stroke-width="6.875" stroke-miterlimit="8" fill="none" fill-rule="evenodd"/><path d="M0 0 26.3022 0.000360892" stroke="#000000" stroke-width="6.875" stroke-miterlimit="8" fill="none" fill-rule="evenodd" transform="matrix(-1 0 0 1 925.802 308.5)"/><path d="M912.5 326.5 912.501 346.314" stroke="#000000" stroke-width="6.875" stroke-miterlimit="8" fill="none" fill-rule="evenodd"/><path d="M869.5 435.5 911.5 459 869.5 482.5Z" stroke="#000000" stroke-width="4.58333" stroke-miterlimit="8" fill-rule="evenodd"/><path d="M955.5 482.5 914.5 459.5 955.5 436.5Z" stroke="#000000" stroke-width="4.58333" stroke-miterlimit="8" fill-rule="evenodd"/><path d="M896.5 460C896.5 450.887 903.887 443.5 913 443.5 922.113 443.5 929.5 450.887 929.5 460 929.5 469.113 922.113 476.5 913 476.5 903.887 476.5 896.5 469.113 896.5 460Z" stroke="#000000" stroke-width="4.58333" stroke-miterlimit="8" fill-rule="evenodd"/><rect x="881.5" y="389.5" width="62.0002" height="33" stroke="#000000" stroke-width="4.58333" stroke-miterlimit="8" fill="#FFFFFF"/><path d="M899.5 389.5 899.5 420.542" stroke="#000000" stroke-width="6.875" stroke-miterlimit="8" fill="none" fill-rule="evenodd"/><path d="M926.5 389.5 926.5 420.542" stroke="#000000" stroke-width="6.875" stroke-miterlimit="8" fill="none" fill-rule="evenodd"/><path d="M0 0 26.3022 0.000360892" stroke="#000000" stroke-width="6.875" stroke-miterlimit="8" fill="none" fill-rule="evenodd" transform="matrix(-1 0 0 1 925.802 406.5)"/><path d="M912.5 423.5 912.501 443.314" stroke="#000000" stroke-width="6.875" stroke-miterlimit="8" fill="none" fill-rule="evenodd"/><path d="M1112.5 436.5 1154.5 460 1112.5 483.5Z" stroke="#000000" stroke-width="4.58333" stroke-miterlimit="8" fill-rule="evenodd"/><path d="M1198.5 483.5 1157.5 460.5 1198.5 437.5Z" stroke="#000000" stroke-width="4.58333" stroke-miterlimit="8" fill-rule="evenodd"/><path d="M1139.5 461C1139.5 451.887 1146.89 444.5 1156 444.5 1165.11 444.5 1172.5 451.887 1172.5 461 1172.5 470.113 1165.11 477.5 1156 477.5 1146.89 477.5 1139.5 470.113 1139.5 461Z" stroke="#000000" stroke-width="4.58333" stroke-miterlimit="8" fill-rule="evenodd"/><path d="M1234.5 434.5 1276.5 458 1234.5 481.5Z" stroke="#000000" stroke-width="4.58333" stroke-miterlimit="8" fill-rule="evenodd"/><path d="M1320.5 481.5 1278.5 458 1320.5 434.5Z" stroke="#000000" stroke-width="4.58333" stroke-miterlimit="8" fill-rule="evenodd"/><path d="M1261.5 459C1261.5 449.887 1268.89 442.5 1278 442.5 1287.11 442.5 1294.5 449.887 1294.5 459 1294.5 468.113 1287.11 475.5 1278 475.5 1268.89 475.5 1261.5 468.113 1261.5 459Z" stroke="#000000" stroke-width="4.58333" stroke-miterlimit="8" fill-rule="evenodd"/><path d="M1235.5 336.5 1277.5 360 1235.5 383.5Z" stroke="#000000" stroke-width="4.58333" stroke-miterlimit="8" fill-rule="evenodd"/><path d="M1321.5 383.5 1279.5 360 1321.5 336.5Z" stroke="#000000" stroke-width="4.58333" stroke-miterlimit="8" fill-rule="evenodd"/><path d="M1262.5 361C1262.5 351.887 1269.89 344.5 1279 344.5 1288.11 344.5 1295.5 351.887 1295.5 361 1295.5 370.113 1288.11 377.5 1279 377.5 1269.89 377.5 1262.5 370.113 1262.5 361Z" stroke="#000000" stroke-width="4.58333" stroke-miterlimit="8" fill-rule="evenodd"/><path d="M1091.5 460.5 1091.5 531.114" stroke="#FF0000" stroke-width="4.58333" stroke-miterlimit="8" fill="none" fill-rule="evenodd"/><path d="M1336.5 359.5 1336.5 530.326" stroke="#FF0000" stroke-width="4.58333" stroke-miterlimit="8" fill="none" fill-rule="evenodd"/><path d="M1216.5 457.5 1216.5 1263.85" stroke="#FF0000" stroke-width="4.58333" stroke-miterlimit="8" fill="none" fill-rule="evenodd"/><path d="M0 0 25.4739 0.000360892" stroke="#FF0000" stroke-width="4.58333" stroke-miterlimit="8" fill="none" fill-rule="evenodd" transform="matrix(-1 0 0 1 1240.97 1263.5)"/><path d="M615.5 361.5 615.501 569.032" stroke="#FF0000" stroke-width="4.58333" stroke-miterlimit="8" fill="none" fill-rule="evenodd"/><path d="M682.5 459.5 682.5 569.359" stroke="#FF0000" stroke-width="4.58333" stroke-miterlimit="8" fill="none" fill-rule="evenodd"/><path d="M749.5 539.5 749.5 568.844" stroke="#FF0000" stroke-width="4.58333" stroke-miterlimit="8" fill="none" fill-rule="evenodd"/><path d="M0 0 133.351 0.000360892" stroke="#FF0000" stroke-width="4.58333" stroke-miterlimit="8" fill="none" fill-rule="evenodd" transform="matrix(-1 0 0 1 881.851 542.5)"/><path d="M881.5 539.5 881.5 1362.09" stroke="#FF0000" stroke-width="4.58333" stroke-miterlimit="8" fill="none" fill-rule="evenodd"/><path d="M0 0 31.2829 0.000360892" stroke="#FF0000" stroke-width="4.58333" stroke-miterlimit="8" fill="none" fill-rule="evenodd" transform="matrix(-1 0 0 1 910.783 1362.5)"/><path d="M773.5 516.5 814.5 540 773.5 563.5Z" stroke="#000000" stroke-width="4.58333" stroke-miterlimit="8" fill-rule="evenodd"/><path d="M859.5 563.5 817.5 540 859.5 516.5Z" stroke="#000000" stroke-width="4.58333" stroke-miterlimit="8" fill-rule="evenodd"/><path d="M799.5 541C799.5 531.887 806.887 524.5 816 524.5 825.113 524.5 832.5 531.887 832.5 541 832.5 550.113 825.113 557.5 816 557.5 806.887 557.5 799.5 550.113 799.5 541Z" stroke="#000000" stroke-width="4.58333" stroke-miterlimit="8" fill-rule="evenodd"/><rect x="785.5" y="469.5" width="61.0002" height="33" stroke="#000000" stroke-width="4.58333" stroke-miterlimit="8" fill="#FFFFFF"/><path d="M803.5 469.5 803.5 500.542" stroke="#000000" stroke-width="6.875" stroke-miterlimit="8" fill="none" fill-rule="evenodd"/><path d="M829.5 469.5 829.5 500.542" stroke="#000000" stroke-width="6.875" stroke-miterlimit="8" fill="none" fill-rule="evenodd"/><path d="M0 0 26.3022 0.000360892" stroke="#000000" stroke-width="6.875" stroke-miterlimit="8" fill="none" fill-rule="evenodd" transform="matrix(-1 0 0 1 828.802 487.5)"/><path d="M816.5 504.5 816.5 524.314" stroke="#000000" stroke-width="6.875" stroke-miterlimit="8" fill="none" fill-rule="evenodd"/><path d="M854.5 1424.5 831 1466.5 807.5 1424.5Z" stroke="#000000" stroke-width="4.58333" stroke-miterlimit="8" fill-rule="evenodd"/><path d="M807.5 1510.5 831 1469.5 854.5 1510.5Z" stroke="#000000" stroke-width="4.58333" stroke-miterlimit="8" fill-rule="evenodd"/><path d="M830 1451.5C839.113 1451.5 846.5 1458.89 846.5 1468 846.5 1477.11 839.113 1484.5 830 1484.5 820.888 1484.5 813.5 1477.11 813.5 1468 813.5 1458.89 820.888 1451.5 830 1451.5Z" stroke="#000000" stroke-width="4.58333" stroke-miterlimit="8" fill-rule="evenodd"/><rect x="868.5" y="1436.5" width="33" height="61.9999" stroke="#000000" stroke-width="4.58333" stroke-miterlimit="8" fill="#FFFFFF"/><path d="M901.542 1454.5 870.5 1454.5" stroke="#000000" stroke-width="6.875" stroke-miterlimit="8" fill="none" fill-rule="evenodd"/><path d="M901.542 1481.5 870.5 1481.5" stroke="#000000" stroke-width="6.875" stroke-miterlimit="8" fill="none" fill-rule="evenodd"/><path d="M0 0 26.3022 0.000360892" stroke="#000000" stroke-width="6.875" stroke-miterlimit="8" fill="none" fill-rule="evenodd" transform="matrix(-6.12323e-17 -1 -1 6.12323e-17 883.5 1480.8)"/><path d="M866.314 1468.5 846.5 1468.5" stroke="#000000" stroke-width="6.875" stroke-miterlimit="8" fill="none" fill-rule="evenodd"/><path d="M0 0 38.1431 0.000360892" stroke="#FF0000" stroke-width="4.58333" stroke-miterlimit="8" fill="none" fill-rule="evenodd" transform="matrix(-1 0 0 1 831.643 1128.5)"/><path d="M0 0 0.000360892 205.459" stroke="#FF0000" stroke-width="4.58333" stroke-miterlimit="8" fill="none" fill-rule="evenodd" transform="matrix(1 0 0 -1 1172.5 1981.96)"/><path d="M0 0 1.6897 150.613" stroke="#FF0000" stroke-width="4.58333" stroke-miterlimit="8" fill="none" fill-rule="evenodd" transform="matrix(1 0 0 -1 1047.5 1927.11)"/><path d="M0 0 70.3538 0.000360892" stroke="#FF0000" stroke-width="4.58333" stroke-miterlimit="8" fill="none" fill-rule="evenodd" transform="matrix(-1 0 0 1 1263.85 2147.5)"/><path d="M1194.5 2145.5 1194.5 2222.46" stroke="#FF0000" stroke-width="4.58333" stroke-miterlimit="8" fill="none" fill-rule="evenodd"/><path d="M0 0 115.029 0.000360892" stroke="#FF0000" stroke-width="4.58333" stroke-miterlimit="8" fill="none" fill-rule="evenodd" transform="matrix(-1 0 0 1 1065.53 2248.5)"/><path d="M652 2392.83C652 2358.13 680.131 2330 714.833 2330L977.167 2330C1011.87 2330 1040 2358.13 1040 2392.83L1040 2644.16C1040 2678.86 1011.87 2706.99 977.167 2706.99L714.833 2706.99C680.131 2706.99 652 2678.86 652 2644.16Z" fill="#000000" fill-rule="evenodd" fill-opacity="0.501961"/><text fill="#FFFFFF" font-family="Times New Roman,Times New Roman_MSFontService,sans-serif" font-weight="400" font-size="37" transform="matrix(1 0 0 1 722.058 2641)">22 </text><text fill="#FFFFFF" font-family="Times New Roman,Times New Roman_MSFontService,sans-serif" font-weight="400" font-size="37" transform="translate(767.892 2641)">°</text><text fill="#FFFFFF" font-family="Times New Roman,Times New Roman_MSFontService,sans-serif" font-weight="400" font-size="37" transform="matrix(1 0 0 1 782.787 2641)">C water bath</text><path d="M867 2350.17C867 2339.58 875.581 2331 886.167 2331L962.833 2331C973.418 2331 982 2339.58 982 2350.17L982 2560.83C982 2571.42 973.418 2580 962.833 2580L886.167 2580C875.581 2580 867 2571.42 867 2560.83Z" fill="#000000" fill-rule="evenodd" fill-opacity="0.501961"/><text fill="#FFFFFF" font-family="Times New Roman,Times New Roman_MSFontService,sans-serif" font-weight="400" font-size="37" transform="matrix(6.12323e-17 -1 1 6.12323e-17 937.888 2516)">Acetone</text><path d="M707 2350.17C707 2339.58 715.582 2331 726.167 2331L802.833 2331C813.419 2331 822 2339.58 822 2350.17L822 2560.83C822 2571.42 813.419 2580 802.833 2580L726.167 2580C715.582 2580 707 2571.42 707 2560.83Z" fill="#000000" fill-rule="evenodd" fill-opacity="0.501961"/><text fill="#FFFFFF" font-family="Times New Roman,Times New Roman_MSFontService,sans-serif" font-weight="400" font-size="37" transform="matrix(6.12323e-17 -1 1 6.12323e-17 741.903 2501)">Vapor </text><text fill="#FFFFFF" font-family="Times New Roman,Times New Roman_MSFontService,sans-serif" font-weight="400" font-size="37" transform="matrix(6.12323e-17 -1 1 6.12323e-17 785.903 2519)">collector</text><path d="M955.278 2551.08 952.5 2247.5" stroke="#FF0000" stroke-width="4.58333" stroke-miterlimit="8" fill="none" fill-rule="evenodd"/><path d="M896.41 2358.96 895.5 2247.5" stroke="#FF0000" stroke-width="4.58333" stroke-miterlimit="8" fill="none" fill-rule="evenodd"/><path d="M737.509 2359.04 736.5 2289.5" stroke="#FF0000" stroke-width="4.58333" stroke-miterlimit="8" fill="none" fill-rule="evenodd"/><path d="M804.278 2551.08 801.5 2247.5" stroke="#FF0000" stroke-width="4.58333" stroke-miterlimit="8" fill="none" fill-rule="evenodd"/><path d="M0 0 94.102 1.27323" stroke="#FF0000" stroke-width="4.58333" stroke-miterlimit="8" fill="none" fill-rule="evenodd" transform="matrix(-1 0 0 1 895.602 2247.5)"/><path d="M0 0 305.383 0.225197" stroke="#FF0000" stroke-width="4.58333" stroke-miterlimit="8" fill="none" fill-rule="evenodd" transform="matrix(-1 0 0 1 736.883 2290.5)"/><path d="M431.5 2246.5 431.847 2288.73" stroke="#FF0000" stroke-width="4.58333" stroke-miterlimit="8" fill="none" fill-rule="evenodd"/></g></svg>