<svg width="1614" height="1758" xmlns="http://www.w3.org/2000/svg" xmlns:xlink="http://www.w3.org/1999/xlink" xml:space="preserve" overflow="hidden"><defs><clipPath id="clip0"><rect x="2492" y="98" width="1614" height="1758"/></clipPath></defs><g clip-path="url(#clip0)" transform="translate(-2492 -98)"><path d="M2634.62 1674.95C2552.54 1568.63 2716.71 1462.3 2634.62 1355.98 2552.54 1249.65 2716.71 1143.33 2634.62 1037L2782.38 1052.05C2864.46 1158.37 2700.29 1264.7 2782.38 1371.02 2864.46 1477.35 2700.29 1583.67 2782.38 1690Z" fill="#4472C4" fill-rule="evenodd" fill-opacity="0.2"/><path d="M2562.25 1690C2388.08 1594.29 2736.42 1498.58 2562.25 1402.87 2388.08 1307.16 2736.42 1211.46 2562.25 1115.75L2875.75 1113C3049.92 1208.71 2701.58 1304.42 2875.75 1400.13 3049.92 1495.84 2701.58 1591.54 2875.75 1687.25Z" fill="#4472C4" fill-rule="evenodd" fill-opacity="0.2"/><path d="M2713.51 395.5C3068.91 395.661 3356.78 559.208 3356.5 760.792 3356.22 962.134 3068.55 1125.32 2713.58 1125.5L2713 760.499Z" stroke="#2F528F" stroke-width="4.58333" stroke-miterlimit="8" fill="#B4C7E7" fill-rule="evenodd"/><path d="M3.4375-8.177e-07 3.43786 1494.22-3.43714 1494.22-3.4375 8.177e-07ZM13.7504 1489.64 0.000360892 1517.14-13.7496 1489.64Z" transform="matrix(1 0 0 -1 2712.5 1691.64)"/><path d="M2712.5 1688.06 3555.65 1688.06 3555.65 1694.94 2712.5 1694.94ZM3551.07 1677.75 3578.57 1691.5 3551.07 1705.25Z"/><text font-family="Times New Roman,Times New Roman_MSFontService,sans-serif" font-style="italic" font-weight="400" font-size="83" transform="matrix(1 0 0 1 3566.66 1786)">r</text><path d="M3190.4 649.5C3229.73 649.5 3294.5 702.614 3294.5 742.689 3294.5 760.314 3294.22 729.816 3294.22 747.44 3294.22 787.516 3229.73 847.5 3190.4 847.5L3190.4 847.499C3151.07 847.499 3127.62 828.765 3118.34 774.937L3117.5 724.643C3118.34 664.806 3151.07 649.5 3190.4 649.5L3190.4 649.5Z" stroke="#2F528F" stroke-width="4.58333" stroke-miterlimit="8" fill="#4472C4" fill-rule="evenodd"/><text font-family="Times New Roman,Times New Roman_MSFontService,sans-serif" font-style="italic" font-weight="400" font-size="83" transform="matrix(1 0 0 1 2542.48 759)">z<tspan font-size="55" x="32.0833" y="20">c</tspan></text><path d="M1.72018e-06-2.29167 480.789-2.29131 480.789 2.29203-1.72018e-06 2.29167ZM-6.88073e-06 9.16667C-5.06262 9.16666-9.16667 5.0626-9.16667-6.88073e-06-9.16666-5.06262-5.0626-9.16667 6.88073e-06-9.16667 5.06262-9.16666 9.16667-5.0626 9.16667 6.88073e-06 9.16666 5.06262 5.0626 9.16667-6.88073e-06 9.16667ZM480.789-9.16631C485.851-9.1663 489.955-5.06224 489.955 0.000367773 489.955 5.06298 485.851 9.16703 480.789 9.16703 475.726 9.16702 471.622 5.06296 471.622 0.000354012 471.622-5.06226 475.726-9.16631 480.789-9.16631Z" transform="matrix(-1 0 0 1 3193.29 748.5)"/><path d="M2.29167-8.7762e-07 2.29203 942.373-2.29131 942.373-2.29167 8.7762e-07ZM-9.16667 3.51048e-06C-9.16667-5.06261-5.06261-9.16666-3.51048e-06-9.16667 5.06261-9.16667 9.16666-5.06261 9.16667-3.51048e-06 9.16667 5.06261 5.06261 9.16666 3.51048e-06 9.16667-5.06261 9.16667-9.16666 5.06261-9.16667 3.51048e-06ZM9.16703 942.373C9.16703 947.435 5.06297 951.539 0.000364403 951.539-5.06225 951.539-9.1663 947.435-9.16631 942.373-9.16631 937.31-5.06225 933.206 0.000357382 933.206 5.06297 933.206 9.16703 937.31 9.16703 942.373Z" transform="matrix(1 0 0 -1 3192.5 1690.87)"/><text font-family="Times New Roman,Times New Roman_MSFontService,sans-serif" font-style="italic" font-weight="400" font-size="83" transform="matrix(1 0 0 1 3166.69 1786)">R</text><path d="M1.46415-1.76296 62.3561 48.8082 59.4278 52.3341-1.46415 1.76296ZM-5.85658 7.05183C-9.75119 3.81733-10.2863-1.96196-7.05183-5.85658-3.81733-9.75119 1.96196-10.2863 5.85658-7.05183 9.75119-3.81733 10.2863 1.96196 7.05183 5.85658 3.81733 9.75119-1.96196 10.2863-5.85658 7.05183ZM63.2226 40.591 71.4697 59.356 51.5095 54.6946Z" transform="matrix(1 0 0 -1 3192.5 746.856)"/><path d="M0 0 167.578 135.781" stroke="#000000" stroke-width="4.58333" stroke-linecap="round" stroke-miterlimit="8" fill="none" fill-rule="evenodd" transform="matrix(1 0 0 -1 3283.5 674.281)"/><path d="M0 0 71.6148 0.860007" stroke="#000000" stroke-width="4.58333" stroke-linecap="round" stroke-miterlimit="8" fill="none" fill-rule="evenodd" transform="matrix(1 0 0 -1 3451.5 539.36)"/><text font-family="Times New Roman,Times New Roman_MSFontService,sans-serif" font-style="italic" font-weight="400" font-size="83" transform="matrix(1 0 0 1 2748.01 204)">z<tspan font-size="83" x="789.246" y="353">a</tspan></text><path d="M3240.57 825.525 3375.7 1112.93C3376.24 1114.07 3375.74 1115.44 3374.6 1115.98 3373.45 1116.52 3372.09 1116.02 3371.55 1114.88L3236.43 827.475C3235.89 826.33 3236.38 824.964 3237.52 824.426 3238.67 823.888 3240.04 824.379 3240.57 825.525ZM3230.2 830.4C3228.05 825.819 3230.02 820.358 3234.6 818.204 3239.18 816.05 3244.64 818.018 3246.8 822.6 3248.95 827.181 3246.98 832.641 3242.4 834.795 3237.82 836.949 3232.36 834.982 3230.2 830.4Z"/><path d="M0 0 71.6148 0.860007" stroke="#000000" stroke-width="4.58333" stroke-linecap="round" stroke-miterlimit="8" fill="none" fill-rule="evenodd" transform="matrix(1 0 0 -1 3372.5 1114.36)"/><text font-family="Times New Roman,Times New Roman_MSFontService,sans-serif" font-weight="400" font-size="83" transform="matrix(1 0 0 1 3441.19 1133)">Vortex core</text><path d="M3213.7 988.852 3309.86 1314.96C3310.22 1316.17 3309.53 1317.45 3308.31 1317.81 3307.1 1318.17 3305.82 1317.47 3305.47 1316.26L3209.3 990.148C3208.94 988.934 3209.64 987.66 3210.85 987.302 3212.07 986.944 3213.34 987.638 3213.7 988.852ZM3202.71 992.093C3201.28 987.237 3204.05 982.14 3208.91 980.708 3213.76 979.276 3218.86 982.052 3220.29 986.907 3221.72 991.763 3218.95 996.861 3214.09 998.293 3209.24 999.724 3204.14 996.949 3202.71 992.093Z"/><path d="M0 0 71.6148 0.860007" stroke="#000000" stroke-width="4.58333" stroke-linecap="round" stroke-miterlimit="8" fill="none" fill-rule="evenodd" transform="matrix(1 0 0 -1 3307.5 1316.36)"/><text font-family="Times New Roman,Times New Roman_MSFontService,sans-serif" font-weight="400" font-size="83" transform="matrix(1 0 0 1 3386.98 1342)">Entrainment bubble</text><rect x="2509" y="921" width="198" height="769" fill="#FFFFFF"/><path d="M2756.13 1254.89 2863.69 1364.17C2864.57 1365.07 2864.56 1366.52 2863.66 1367.41 2862.76 1368.3 2861.31 1368.28 2860.42 1367.38L2752.87 1258.11C2751.98 1257.21 2751.99 1255.75 2752.89 1254.87 2753.79 1253.98 2755.25 1253.99 2756.13 1254.89ZM2747.97 1262.93C2744.42 1259.32 2744.46 1253.52 2748.07 1249.97 2751.68 1246.42 2757.48 1246.46 2761.03 1250.07 2764.58 1253.68 2764.54 1259.48 2760.93 1263.03 2757.32 1266.58 2751.52 1266.54 2747.97 1262.93Z"/><path d="M0 0 71.6148 0.860007" stroke="#000000" stroke-width="4.58333" stroke-linecap="round" stroke-miterlimit="8" fill="none" fill-rule="evenodd" transform="matrix(1 0 0 -1 2861.5 1367.36)"/><text font-family="Times New Roman,Times New Roman_MSFontService,sans-serif" font-weight="400" font-size="83" transform="matrix(1 0 0 1 2941.04 1392)">Wake</text><path d="M2.29167-8.7762e-07 2.29167 4.58333-2.29166 4.58333-2.29167 8.7762e-07ZM2.29167 9.16667 2.29167 13.75-2.29166 13.75-2.29166 9.16667ZM2.29167 18.3333 2.29168 22.9167-2.29166 22.9167-2.29166 18.3333ZM2.29168 27.5 2.29168 32.0833-2.29165 32.0833-2.29166 27.5ZM2.29168 36.6667 2.29168 41.25-2.29165 41.25-2.29165 36.6667ZM2.29168 45.8333 2.29169 50.4167-2.29165 50.4167-2.29165 45.8333ZM2.29169 55 2.29169 59.5833-2.29164 59.5833-2.29165 55ZM2.29169 64.1667 2.29169 68.75-2.29164 68.75-2.29164 64.1667ZM2.29169 73.3333 2.2917 77.9167-2.29164 77.9167-2.29164 73.3333ZM2.2917 82.5 2.2917 87.0833-2.29163 87.0833-2.29164 82.5ZM2.2917 91.6667 2.2917 96.25-2.29163 96.25-2.29163 91.6667ZM2.29171 100.833 2.29171 105.417-2.29163 105.417-2.29163 100.833ZM2.29171 110 2.29171 114.583-2.29162 114.583-2.29162 110ZM2.29171 119.167 2.29171 123.75-2.29162 123.75-2.29162 119.167ZM2.29172 128.333 2.29172 132.917-2.29162 132.917-2.29162 128.333ZM2.29172 137.5 2.29172 142.083-2.29161 142.083-2.29161 137.5ZM2.29172 146.667 2.29172 151.25-2.29161 151.25-2.29161 146.667ZM2.29173 155.833 2.29173 160.417-2.29161 160.417-2.29161 155.833ZM2.29173 165 2.29173 169.583-2.2916 169.583-2.2916 165ZM2.29173 174.167 2.29173 178.75-2.2916 178.75-2.2916 174.167ZM2.29174 183.333 2.29174 187.917-2.29159 187.917-2.2916 183.333ZM2.29174 192.5 2.29174 197.083-2.29159 197.083-2.29159 192.5ZM2.29174 201.667 2.29175 206.25-2.29159 206.25-2.29159 201.667ZM2.29175 210.833 2.29175 215.417-2.29158 215.417-2.29159 210.833ZM2.29175 220 2.29175 224.583-2.29158 224.583-2.29158 220ZM2.29175 229.167 2.29176 233.75-2.29158 233.75-2.29158 229.167ZM2.29176 238.333 2.29176 242.917-2.29157 242.917-2.29158 238.333ZM2.29176 247.5 2.29176 252.083-2.29157 252.083-2.29157 247.5ZM2.29176 256.667 2.29177 261.25-2.29157 261.25-2.29157 256.667ZM2.29177 265.833 2.29177 270.417-2.29156 270.417-2.29156 265.833ZM2.29177 275 2.29177 279.583-2.29156 279.583-2.29156 275ZM2.29178 284.167 2.29178 288.75-2.29156 288.75-2.29156 284.167ZM2.29178 293.333 2.29178 297.917-2.29155 297.917-2.29155 293.333ZM2.29178 302.5 2.29178 307.083-2.29155 307.083-2.29155 302.5ZM2.29179 311.667 2.29179 316.25-2.29155 316.25-2.29155 311.667ZM2.29179 320.833 2.29179 325.417-2.29154 325.417-2.29154 320.833ZM2.29179 330 2.29179 334.583-2.29154 334.583-2.29154 330ZM2.2918 339.167 2.2918 343.75-2.29154 343.75-2.29154 339.167ZM2.2918 348.333 2.2918 352.917-2.29153 352.917-2.29153 348.333ZM2.2918 357.5 2.29181 362.083-2.29153 362.083-2.29153 357.5ZM2.29181 366.667 2.29181 371.25-2.29152 371.25-2.29153 366.667ZM2.29181 375.833 2.29181 380.417-2.29152 380.417-2.29152 375.833ZM2.29181 385 2.29182 389.583-2.29152 389.583-2.29152 385ZM2.29182 394.167 2.29182 398.75-2.29151 398.75-2.29152 394.167ZM2.29182 403.333 2.29182 407.917-2.29151 407.917-2.29151 403.333ZM2.29182 412.5 2.29183 417.083-2.29151 417.083-2.29151 412.5ZM2.29183 421.667 2.29183 426.25-2.2915 426.25-2.29151 421.667ZM2.29183 430.833 2.29183 435.417-2.2915 435.417-2.2915 430.833ZM2.29184 440 2.29184 444.583-2.2915 444.583-2.2915 440ZM2.29184 449.167 2.29184 453.75-2.29149 453.75-2.29149 449.167ZM2.29184 458.333 2.29184 462.917-2.29149 462.917-2.29149 458.333ZM2.29185 467.5 2.29185 472.083-2.29149 472.083-2.29149 467.5ZM2.29185 476.667 2.29185 481.25-2.29148 481.25-2.29148 476.667ZM2.29185 485.833 2.29185 490.417-2.29148 490.417-2.29148 485.833ZM2.29186 495 2.29186 499.583-2.29148 499.583-2.29148 495ZM2.29186 504.167 2.29186 508.75-2.29147 508.75-2.29147 504.167ZM2.29186 513.333 2.29187 517.917-2.29147 517.917-2.29147 513.333ZM2.29187 522.5 2.29187 527.083-2.29146 527.083-2.29147 522.5ZM2.29187 531.667 2.29187 536.25-2.29146 536.25-2.29146 531.667ZM2.29187 540.833 2.29188 545.417-2.29146 545.417-2.29146 540.833ZM2.29188 550 2.29188 554.583-2.29145 554.583-2.29146 550ZM2.29188 559.167 2.29188 563.75-2.29145 563.75-2.29145 559.167ZM2.29188 568.333 2.29189 572.917-2.29145 572.917-2.29145 568.333ZM2.29189 577.5 2.29189 582.083-2.29144 582.083-2.29145 577.5ZM2.29189 586.667 2.29189 591.25-2.29144 591.25-2.29144 586.667ZM2.29189 595.833 2.2919 600.417-2.29144 600.417-2.29144 595.833ZM2.2919 605 2.2919 609.583-2.29143 609.583-2.29144 605ZM2.2919 614.167 2.2919 618.75-2.29143 618.75-2.29143 614.167ZM2.29191 623.333 2.29191 627.917-2.29143 627.917-2.29143 623.333ZM2.29191 632.5 2.29191 637.083-2.29142 637.083-2.29142 632.5ZM2.29191 641.667 2.29191 646.25-2.29142 646.25-2.29142 641.667ZM2.29192 650.833 2.29192 655.417-2.29142 655.417-2.29142 650.833ZM2.29192 660 2.29192 664.583-2.29141 664.583-2.29141 660ZM2.29192 669.167 2.29192 673.75-2.29141 673.75-2.29141 669.167ZM2.29193 678.333 2.29193 682.917-2.29141 682.917-2.29141 678.333ZM2.29193 687.5 2.29193 692.083-2.2914 692.083-2.2914 687.5ZM2.29193 696.667 2.29194 701.25-2.2914 701.25-2.2914 696.667ZM2.29194 705.833 2.29194 710.417-2.29139 710.417-2.2914 705.833ZM2.29194 715 2.29194 719.583-2.29139 719.583-2.29139 715ZM2.29194 724.167 2.29195 728.75-2.29139 728.75-2.29139 724.167ZM2.29195 733.333 2.29195 737.917-2.29138 737.917-2.29139 733.333ZM2.29195 742.5 2.29195 747.083-2.29138 747.083-2.29138 742.5ZM2.29195 751.667 2.29196 756.25-2.29138 756.25-2.29138 751.667ZM2.29196 760.833 2.29196 765.417-2.29137 765.417-2.29138 760.833ZM2.29196 770 2.29196 774.583-2.29137 774.583-2.29137 770ZM2.29197 779.167 2.29197 783.75-2.29137 783.75-2.29137 779.167ZM2.29197 788.333 2.29197 792.917-2.29136 792.917-2.29136 788.333ZM2.29197 797.5 2.29197 802.083-2.29136 802.083-2.29136 797.5ZM2.29198 806.667 2.29198 811.25-2.29136 811.25-2.29136 806.667ZM2.29198 815.833 2.29198 820.417-2.29135 820.417-2.29135 815.833ZM2.29198 825 2.29198 829.583-2.29135 829.583-2.29135 825ZM2.29199 834.167 2.29199 838.75-2.29135 838.75-2.29135 834.167ZM2.29199 843.333 2.29199 847.917-2.29134 847.917-2.29134 843.333ZM2.29199 852.5 2.292 857.083-2.29134 857.083-2.29134 852.5ZM2.292 861.667 2.292 866.25-2.29133 866.25-2.29134 861.667ZM2.292 870.833 2.292 875.417-2.29133 875.417-2.29133 870.833ZM2.292 880 2.29201 884.583-2.29133 884.583-2.29133 880ZM2.29201 889.167 2.29201 893.75-2.29132 893.75-2.29133 889.167ZM2.29201 898.333 2.29201 902.917-2.29132 902.917-2.29132 898.333ZM2.29201 907.5 2.29202 912.083-2.29132 912.083-2.29132 907.5ZM2.29202 916.667 2.29202 921.25-2.29131 921.25-2.29132 916.667ZM2.29202 925.833 2.29202 930.417-2.29131 930.417-2.29131 925.833ZM2.29202 935 2.29203 939.583-2.29131 939.583-2.29131 935ZM-9.16667 3.51048e-06C-9.16667-5.06261-5.06261-9.16666-3.51048e-06-9.16667 5.06261-9.16667 9.16666-5.06261 9.16667-3.51048e-06 9.16667 5.06261 5.06261 9.16666 3.51048e-06 9.16667-5.06261 9.16667-9.16666 5.06261-9.16667 3.51048e-06ZM9.16703 942.373C9.16703 947.435 5.06297 951.539 0.000364403 951.539-5.06225 951.539-9.1663 947.435-9.16631 942.373-9.16631 937.31-5.06225 933.206 0.000357382 933.206 5.06297 933.206 9.16703 937.31 9.16703 942.373Z" transform="matrix(1 0 0 -1 3356.5 1688.87)"/><text font-family="Times New Roman,Times New Roman_MSFontService,sans-serif" font-style="italic" font-weight="400" font-size="83" transform="matrix(1 0 0 1 3297.02 1787)">D/2</text><path d="M0 0 90.4894 0.000360892" stroke="#000000" stroke-width="4.58333" stroke-miterlimit="8" fill="none" fill-rule="evenodd" transform="matrix(-1 0 0 1 2700.99 395.5)"/><path d="M0 0 90.4894 0.000360892" stroke="#000000" stroke-width="4.58333" stroke-miterlimit="8" fill="none" fill-rule="evenodd" transform="matrix(-1 0 0 1 2698.99 747.5)"/><path d="M2.29169 22.9166 2.292 326.908-2.29133 326.908-2.29164 22.9166ZM-13.75 27.5 0 0 13.75 27.5ZM13.7503 322.324 0.000360892 349.824-13.7497 322.324Z" transform="matrix(1 0 0 -1 2652.5 746.324)"/><rect x="2510" y="491" width="198" height="133" fill="#FFFFFF"/><text font-family="Times New Roman,Times New Roman_MSFontService,sans-serif" font-style="italic" font-weight="400" font-size="83" transform="matrix(1 0 0 1 2543.06 587)">H/2</text></g></svg>