<svg width="3083" height="2086" xmlns="http://www.w3.org/2000/svg" xmlns:xlink="http://www.w3.org/1999/xlink" overflow="hidden"><defs><filter id="fx0" x="-10%" y="-10%" width="120%" height="120%" filterUnits="userSpaceOnUse" primitiveUnits="userSpaceOnUse"><feComponentTransfer color-interpolation-filters="sRGB"><feFuncR type="discrete" tableValues="0 0"/><feFuncG type="discrete" tableValues="0 0"/><feFuncB type="discrete" tableValues="0 0"/><feFuncA type="linear" slope="0.4" intercept="0"/></feComponentTransfer><feGaussianBlur stdDeviation="1.78363 1.78363"/></filter><filter id="fx1" x="-10%" y="-10%" width="120%" height="120%" filterUnits="userSpaceOnUse" primitiveUnits="userSpaceOnUse"><feComponentTransfer color-interpolation-filters="sRGB"><feFuncR type="discrete" tableValues="0 0"/><feFuncG type="discrete" tableValues="0 0"/><feFuncB type="discrete" tableValues="0 0"/><feFuncA type="linear" slope="0.4" intercept="0"/></feComponentTransfer><feGaussianBlur stdDeviation="1.78363 1.78363"/></filter><filter id="fx2" x="-10%" y="-10%" width="120%" height="120%" filterUnits="userSpaceOnUse" primitiveUnits="userSpaceOnUse"><feComponentTransfer color-interpolation-filters="sRGB"><feFuncR type="discrete" tableValues="0 0"/><feFuncG type="discrete" tableValues="0 0"/><feFuncB type="discrete" tableValues="0 0"/><feFuncA type="linear" slope="0.4" intercept="0"/></feComponentTransfer><feGaussianBlur stdDeviation="1.78363 1.78363"/></filter><filter id="fx3" x="-10%" y="-10%" width="120%" height="120%" filterUnits="userSpaceOnUse" primitiveUnits="userSpaceOnUse"><feComponentTransfer color-interpolation-filters="sRGB"><feFuncR type="discrete" tableValues="0 0"/><feFuncG type="discrete" tableValues="0 0"/><feFuncB type="discrete" tableValues="0 0"/><feFuncA type="linear" slope="0.4" intercept="0"/></feComponentTransfer><feGaussianBlur stdDeviation="1.78363 1.78363"/></filter><filter id="fx4" x="-10%" y="-10%" width="120%" height="120%" filterUnits="userSpaceOnUse" primitiveUnits="userSpaceOnUse"><feComponentTransfer color-interpolation-filters="sRGB"><feFuncR type="discrete" tableValues="0 0"/><feFuncG type="discrete" tableValues="0 0"/><feFuncB type="discrete" tableValues="0 0"/><feFuncA type="linear" slope="0.4" intercept="0"/></feComponentTransfer><feGaussianBlur stdDeviation="1.78363 1.78363"/></filter><filter id="fx5" x="-10%" y="-10%" width="120%" height="120%" filterUnits="userSpaceOnUse" primitiveUnits="userSpaceOnUse"><feComponentTransfer color-interpolation-filters="sRGB"><feFuncR type="discrete" tableValues="0 0"/><feFuncG type="discrete" tableValues="0 0"/><feFuncB type="discrete" tableValues="0 0"/><feFuncA type="linear" slope="0.4" intercept="0"/></feComponentTransfer><feGaussianBlur stdDeviation="1.78363 1.78363"/></filter><filter id="fx6" x="-10%" y="-10%" width="120%" height="120%" filterUnits="userSpaceOnUse" primitiveUnits="userSpaceOnUse"><feComponentTransfer color-interpolation-filters="sRGB"><feFuncR type="discrete" tableValues="0 0"/><feFuncG type="discrete" tableValues="0 0"/><feFuncB type="discrete" tableValues="0 0"/><feFuncA type="linear" slope="0.4" intercept="0"/></feComponentTransfer><feGaussianBlur stdDeviation="1.78363 1.78363"/></filter><filter id="fx7" x="-10%" y="-10%" width="120%" height="120%" filterUnits="userSpaceOnUse" primitiveUnits="userSpaceOnUse"><feComponentTransfer color-interpolation-filters="sRGB"><feFuncR type="discrete" tableValues="0 0"/><feFuncG type="discrete" tableValues="0 0"/><feFuncB type="discrete" tableValues="0 0"/><feFuncA type="linear" slope="0.4" intercept="0"/></feComponentTransfer><feGaussianBlur stdDeviation="1.78363 1.78363"/></filter><filter id="fx8" x="-10%" y="-10%" width="120%" height="120%" filterUnits="userSpaceOnUse" primitiveUnits="userSpaceOnUse"><feComponentTransfer color-interpolation-filters="sRGB"><feFuncR type="discrete" tableValues="0 0"/><feFuncG type="discrete" tableValues="0 0"/><feFuncB type="discrete" tableValues="0 0"/><feFuncA type="linear" slope="0.4" intercept="0"/></feComponentTransfer><feGaussianBlur stdDeviation="1.78363 1.78363"/></filter><filter id="fx9" x="-10%" y="-10%" width="120%" height="120%" filterUnits="userSpaceOnUse" primitiveUnits="userSpaceOnUse"><feComponentTransfer color-interpolation-filters="sRGB"><feFuncR type="discrete" tableValues="0 0"/><feFuncG type="discrete" tableValues="0 0"/><feFuncB type="discrete" tableValues="0 0"/><feFuncA type="linear" slope="0.4" intercept="0"/></feComponentTransfer><feGaussianBlur stdDeviation="1.78363 1.78363"/></filter><clipPath id="clip10"><rect x="310" y="356" width="3083" height="2086"/></clipPath><linearGradient x1="2993.63" y1="848.857" x2="2946.94" y2="895.509" gradientUnits="userSpaceOnUse" spreadMethod="reflect" id="fill11"><stop offset="0" stop-color="#9B9B9B"/><stop offset="0.5" stop-color="#8E8E8E"/><stop offset="1" stop-color="#797979"/></linearGradient><linearGradient x1="2971.5" y1="795" x2="2971.5" y2="662" gradientUnits="userSpaceOnUse" spreadMethod="reflect" id="fill12"><stop offset="0" stop-color="#454545"/><stop offset="0.5"/><stop offset="1"/></linearGradient><linearGradient x1="2971.5" y1="795" x2="2971.5" y2="662" gradientUnits="userSpaceOnUse" spreadMethod="reflect" id="fill13"><stop offset="0" stop-color="#8F8F8F"/><stop offset="0.5" stop-color="#666666"/><stop offset="1" stop-color="#666666"/></linearGradient><clipPath id="clip14"><rect x="50" y="46" width="240" height="91"/></clipPath><clipPath id="clip15"><rect x="0" y="0" width="338" height="187"/></clipPath><clipPath id="clip16"><rect x="48" y="48" width="308" height="72"/></clipPath><clipPath id="clip17"><rect x="0" y="0" width="427" height="187"/></clipPath><clipPath id="clip18"><rect x="52" y="46" width="39" height="91"/></clipPath><clipPath id="clip19"><rect x="0" y="0" width="141" height="187"/></clipPath><clipPath id="clip20"><rect x="46" y="46" width="52" height="74"/></clipPath><clipPath id="clip21"><rect x="0" y="0" width="148" height="187"/></clipPath><clipPath id="clip22"><rect x="56" y="69" width="60" height="31"/></clipPath><clipPath id="clip23"><rect x="0" y="0" width="168" height="187"/></clipPath><clipPath id="clip24"><rect x="58" y="48" width="314" height="85"/></clipPath><clipPath id="clip25"><rect x="0" y="0" width="445" height="187"/></clipPath><clipPath id="clip26"><rect x="48" y="50" width="70" height="70"/></clipPath><clipPath id="clip27"><rect x="0" y="0" width="164" height="187"/></clipPath><clipPath id="clip28"><rect x="50" y="48" width="203" height="72"/></clipPath><clipPath id="clip29"><rect x="0" y="0" width="325" height="187"/></clipPath><clipPath id="clip30"><rect x="50" y="50" width="112" height="70"/></clipPath><clipPath id="clip31"><rect x="0" y="0" width="209" height="187"/></clipPath><clipPath id="clip32"><rect x="50" y="46" width="39" height="91"/></clipPath><clipPath id="clip33"><rect x="0" y="0" width="141" height="187"/></clipPath><linearGradient x1="360.292" y1="642.223" x2="341.579" y2="623.908" gradientUnits="userSpaceOnUse" spreadMethod="reflect" id="fill34"><stop offset="0" stop-color="#F7BDA4"/><stop offset="0.5" stop-color="#F5B195"/><stop offset="1" stop-color="#F8A581"/></linearGradient><linearGradient x1="360.292" y1="642.223" x2="341.579" y2="623.908" gradientUnits="userSpaceOnUse" spreadMethod="reflect" id="fill35"><stop offset="0" stop-color="#FAD7C8"/><stop offset="0.5" stop-color="#F9D0BF"/><stop offset="1" stop-color="#FBC9B3"/></linearGradient><linearGradient x1="356.962" y1="1583.95" x2="336.712" y2="1600.55" gradientUnits="userSpaceOnUse" spreadMethod="reflect" id="fill36"><stop offset="0" stop-color="#F7BDA4"/><stop offset="0.5" stop-color="#F5B195"/><stop offset="1" stop-color="#F8A581"/></linearGradient><linearGradient x1="356.962" y1="1583.95" x2="336.712" y2="1600.55" gradientUnits="userSpaceOnUse" spreadMethod="reflect" id="fill37"><stop offset="0" stop-color="#FAD7C8"/><stop offset="0.5" stop-color="#F9D0BF"/><stop offset="1" stop-color="#FBC9B3"/></linearGradient></defs><g clip-path="url(#clip10)" transform="translate(-310 -356)"><rect x="756.5" y="1559.5" width="396" height="66" stroke="#2F528F" stroke-width="4.58333" stroke-miterlimit="8" fill="#4472C4"/><path d="M1152.5 1488.5 1152.5 1686.5" stroke="#000000" stroke-width="6.875" stroke-miterlimit="8" fill="none" fill-rule="evenodd"/><rect x="1152.5" y="1559.5" width="792" height="66" stroke="#000000" stroke-width="4.58333" stroke-miterlimit="8"/><path d="M2847.77 1832.34C2908.05 1764.01 3012.32 1757.48 3080.66 1817.77 3085.85 1822.35 3090.75 1827.25 3095.33 1832.45Z" stroke="#00B0F0" stroke-width="4.58333" stroke-miterlimit="8" fill="#FFFFFF" fill-rule="evenodd"/><path d="M3098.96 1320.28C3041.09 1390.68 2937.11 1400.83 2866.72 1342.96 2858.23 1335.98 2850.46 1328.17 2843.53 1319.65Z" stroke="#00B0F0" stroke-width="4.58333" stroke-miterlimit="8" fill="#FFFFFF" fill-rule="evenodd"/><path d="M3004.5 2306.5 2991.18 2311.24 2991.18 2301.76ZM2994.83 2283.16 2988.77 2295.93 2982.07 2289.23ZM2971.5 2273.5 2976.24 2286.82 2966.76 2286.82ZM2948.16 2283.16 2960.93 2289.23 2954.23 2295.93ZM2938.5 2306.5 2951.82 2301.76 2951.82 2311.24ZM2948.16 2329.83 2954.23 2317.07 2960.93 2323.77ZM2971.5 2339.5 2966.76 2326.18 2976.24 2326.18ZM2994.83 2329.83 2982.07 2323.77 2988.77 2317.07ZM2955 2306.5C2955 2297.39 2962.39 2290 2971.5 2290 2980.61 2290 2988 2297.39 2988 2306.5 2988 2315.61 2980.61 2323 2971.5 2323 2962.39 2323 2955 2315.61 2955 2306.5Z" stroke="#FFC000" stroke-width="4.58333" stroke-miterlimit="8" fill="#FFFF00" fill-rule="evenodd"/><path d="M2847 1832 2937.73 2306.8" stroke="#FFC000" stroke-width="2.29167" stroke-miterlimit="8" fill="none" fill-rule="evenodd"/><path d="M0 0 90.8258 474.701" stroke="#FFC000" stroke-width="2.29167" stroke-miterlimit="8" fill="none" fill-rule="evenodd" transform="matrix(-1 0 0 1 3094.83 1832)"/><path d="M2843 1319 2847.24 1831.31" stroke="#FFC000" stroke-width="2.29167" stroke-miterlimit="8" fill="none" fill-rule="evenodd"/><path d="M0 0 3.63274 511.786" stroke="#FFC000" stroke-width="2.29167" stroke-miterlimit="8" fill="none" fill-rule="evenodd" transform="matrix(-1 0 0 1 3097.63 1320)"/><path d="M0 0 0.0461942 441.753" stroke="#FFC000" stroke-width="2.29167" stroke-miterlimit="8" fill="none" fill-rule="evenodd" transform="matrix(-1 0 0 1 2971.05 1832)"/><path d="M2971 1380 2971 1768.53" stroke="#FFC000" stroke-width="2.29167" stroke-miterlimit="8" fill="none" fill-rule="evenodd"/><path d="M0 0 127.715 459.415" stroke="#FFC000" stroke-width="2.29167" stroke-miterlimit="8" fill="none" fill-rule="evenodd" transform="matrix(-1 0 0 1 2970.72 860)"/><path d="M2970 860 3097.72 1320.04" stroke="#FFC000" stroke-width="2.29167" stroke-miterlimit="8" fill="none" fill-rule="evenodd"/><path d="M0 0 0.256955 459.729" stroke="#FFC000" stroke-width="2.29167" stroke-miterlimit="8" fill="none" fill-rule="evenodd" transform="matrix(-1 0 0 1 2970.26 860)"/><path d="M2948.22 847.575 2992.36 847.592 3016.95 872.201 2923.61 872.166Z" stroke="#000000" stroke-width="2.29167" stroke-miterlimit="8" fill="url(#fill11)" fill-rule="evenodd"/><path d="M0 0 0.808038 52.5481" stroke="#FFC000" stroke-width="2.29167" stroke-miterlimit="8" fill="none" fill-rule="evenodd" transform="matrix(-1 0 0 1 2970.81 795)"/><path d="M0 0 48.2946 119.297" stroke="#FFC000" stroke-width="2.29167" stroke-miterlimit="8" fill="none" fill-rule="evenodd" transform="matrix(-1 0 0 1 3018.29 728)"/><path d="M2924 728 2970.68 847.297" stroke="#FFC000" stroke-width="2.29167" stroke-miterlimit="8" fill="none" fill-rule="evenodd"/><path d="M3036 676 2904 676C2885.77 676 2871 661.225 2871 643L2871 357 3069 357 3069 643C3069 661.225 3054.23 676 3036 676Z" stroke="#51647E" stroke-width="2.29167" stroke-miterlimit="8" fill="#99A8BD" fill-rule="evenodd"/><path d="M3019 783.125C3019 776.567 2997.73 771.25 2971.5 771.25 2945.27 771.25 2924 776.567 2924 783.125L2924 673.875C2924 667.317 2945.27 662 2971.5 662 2997.73 662 3019 667.317 3019 673.875Z" fill="url(#fill12)" fill-rule="evenodd"/><path d="M3019 783.125C3019 789.683 2997.73 795 2971.5 795 2945.27 795 2924 789.683 2924 783.125 2924 776.567 2945.27 771.25 2971.5 771.25 2997.73 771.25 3019 776.567 3019 783.125Z" fill="url(#fill13)" fill-rule="evenodd"/><path d="M2924 783.125C2924 776.567 2945.27 771.25 2971.5 771.25 2997.73 771.25 3019 776.567 3019 783.125 3019 789.683 2997.73 795 2971.5 795 2945.27 795 2924 789.683 2924 783.125L2924 673.875C2924 667.317 2945.27 662 2971.5 662 2997.73 662 3019 667.317 3019 673.875L3019 783.125" stroke="#000000" stroke-width="2.29167" stroke-miterlimit="8" fill="none" fill-rule="evenodd"/><text font-family="Times New Roman,Times New Roman_MSFontService,sans-serif" font-style="italic" font-weight="400" font-size="83" transform="matrix(1 0 0 1 2518.57 1900)">f <tspan font-style="normal" font-size="83" x="43.5418" y="0">= 50 </tspan><tspan font-style="normal" font-size="83" x="213.698" y="0">cm</tspan><tspan font-size="83" x="18.4448" y="-648">f </tspan><tspan font-style="normal" font-size="83" x="61.9866" y="-648">= 50 </tspan><tspan font-style="normal" font-size="83" x="232.143" y="-648">cm</tspan><tspan font-style="normal" font-size="83" x="-229.553" y="374">1 mm pinhole</tspan><tspan font-style="normal" font-size="83" x="-229.553" y="473">CBT</tspan><tspan font-style="normal" font-size="83" x="-69.1365" y="473">-</tspan><tspan font-style="normal" font-size="83" x="-41.6365" y="473">120</tspan><tspan font-style="normal" font-size="83" x="82.1135" y="473">-</tspan><tspan font-style="normal" font-size="83" x="109.614" y="473">G LED</tspan><tspan font-style="normal" font-size="83" x="-324.098" y="-1403">Phantom Research</tspan><tspan font-style="normal" font-size="83" x="-324.098" y="-1304">v121</tspan><tspan font-style="normal" font-size="83" x="-159.098" y="-1304">1</tspan></text><path d="M993.5 2065C993.5 2081.29 1046.33 2094.5 1111.5 2094.5 1176.67 2094.5 1229.5 2081.29 1229.5 2065L1229.5 2313C1229.5 2329.29 1176.67 2342.5 1111.5 2342.5 1046.33 2342.5 993.5 2329.29 993.5 2313Z" fill="#5B9BD5" fill-rule="evenodd"/><path d="M993.5 2065C993.5 2048.71 1046.33 2035.5 1111.5 2035.5 1176.67 2035.5 1229.5 2048.71 1229.5 2065 1229.5 2081.29 1176.67 2094.5 1111.5 2094.5 1046.33 2094.5 993.5 2081.29 993.5 2065Z" fill="#9DC3E6" fill-rule="evenodd"/><path d="M1229.5 2065C1229.5 2081.29 1176.67 2094.5 1111.5 2094.5 1046.33 2094.5 993.5 2081.29 993.5 2065 993.5 2048.71 1046.33 2035.5 1111.5 2035.5 1176.67 2035.5 1229.5 2048.71 1229.5 2065L1229.5 2313C1229.5 2329.29 1176.67 2342.5 1111.5 2342.5 1046.33 2342.5 993.5 2329.29 993.5 2313L993.5 2065" stroke="#41719C" stroke-width="4.58333" stroke-miterlimit="8" fill="none" fill-rule="evenodd"/><text font-family="Times New Roman,Times New Roman_MSFontService,sans-serif" font-weight="400" font-size="83" transform="matrix(1 0 0 1 1284.34 2285)">Argon, <tspan font-size="83" x="252.083" y="0">30</tspan>-50 <tspan font-size="83" x="465.208" y="0">psig</tspan><tspan font-size="83" x="-600.86" y="-442">Driver </tspan><tspan font-size="83" x="-600.86" y="-343">fill</tspan><tspan font-size="83" x="10.6045" y="-409">Driven </tspan>fill</text><path d="M0 0 0.000360892 198.469" stroke="#000000" stroke-width="4.58333" stroke-miterlimit="8" fill="none" fill-rule="evenodd" transform="matrix(1 0 0 -1 756.5 1538.97)"/><path d="M0 0 0.000360892 123.843" stroke="#000000" stroke-width="4.58333" stroke-miterlimit="8" fill="none" fill-rule="evenodd" transform="matrix(1 0 0 -1 1152.5 1462.34)"/><path d="M0 0 0.000360892 198.469" stroke="#000000" stroke-width="4.58333" stroke-miterlimit="8" fill="none" fill-rule="evenodd" transform="matrix(1 0 0 -1 1944.5 1540.97)"/><path d="M779.417 1403.21 1129.58 1403.21 1129.58 1407.79 779.417 1407.79ZM784 1419.25 756.5 1405.5 784 1391.75ZM1125 1391.75 1152.5 1405.5 1125 1419.25Z"/><rect x="824" y="1338" width="246" height="133" fill="#FFFFFF"/><text font-family="Times New Roman,Times New Roman_MSFontService,sans-serif" font-style="italic" font-weight="400" font-size="83" transform="matrix(1 0 0 1 857.291 1434)">L<tspan font-style="normal" font-size="55" x="45.8334" y="20">driver</tspan></text><path d="M1175.42 1403.21 1921.58 1403.21 1921.58 1407.79 1175.42 1407.79ZM1180 1419.25 1152.5 1405.5 1180 1391.75ZM1917 1391.75 1944.5 1405.5 1917 1419.25Z"/><rect x="1391" y="1340" width="256" height="133" fill="#FFFFFF"/><text font-family="Times New Roman,Times New Roman_MSFontService,sans-serif" font-style="italic" font-weight="400" font-size="83" transform="matrix(1 0 0 1 1424.29 1436)">L<tspan font-style="normal" font-size="55" x="45.8334" y="20">driven</tspan></text><path d="M22.9243-2.20507 1003.58 1.49993 1003.56 6.08323 22.907 2.37823ZM27.4479 13.8538 0 0 27.5518-13.646ZM999.033-9.97565 1026.48 3.87815 998.929 17.5242Z" transform="matrix(1 0 0 -1 1944.5 1492.38)"/><rect x="2314" y="1422" width="384" height="133" fill="#FFFFFF"/><text font-family="Times New Roman,Times New Roman_MSFontService,sans-serif" font-weight="400" font-size="83" transform="matrix(1 0 0 1 2346.91 1518)">5<tspan font-size="83" x="41.25" y="0">-</tspan><tspan font-size="83" x="68.75" y="0">100 cm</tspan></text><path d="M3196.79 1345.42 3196.79 1809.35 3192.21 1809.35 3192.21 1345.42ZM3180.75 1350 3194.5 1322.5 3208.25 1350ZM3208.25 1804.76 3194.5 1832.26 3180.75 1804.76Z"/><rect x="3106" y="1511" width="274" height="134" fill="#FFFFFF"/><text font-family="Times New Roman,Times New Roman_MSFontService,sans-serif" font-weight="400" font-size="83" transform="matrix(1 0 0 1 3138.94 1608)">30 cm</text><path d="M3114.5 1319.5 3251.38 1319.5" stroke="#000000" stroke-width="4.58333" stroke-miterlimit="8" fill="none" fill-rule="evenodd"/><path d="M3113.5 1834.5 3250.38 1834.5" stroke="#000000" stroke-width="4.58333" stroke-miterlimit="8" fill="none" fill-rule="evenodd"/><path d="M1165.5 1732.5 1213.5 1757.5 1165.5 1782.5Z" stroke="#000000" stroke-width="4.58333" stroke-miterlimit="8" fill="#FFFFFF" fill-rule="evenodd"/><path d="M1262.5 1782.5 1214.5 1757.5 1262.5 1732.5Z" stroke="#000000" stroke-width="4.58333" stroke-miterlimit="8" fill="#FFFFFF" fill-rule="evenodd"/><path d="M1214.5 1729.5 1214.5 1779.61" stroke="#000000" stroke-width="4.58333" stroke-miterlimit="8" fill="none" fill-rule="evenodd"/><path d="M961.5 1732.5 1009.5 1757.5 961.5 1782.5Z" stroke="#000000" stroke-width="4.58333" stroke-miterlimit="8" fill="#FFFFFF" fill-rule="evenodd"/><path d="M1058.5 1782.5 1010.5 1757.5 1058.5 1732.5Z" stroke="#000000" stroke-width="4.58333" stroke-miterlimit="8" fill="#FFFFFF" fill-rule="evenodd"/><path d="M978.5 1756C978.5 1739.16 992.155 1725.5 1009 1725.5 1025.84 1725.5 1039.5 1739.16 1039.5 1756 1039.5 1772.84 1025.84 1786.5 1009 1786.5 992.155 1786.5 978.5 1772.84 978.5 1756Z" stroke="#000000" stroke-width="4.58333" stroke-miterlimit="8" fill="none" fill-rule="evenodd"/><path d="M1111.5 1757.5 1111.5 2064.5" stroke="#000000" stroke-width="4.58333" stroke-miterlimit="8" fill="none" fill-rule="evenodd"/><path d="M0 0 107.247 0.212927" stroke="#000000" stroke-width="4.58333" stroke-miterlimit="8" fill="none" fill-rule="evenodd" transform="matrix(1 0 0 -1 1058.5 1757.71)"/><path d="M0 0 63.1038 0.739468" stroke="#000000" stroke-width="4.58333" stroke-miterlimit="8" fill="none" fill-rule="evenodd" transform="matrix(1 0 0 -1 897.5 1757.24)"/><path d="M0 0 63.1038 0.739468" stroke="#000000" stroke-width="4.58333" stroke-miterlimit="8" fill="none" fill-rule="evenodd" transform="matrix(1 0 0 -1 1263.5 1756.24)"/><path d="M0 0 0.000360892 138.449" stroke="#000000" stroke-width="4.58333" stroke-miterlimit="8" fill="none" fill-rule="evenodd" transform="matrix(1 0 0 -1 1326.5 1757.95)"/><path d="M0 0 0.000360892 138.449" stroke="#000000" stroke-width="4.58333" stroke-miterlimit="8" fill="none" fill-rule="evenodd" transform="matrix(1 0 0 -1 899.5 1757.95)"/><path d="M755.001 517 1896 517C1932.45 517 1962 546.55 1962 583.001L1962 913 689 913 689 583.001C689 546.55 718.55 517 755.001 517Z" fill="#A5A5A5" fill-rule="evenodd" fill-opacity="0.501961"/><g clip-path="url(#clip14)" filter="url(#fx0)" transform="translate(1002 596)"><g clip-path="url(#clip15)"><path d="M17.3457-51.9561 17.3457-30.2334 29.4228-30.2334C32.557-30.2334 34.6509-30.7062 35.7046-31.6519 37.1095-32.8947 37.8931-35.0832 38.0552-38.2173L39.5547-38.2173 39.5547-19.0884 38.0552-19.0884C37.6769-21.7632 37.2987-23.4788 36.9204-24.2353 36.4341-25.181 35.637-25.924 34.5293-26.4644 33.4215-27.0047 31.7194-27.2749 29.4228-27.2749L17.3457-27.2749 17.3457-9.15918C17.3457-6.72754 17.4538-5.24829 17.6699-4.72144 17.8861-4.19458 18.2643-3.7758 18.8047-3.46509 19.3451-3.15438 20.3717-2.99902 21.8848-2.99902L31.2061-2.99902C34.3131-2.99902 36.5692-3.21517 37.9741-3.64746 39.3791-4.07975 40.73-4.93083 42.0269-6.20068 43.702-7.87581 45.4176-10.402 47.1738-13.7793L48.7949-13.7793 44.0532 0 1.70215 0 1.70215-1.49951 3.64746-1.49951C4.94434-1.49951 6.17367-1.81022 7.33545-2.43164 8.20003-2.86393 8.78768-3.51237 9.09839-4.37695 9.4091-5.24154 9.56445-7.01123 9.56445-9.68603L9.56445-45.3906C9.56445-48.876 9.21321-51.0239 8.51074-51.8345 7.53808-52.9152 5.91699-53.4556 3.64746-53.4556L1.70215-53.4556 1.70215-54.9551 44.0532-54.9551 44.6611-42.9185 43.0806-42.9185C42.5132-45.8094 41.885-47.7952 41.196-48.876 40.5071-49.9567 39.4871-50.7808 38.1362-51.3481 37.0555-51.7534 35.1507-51.956 32.4219-51.9561ZM63.9933-57.6299 63.9933-20.7095 73.4362-29.3013C75.4355-31.1385 76.5973-32.3003 76.9215-32.7866 77.1377-33.1108 77.2458-33.4351 77.2458-33.7593 77.2458-34.2996 77.0229-34.7657 76.5771-35.1575 76.1313-35.5492 75.395-35.7721 74.3683-35.8262L74.3683-37.123 90.4982-37.123 90.4982-35.8262C88.2827-35.7721 86.4387-35.4344 84.9662-34.813 83.4937-34.1916 81.8794-33.0838 80.1232-31.4897L70.5993-22.6953 80.1232-10.6587C82.771-7.33545 84.5542-5.22803 85.4728-4.33643 86.7697-3.06657 87.9044-2.24251 88.8771-1.86426 89.5526-1.59408 90.7279-1.45898 92.403-1.45898L92.403 0 74.3683 0 74.3683-1.45898C75.395-1.486 76.0907-1.64136 76.4555-1.92505 76.8202-2.20874 77.0026-2.60726 77.0026-3.12061 77.0026-3.74202 76.4622-4.7417 75.3815-6.11963L63.9933-20.6689 63.9933-8.34863C63.9933-5.94401 64.1622-4.36344 64.4999-3.60693 64.8376-2.85042 65.3172-2.31006 65.9386-1.98584 66.5601-1.66162 67.911-1.486 69.9914-1.45898L69.9914 0 51.1056 0 51.1056-1.45898C52.9969-1.45898 54.4154-1.68864 55.361-2.14795 55.9284-2.44515 56.3607-2.90446 56.6579-3.52588 57.0631-4.41748 57.2658-5.95752 57.2658-8.146L57.2658-41.9458C57.2658-46.2417 57.1712-48.8692 56.9821-49.8284 56.793-50.7875 56.4823-51.4495 56.05-51.8142 55.6177-52.1789 55.0503-52.3613 54.3478-52.3613 53.7804-52.3613 52.9294-52.1317 51.7946-51.6724L51.1056-53.0908 62.1291-57.6299ZM118.253-38.2173 118.253-25.5728 116.915-25.5728C115.888-29.5444 114.571-32.2463 112.964-33.6782 111.356-35.1102 109.31-35.8262 106.824-35.8262 104.933-35.8262 103.406-35.3263 102.244-34.3267 101.083-33.327 100.502-32.2192 100.502-31.0034 100.502-29.4904 100.934-28.1935 101.798-27.1128 102.636-26.005 104.338-24.8298 106.905-23.5869L112.822-20.7095C118.307-18.0347 121.049-14.5088 121.049-10.1318 121.049-6.75456 119.772-4.03247 117.219-1.96558 114.666 0.101318 111.809 1.13477 108.648 1.13477 106.378 1.13477 103.784 0.729492 100.866-0.0810547 99.9748-0.351237 99.2453-0.486328 98.6779-0.486328 98.0565-0.486328 97.5701-0.135091 97.2189 0.567383L95.8815 0.567383 95.8815-12.6851 97.2189-12.6851C97.9754-8.90251 99.4209-6.05208 101.555-4.13379 103.69-2.21549 106.081-1.25635 108.729-1.25635 110.593-1.25635 112.113-1.80347 113.288-2.8977 114.463-3.99194 115.051-5.30908 115.051-6.84912 115.051-8.71338 114.396-10.2804 113.085-11.5503 111.775-12.8201 109.161-14.4277 105.243-16.373 101.326-18.3184 98.7589-20.0745 97.5431-21.6416 96.3273-23.1816 95.7194-25.127 95.7194-27.4775 95.7194-30.5306 96.7663-33.0838 98.8603-35.1372 100.954-37.1906 103.663-38.2173 106.986-38.2173 108.445-38.2173 110.215-37.9066 112.295-37.2852 113.673-36.8799 114.592-36.6772 115.051-36.6772 115.483-36.6772 115.821-36.7718 116.064-36.9609 116.307-37.1501 116.591-37.5688 116.915-38.2173ZM123.669-33.4351 135.098-38.0552 136.638-38.0552 136.638-29.3823C138.556-32.6515 140.481-34.9413 142.413-36.2517 144.345-37.5621 146.378-38.2173 148.512-38.2173 152.241-38.2173 155.348-36.7583 157.833-33.8403 160.887-30.2739 162.413-25.6268 162.413-19.8989 162.413-13.4956 160.576-8.20003 156.901-4.01221 153.875-0.580892 150.066 1.13477 145.473 1.13477 143.473 1.13477 141.744 0.851074 140.285 0.283691 139.204-0.121582 137.989-0.932129 136.638-2.14795L136.638 9.15918C136.638 11.6989 136.793 13.3132 137.104 14.0022 137.414 14.6912 137.955 15.2383 138.725 15.6436 139.495 16.0488 140.893 16.2515 142.919 16.2515L142.919 17.751 123.466 17.751 123.466 16.2515 124.479 16.2515C125.965 16.2785 127.235 15.9948 128.289 15.4004 128.802 15.1032 129.201 14.6236 129.485 13.9617 129.768 13.2997 129.91 11.6178 129.91 8.91601L129.91-26.1807C129.91-28.5853 129.802-30.1118 129.586-30.7603 129.37-31.4087 129.025-31.895 128.552-32.2192 128.08-32.5435 127.438-32.7056 126.627-32.7056 125.979-32.7056 125.155-32.5164 124.155-32.1382ZM136.638-26.9912 136.638-13.1309C136.638-10.1318 136.759-8.1595 137.002-7.21387 137.381-5.64681 138.306-4.26888 139.779-3.08008 141.251-1.89128 143.109-1.29687 145.351-1.29687 148.053-1.29687 150.241-2.35059 151.916-4.45801 154.105-7.21387 155.199-11.091 155.199-16.0894 155.199-21.7632 153.956-26.1266 151.471-29.1797 149.742-31.2871 147.688-32.3408 145.311-32.3408 144.014-32.3408 142.73-32.0166 141.46-31.3682 140.488-30.8818 138.88-29.4228 136.638-26.9912ZM180.36-57.6299 180.36-8.38916C180.36-6.06559 180.529-4.52555 180.866-3.76904 181.204-3.01253 181.724-2.43839 182.427-2.04663 183.129-1.65487 184.44-1.45898 186.358-1.45898L186.358 0 168.161 0 168.161-1.45898C169.863-1.45898 171.025-1.6346 171.646-1.98584 172.268-2.33708 172.754-2.91797 173.105-3.72852 173.457-4.53906 173.632-6.09261 173.632-8.38916L173.632-42.1079C173.632-46.2957 173.538-48.8692 173.349-49.8284 173.159-50.7875 172.856-51.4427 172.437-51.7939 172.018-52.1452 171.484-52.3208 170.836-52.3208 170.133-52.3208 169.242-52.1046 168.161-51.6724L167.472-53.0908 178.536-57.6299ZM211.544-5.34961C207.735-2.40462 205.343-0.702474 204.371-0.243164 202.912 0.432292 201.358 0.770019 199.71 0.770019 197.143 0.770019 195.029-0.108073 193.368-1.86426 191.706-3.62044 190.875-5.9305 190.875-8.79443 190.875-10.6047 191.28-12.1717 192.091-13.4956 193.199-15.3328 195.124-17.062 197.866-18.6831 200.608-20.3042 205.168-22.2765 211.544-24.6001L211.544-26.0591C211.544-29.7606 210.956-32.3003 209.781-33.6782 208.606-35.0561 206.897-35.7451 204.654-35.7451 202.952-35.7451 201.601-35.2858 200.602-34.3672 199.575-33.4486 199.062-32.3949 199.062-31.2061L199.143-28.8555C199.143-27.6126 198.825-26.6535 198.19-25.978 197.555-25.3026 196.725-24.9648 195.698-24.9648 194.698-24.9648 193.881-25.3161 193.246-26.0186 192.611-26.721 192.294-27.6802 192.294-28.896 192.294-31.2196 193.482-33.354 195.86-35.2993 198.238-37.2446 201.574-38.2173 205.87-38.2173 209.166-38.2173 211.868-37.6634 213.976-36.5557 215.57-35.7181 216.745-34.4077 217.502-32.6245 217.988-31.4627 218.231-29.0851 218.231-25.4917L218.231-12.8877C218.231-9.34831 218.299-7.18009 218.434-6.38306 218.569-5.58602 218.792-5.05241 219.102-4.78223 219.413-4.51204 219.771-4.37695 220.176-4.37695 220.609-4.37695 220.987-4.47152 221.311-4.66064 221.879-5.01188 222.973-5.99805 224.594-7.61914L224.594-5.34961C221.568-1.29688 218.677 0.729492 215.921 0.729492 214.597 0.729492 213.543 0.270182 212.76-0.648437 211.976-1.56706 211.571-3.13411 211.544-5.34961ZM211.544-7.98389 211.544-22.1279C207.464-20.5068 204.83-19.3586 203.641-18.6831 201.507-17.4943 199.98-16.2515 199.062-14.9546 198.143-13.6577 197.684-12.2393 197.684-10.6992 197.684-8.75391 198.265-7.13957 199.426-5.8562 200.588-4.57283 201.926-3.93115 203.439-3.93115 205.492-3.93115 208.194-5.28206 211.544-7.98389Z" transform="matrix(1 0 0 1 56.5787 112)"/></g></g><text font-family="Times New Roman,Times New Roman_MSFontService,sans-serif" font-weight="400" font-size="83" transform="matrix(1 0 0 1 1056.6 706)">Ekspla</text><g clip-path="url(#clip16)" filter="url(#fx1)" transform="translate(1247 596)"><g clip-path="url(#clip17)"><path d="M-1.09424-54.9551 13.8198-54.9551 47.417-13.7388 47.417-45.4311C47.417-48.8084 47.0387-50.9158 46.2822-51.7534 45.2825-52.8882 43.702-53.4556 41.5405-53.4556L39.6357-53.4556 39.6357-54.9551 58.7646-54.9551 58.7646-53.4556 56.8193-53.4556C54.4958-53.4556 52.8476-52.7531 51.875-51.3481 51.2806-50.4836 50.9834-48.5112 50.9834-45.4311L50.9834 0.891602 49.5244 0.891602 13.293-43.3643 13.293-9.52392C13.293-6.14665 13.6577-4.03922 14.3872-3.20166 15.4139-2.06689 16.9945-1.49951 19.1289-1.49951L21.0742-1.49951 21.0742 0 1.94531 0 1.94531-1.49951 3.8501-1.49951C6.20068-1.49951 7.8623-2.20199 8.83496-3.60693 9.42936-4.47152 9.72656-6.44385 9.72656-9.52392L9.72656-47.7412C8.13249-49.6055 6.92342-50.8348 6.09936-51.4292 5.27531-52.0236 4.06624-52.5775 2.47217-53.0908 1.68864-53.334 0.499837-53.4556-1.09424-53.4556ZM107.162-15.1978 108.5-14.9141 103.799 0 61.245 0 61.245-1.49951 63.3118-1.49951C65.6354-1.49951 67.297-2.25602 68.2967-3.76904 68.8641-4.63363 69.1478-6.63297 69.1478-9.76709L69.1478-45.2285C69.1478-48.6598 68.7695-50.8078 68.013-51.6724 66.9593-52.8612 65.3922-53.4556 63.3118-53.4556L61.245-53.4556 61.245-54.9551 86.1287-54.9551 86.1287-53.4556C83.2108-53.4826 81.1641-53.2124 79.9888-52.645 78.8136-52.0776 78.0098-51.3616 77.5775-50.4971 77.1452-49.6325 76.929-47.5656 76.929-44.2964L76.929-9.76709C76.929-7.52458 77.1452-5.98454 77.5775-5.14697 77.9017-4.57959 78.4015-4.16081 79.077-3.89062 79.7524-3.62044 81.8599-3.48535 85.3992-3.48535L89.4115-3.48535C93.6263-3.48535 96.5848-3.79606 98.2869-4.41748 99.9891-5.0389 101.543-6.13989 102.948-7.72046 104.353-9.30102 105.757-11.7935 107.162-15.1978ZM114.215-44.499C115.782-48.2005 117.761-51.0577 120.152-53.0706 122.543-55.0834 125.522-56.0898 129.088-56.0898 133.492-56.0898 136.87-54.6579 139.22-51.7939 141.003-49.6595 141.895-47.3765 141.895-44.9448 141.895-40.9461 139.382-36.8123 134.357-32.5435 137.734-31.2196 140.287-29.3283 142.017-26.8696 143.746-24.411 144.61-21.52 144.61-18.1968 144.61-13.4416 143.097-9.32129 140.071-5.83594 136.127-1.29688 130.412 0.972656 122.928 0.972656 119.227 0.972656 116.707 0.513346 115.37-0.405273 114.032-1.32389 113.364-2.31006 113.364-3.36377 113.364-4.1473 113.681-4.83626 114.316-5.43066 114.951-6.02506 115.714-6.32227 116.606-6.32227 117.281-6.32227 117.97-6.21419 118.673-5.99805 119.132-5.86296 120.172-5.36987 121.793-4.5188 123.415-3.66772 124.536-3.16113 125.157-2.99902 126.157-2.70182 127.224-2.55322 128.359-2.55322 131.115-2.55322 133.513-3.62044 135.552-5.75488 137.592-7.88932 138.612-10.4155 138.612-13.3335 138.612-15.4679 138.139-17.5483 137.194-19.5747 136.491-21.0877 135.721-22.236 134.884-23.0195 133.722-24.1003 132.128-25.0797 130.102-25.9578 128.075-26.8359 126.008-27.2749 123.901-27.2749L122.604-27.2749 122.604-28.4907C124.738-28.7609 126.88-29.5309 129.028-30.8008 131.176-32.0706 132.736-33.5972 133.708-35.3804 134.681-37.1636 135.167-39.1224 135.167-41.2568 135.167-44.0397 134.296-46.289 132.553-48.0046 130.811-49.7203 128.643-50.5781 126.049-50.5781 121.861-50.5781 118.362-48.3356 115.552-43.8506ZM154.249-27.1533C154.249-33.4215 155.195-38.8184 157.086-43.344 158.977-47.8695 161.49-51.2401 164.624-53.4556 167.056-55.2117 169.568-56.0898 172.162-56.0898 176.377-56.0898 180.16-53.9419 183.51-49.646 187.698-44.3234 189.792-37.1095 189.792-28.0044 189.792-21.6281 188.873-16.2109 187.036-11.7529 185.198-7.29492 182.855-4.05949 180.004-2.04663 177.154-0.0337728 174.405 0.972656 171.757 0.972656 166.515 0.972656 162.152-2.12093 158.667-8.3081 155.722-13.5226 154.249-19.8044 154.249-27.1533ZM162.192-26.1401C162.192-18.575 163.125-12.4014 164.989-7.61914 166.529-3.59342 168.825-1.58057 171.878-1.58057 173.337-1.58057 174.85-2.23576 176.417-3.54614 177.985-4.85653 179.173-7.05176 179.984-10.1318 181.227-14.779 181.848-21.3309 181.848-29.7876 181.848-36.0558 181.2-41.2838 179.903-45.4717 178.93-48.5788 177.674-50.7808 176.134-52.0776 175.026-52.9692 173.689-53.415 172.122-53.415 170.284-53.415 168.65-52.591 167.218-50.9429 165.272-48.7004 163.949-45.1745 163.246-40.3652 162.544-35.556 162.192-30.8143 162.192-26.1401ZM196.715-44.499C198.282-48.2005 200.261-51.0577 202.652-53.0706 205.043-55.0834 208.022-56.0898 211.588-56.0898 215.992-56.0898 219.37-54.6579 221.72-51.7939 223.503-49.6595 224.395-47.3765 224.395-44.9448 224.395-40.9461 221.882-36.8123 216.857-32.5435 220.234-31.2196 222.787-29.3283 224.517-26.8696 226.246-24.411 227.11-21.52 227.11-18.1968 227.11-13.4416 225.597-9.32129 222.571-5.83594 218.627-1.29688 212.912 0.972656 205.428 0.972656 201.727 0.972656 199.207 0.513346 197.87-0.405273 196.532-1.32389 195.864-2.31006 195.864-3.36377 195.864-4.1473 196.181-4.83626 196.816-5.43066 197.451-6.02506 198.214-6.32227 199.106-6.32227 199.781-6.32227 200.47-6.21419 201.173-5.99805 201.632-5.86296 202.672-5.36987 204.293-4.5188 205.915-3.66772 207.036-3.16113 207.657-2.99902 208.657-2.70182 209.724-2.55322 210.859-2.55322 213.615-2.55322 216.013-3.62044 218.052-5.75488 220.092-7.88932 221.112-10.4155 221.112-13.3335 221.112-15.4679 220.639-17.5483 219.694-19.5747 218.991-21.0877 218.221-22.236 217.384-23.0195 216.222-24.1003 214.628-25.0797 212.602-25.9578 210.575-26.8359 208.508-27.2749 206.401-27.2749L205.104-27.2749 205.104-28.4907C207.238-28.7609 209.38-29.5309 211.528-30.8008 213.676-32.0706 215.236-33.5972 216.208-35.3804 217.181-37.1636 217.667-39.1224 217.667-41.2568 217.667-44.0397 216.796-46.289 215.053-48.0046 213.311-49.7203 211.143-50.5781 208.549-50.5781 204.361-50.5781 200.862-48.3356 198.052-43.8506ZM235.168 0 235.168-1.49951 237.235-1.49951C239.559-1.49951 241.207-2.24251 242.18-3.72852 242.774-4.62012 243.071-6.61947 243.071-9.72656L243.071-45.2285C243.071-48.6598 242.693-50.8078 241.937-51.6724 240.883-52.8612 239.316-53.4556 237.235-53.4556L235.168-53.4556 235.168-54.9551 257.54-54.9551C265.753-54.9551 272.001-54.0229 276.283-52.1587 280.566-50.2944 284.011-47.1873 286.618-42.8374 289.225-38.4875 290.529-33.4621 290.529-27.7612 290.529-20.1151 288.205-13.7253 283.558-8.5918 278.344-2.86393 270.4 0 259.728 0ZM250.853-3.97168C254.284-3.21517 257.161-2.83691 259.485-2.83691 265.753-2.83691 270.954-5.0389 275.088-9.44287 279.222-13.8468 281.289-19.8179 281.289-27.356 281.289-34.9481 279.222-40.9326 275.088-45.3096 270.954-49.6865 265.645-51.875 259.161-51.875 256.729-51.875 253.96-51.4832 250.853-50.6997Z" transform="matrix(1 0 0 1 56.7871 112)"/></g></g><text font-family="Times New Roman,Times New Roman_MSFontService,sans-serif" font-weight="400" font-size="83" transform="matrix(1 0 0 1 1301.81 706)">NL303D </text><g clip-path="url(#clip18)" filter="url(#fx2)" transform="translate(822 695)"><g clip-path="url(#clip19)"><path d="M25.7754 16.2515 25.7754 17.751C21.6956 15.6976 18.2913 13.293 15.5625 10.5371 11.6719 6.61947 8.67285 1.99935 6.56543-3.32324 4.45801-8.64583 3.4043-14.1711 3.4043-19.8989 3.4043-28.2746 5.47119-35.914 9.60498-42.8171 13.7388-49.7203 19.1289-54.6579 25.7754-57.6299L25.7754-55.9277C22.4521-54.0905 19.7233-51.5778 17.5889-48.3896 15.4544-45.2015 13.8603-41.1623 12.8066-36.272 11.7529-31.3817 11.2261-26.2752 11.2261-20.9526 11.2261-15.1707 11.6719-9.91569 12.5635-5.1875 13.2659-1.45898 14.117 1.53328 15.1167 3.78931 16.1164 6.04533 17.4605 8.21354 19.1492 10.2939 20.8378 12.3743 23.0465 14.3602 25.7754 16.2515Z" transform="matrix(1 0 0 1 56.6829 112)"/></g></g><text font-family="Times New Roman,Times New Roman_MSFontService,sans-serif" font-weight="400" font-size="83" transform="matrix(1 0 0 1 876.702 805)">(</text><g clip-path="url(#clip20)" filter="url(#fx3)" transform="translate(850 695)"><g clip-path="url(#clip21)"><path d="M4.57959 0-2.59375 0 22.6548-36.3125 22.7764-43.1616C22.7764-47.2954 22.3643-49.9635 21.5403-51.1658 20.7162-52.3681 19.6693-52.9692 18.3994-52.9692 15.9678-52.9692 14.3602-50.9158 13.5767-46.8091L12.1177-46.8091C12.4689-49.9972 13.3538-52.5977 14.7722-54.6106 16.1907-56.6235 17.859-57.6299 19.7773-57.6299 21.4795-57.6299 22.7426-56.9342 23.5666-55.5427 24.3907-54.1513 24.8027-51.6994 24.8027-48.187 24.8027-47.7817 24.7892-47.2279 24.7622-46.5254L23.668-12.3203C23.6409-11.915 23.6274-11.5503 23.6274-11.2261 23.6274-6.57894 25.0864-4.25537 28.0044-4.25537 30.4901-4.25537 31.9491-5.86296 32.3813-9.07812L33.8403-9.07812C33.8133-6.34928 33.1851-4.073 31.9558-2.24927 30.7265-0.425537 29.0851 0.486328 27.0317 0.486328 23.3843 0.486328 21.5605-1.91829 21.5605-6.72754 21.5605-6.99772 21.5876-7.90283 21.6416-9.44287L22.2495-25.6943Z" transform="matrix(1 0 0 1 56.1829 112)"/></g></g><text font-family="Times New Roman,Times New Roman_MSFontService,sans-serif" font-style="italic" font-weight="400" font-size="83" transform="matrix(1 0 0 1 904.202 805)">λ</text><g clip-path="url(#clip22)" filter="url(#fx4)" transform="translate(906 695)"><g clip-path="url(#clip23)"><path d="M8.10547-35.7856 51.8345-35.7856 51.8345-32.4624 8.10547-32.4624ZM8.10547-22.5737 51.8345-22.5737 51.8345-19.2505 8.10547-19.2505Z" transform="matrix(1 0 0 1 56.3287 112)"/></g></g><text font-family="Times New Roman,Times New Roman_MSFontService,sans-serif" font-style="italic" font-weight="400" font-size="83" transform="matrix(1 0 0 1 960.348 805)">=</text><g clip-path="url(#clip24)" filter="url(#fx5)" transform="translate(982 695)"><g clip-path="url(#clip25)"><path d="M9.72656-49.5649 23.1006-56.0898 24.438-56.0898 24.438-9.68603C24.438-6.60596 24.5663-4.68766 24.823-3.93115 25.0797-3.17464 25.6133-2.59375 26.4238-2.18848 27.2344-1.7832 28.8825-1.55355 31.3682-1.49951L31.3682 0 10.6992 0 10.6992-1.49951C13.293-1.55355 14.9681-1.77645 15.7246-2.16821 16.4811-2.55998 17.008-3.08683 17.3052-3.74878 17.6024-4.41073 17.751-6.38981 17.751-9.68603L17.751-39.352C17.751-43.3507 17.6159-45.9175 17.3457-47.0522 17.1566-47.9168 16.8121-48.5518 16.3123-48.957 15.8124-49.3623 15.2113-49.5649 14.5088-49.5649 13.5091-49.5649 12.1177-49.1462 10.3345-48.3086ZM44.249-27.1533C44.249-33.4215 45.1947-38.8184 47.0859-43.344 48.9772-47.8695 51.4899-51.2401 54.624-53.4556 57.0557-55.2117 59.5684-56.0898 62.1621-56.0898 66.3769-56.0898 70.1595-53.9419 73.5098-49.646 77.6976-44.3234 79.7915-37.1095 79.7915-28.0044 79.7915-21.6281 78.8729-16.2109 77.0356-11.7529 75.1984-7.29492 72.8546-4.05949 70.0041-2.04663 67.1537-0.0337728 64.4046 0.972656 61.7568 0.972656 56.5153 0.972656 52.1519-2.12093 48.6665-8.3081 45.7215-13.5226 44.249-19.8044 44.249-27.1533ZM52.1924-26.1401C52.1924-18.575 53.1245-12.4014 54.9888-7.61914 56.5288-3.59342 58.8253-1.58057 61.8784-1.58057 63.3374-1.58057 64.8504-2.23576 66.4175-3.54614 67.9845-4.85653 69.1733-7.05176 69.9839-10.1318 71.2267-14.779 71.8481-21.3309 71.8481-29.7876 71.8481-36.0558 71.1997-41.2838 69.9028-45.4717 68.9302-48.5788 67.6738-50.7808 66.1338-52.0776 65.026-52.9692 63.6886-53.415 62.1216-53.415 60.2843-53.415 58.6497-52.591 57.2178-50.9429 55.2725-48.7004 53.9486-45.1745 53.2461-40.3652 52.5436-35.556 52.1924-30.8143 52.1924-26.1401ZM119.704-56.0898 119.704-54.5903C116.138-54.2391 113.226-53.5299 110.97-52.4626 108.714-51.3954 106.485-49.7676 104.283-47.5791 102.081-45.3906 100.258-42.9522 98.8122-40.2639 97.3668-37.5756 96.1577-34.3807 95.1851-30.6792 99.0757-33.354 102.98-34.6914 106.897-34.6914 110.653-34.6914 113.909-33.1784 116.665-30.1523 119.42-27.1263 120.798-23.2357 120.798-18.4805 120.798-13.8874 119.407-9.69954 116.624-5.91699 113.274-1.32389 108.843 0.972656 103.331 0.972656 99.5755 0.972656 96.3874-0.270182 93.7666-2.75586 88.6331-7.59212 86.0664-13.8603 86.0664-21.5605 86.0664-26.4779 87.0526-31.152 89.0249-35.583 90.9972-40.014 93.8139-43.9451 97.4748-47.3765 101.136-50.8078 104.641-53.1178 107.992-54.3066 111.342-55.4954 114.463-56.0898 117.354-56.0898ZM94.4961-27.7207C94.0098-24.0732 93.7666-21.1283 93.7666-18.8857 93.7666-16.292 94.2462-13.4753 95.2053-10.4358 96.1645-7.39624 97.5897-4.98486 99.4809-3.20166 100.859-1.9318 102.534-1.29687 104.506-1.29687 106.857-1.29687 108.958-2.40462 110.808-4.62012 112.659-6.83561 113.584-9.99674 113.584-14.1035 113.584-18.7236 112.666-22.7223 110.829-26.0996 108.991-29.4769 106.384-31.1655 103.007-31.1655 101.98-31.1655 100.879-30.9494 99.7038-30.5171 98.5286-30.0848 96.7926-29.1527 94.4961-27.7207ZM162.373-20.2637 162.373-14.5088 154.997-14.5088 154.997 0 148.31 0 148.31-14.5088 125.047-14.5088 125.047-19.6963 150.539-56.0898 154.997-56.0898 154.997-20.2637ZM148.31-20.2637 148.31-47.5386 129.019-20.2637ZM199.04-30.355C203.389-35.5965 207.537-38.2173 211.481-38.2173 213.508-38.2173 215.25-37.7107 216.709-36.6975 218.168-35.6843 219.33-34.0159 220.195-31.6924 220.789-30.0713 221.086-27.5856 221.086-24.2353L221.086-8.38916C221.086-6.03857 221.276-4.4445 221.654-3.60693 221.951-2.93148 222.431-2.40462 223.093-2.02637 223.754-1.64811 224.977-1.45898 226.76-1.45898L226.76 0 208.401 0 208.401-1.45898 209.171-1.45898C210.901-1.45898 212.11-1.72241 212.799-2.24927 213.488-2.77612 213.967-3.5529 214.237-4.57959 214.345-4.98486 214.399-6.25472 214.399-8.38916L214.399-23.5869C214.399-26.9642 213.96-29.4161 213.082-30.9426 212.204-32.4692 210.725-33.2324 208.645-33.2324 205.429-33.2324 202.228-31.4762 199.04-27.9639L199.04-8.38916C199.04-5.87646 199.188-4.32292 199.485-3.72852 199.864-2.94499 200.384-2.37085 201.046-2.0061 201.708-1.64136 203.052-1.45898 205.078-1.45898L205.078 0 186.719 0 186.719-1.45898 187.53-1.45898C189.421-1.45898 190.698-1.93856 191.36-2.8977 192.022-3.85685 192.353-5.68734 192.353-8.38916L192.353-22.1685C192.353-26.6265 192.251-29.3418 192.049-30.3145 191.846-31.2871 191.535-31.9491 191.116-32.3003 190.698-32.6515 190.137-32.8271 189.435-32.8271 188.678-32.8271 187.773-32.6245 186.719-32.2192L186.111-33.6782 197.297-38.2173 199.04-38.2173ZM240.492-30.3145C243.194-33.0163 244.788-34.5698 245.274-34.9751 246.49-36.0018 247.801-36.7988 249.206-37.3662 250.611-37.9336 252.002-38.2173 253.38-38.2173 255.703-38.2173 257.703-37.5418 259.378-36.1909 261.053-34.84 262.174-32.8812 262.742-30.3145 265.525-33.5566 267.875-35.6843 269.793-36.6975 271.712-37.7107 273.684-38.2173 275.71-38.2173 277.683-38.2173 279.432-37.7107 280.959-36.6975 282.485-35.6843 283.694-34.0295 284.586-31.7329 285.18-30.1658 285.478-27.7072 285.478-24.3569L285.478-8.38916C285.478-6.06559 285.653-4.47152 286.004-3.60693 286.275-3.01253 286.774-2.50594 287.504-2.08716 288.233-1.66838 289.422-1.45898 291.07-1.45898L291.07 0 272.752 0 272.752-1.45898 273.522-1.45898C275.116-1.45898 276.359-1.76969 277.25-2.39111 277.872-2.8234 278.318-3.51237 278.588-4.45801 278.696-4.91732 278.75-6.2277 278.75-8.38916L278.75-24.3569C278.75-27.383 278.385-29.5174 277.656-30.7603 276.602-32.4894 274.913-33.354 272.59-33.354 271.158-33.354 269.719-32.996 268.274-32.28 266.828-31.564 265.079-30.2334 263.025-28.2881L262.944-27.8423 263.025-26.0996 263.025-8.38916C263.025-5.84945 263.167-4.26888 263.451-3.64746 263.735-3.02604 264.268-2.50594 265.052-2.08716 265.835-1.66838 267.173-1.45898 269.064-1.45898L269.064 0 250.3 0 250.3-1.45898C252.353-1.45898 253.765-1.70215 254.535-2.18848 255.305-2.6748 255.839-3.4043 256.136-4.37695 256.271-4.83626 256.338-6.17366 256.338-8.38916L256.338-24.3569C256.338-27.383 255.893-29.5579 255.001-30.8818 253.812-32.611 252.151-33.4756 250.016-33.4756 248.557-33.4756 247.112-33.0838 245.68-32.3003 243.437-31.1115 241.708-29.7741 240.492-28.2881L240.492-8.38916C240.492-5.95752 240.661-4.37695 240.999-3.64746 241.336-2.91797 241.836-2.37085 242.498-2.0061 243.16-1.64136 244.504-1.45898 246.531-1.45898L246.531 0 228.172 0 228.172-1.45898C229.874-1.45898 231.063-1.64136 231.738-2.0061 232.414-2.37085 232.927-2.95174 233.278-3.74878 233.63-4.54582 233.805-6.09261 233.805-8.38916L233.805-22.5737C233.805-26.6535 233.684-29.2878 233.44-30.4766 233.251-31.3682 232.954-31.9828 232.549-32.3206 232.144-32.6583 231.59-32.8271 230.887-32.8271 230.131-32.8271 229.226-32.6245 228.172-32.2192L227.564-33.6782 238.749-38.2173 240.492-38.2173ZM295.5 13.8198 295.5 12.0366C298.283 11.118 300.437 9.69279 301.964 7.76099 303.49 5.82918 304.254 3.78255 304.254 1.62109 304.254 1.10775 304.132 0.675456 303.889 0.324219 303.7 0.0810547 303.511-0.0405273 303.321-0.0405273 303.024-0.0405273 302.376 0.229655 301.376 0.770019 300.89 1.01318 300.376 1.13477 299.836 1.13477 298.512 1.13477 297.458 0.743001 296.675-0.0405273 295.891-0.824056 295.5-1.90479 295.5-3.28271 295.5-4.60661 296.006-5.74137 297.019-6.68701 298.033-7.63265 299.269-8.10547 300.728-8.10547 302.511-8.10547 304.098-7.32869 305.49-5.77515 306.881-4.2216 307.577-2.16146 307.577 0.405273 307.577 3.18815 306.611 5.77515 304.679 8.16626 302.747 10.5574 299.688 12.4419 295.5 13.8198Z" transform="matrix(1 0 0 1 56.5266 112)"/></g></g><text font-family="Times New Roman,Times New Roman_MSFontService,sans-serif" font-weight="400" font-size="83" transform="matrix(1 0 0 1 1036.55 805)">1064 nm, </text><g clip-path="url(#clip26)" filter="url(#fx6)" transform="translate(1314 695)"><g clip-path="url(#clip27)"><path d="M26.8696-51.9966 20.5879-30.2739 25.7349-30.2739C29.4093-30.2739 32.0706-30.8346 33.7187-31.9558 35.3669-33.0771 36.7853-35.1507 37.9741-38.1768L39.4736-38.1768 33.8403-18.2373 32.2192-18.2373C32.7056-19.9124 32.9487-21.3444 32.9487-22.5332 32.9487-23.695 32.7123-24.6271 32.2395-25.3296 31.7667-26.0321 31.1182-26.5522 30.2942-26.8899 29.4701-27.2276 27.7342-27.3965 25.0864-27.3965L19.8584-27.3965 14.5493-9.19971C14.036-7.44352 13.7793-6.10612 13.7793-5.1875 13.7793-4.48503 14.117-3.86361 14.7925-3.32324 15.2518-2.94499 16.4001-2.75586 18.2373-2.75586L23.1006-2.75586C28.3691-2.75586 32.5907-3.68799 35.7654-5.55225 38.94-7.4165 41.7837-10.6587 44.2964-15.2788L45.7959-15.2788 40.6084 0-1.86426 0-1.3374-1.49951C0.770019-1.55355 2.18848-1.74268 2.91797-2.06689 3.9987-2.55322 4.78223-3.17464 5.26855-3.93115 5.99805-5.0389 6.86263-7.36247 7.8623-10.9019L17.5078-44.0532C18.2643-46.728 18.6426-48.7679 18.6426-50.1728 18.6426-51.1995 18.2846-52.0033 17.5686-52.5842 16.8526-53.1651 15.4544-53.4556 13.374-53.4556L12.5229-53.4556 13.0093-54.9551 52.4829-54.9551 49.0786-41.7026 47.5791-41.7026C47.7682-42.9455 47.8628-43.9857 47.8628-44.8232 47.8628-46.2552 47.5116-47.4575 46.8091-48.4302 45.8905-49.673 44.5531-50.6186 42.7969-51.2671 41.5-51.7534 38.5145-51.9966 33.8403-51.9966Z" transform="matrix(1 0 0 1 56.8184 112)"/></g></g><text font-family="Times New Roman,Times New Roman_MSFontService,sans-serif" font-style="italic" font-weight="400" font-size="83" transform="matrix(1 0 0 1 1368.84 805)">E</text><g clip-path="url(#clip28)" filter="url(#fx7)" transform="translate(1385 695)"><g clip-path="url(#clip29)"><path d="M1.49951-35.7856 45.2285-35.7856 45.2285-32.4624 1.49951-32.4624ZM1.49951-22.5737 45.2285-22.5737 45.2285-19.2505 1.49951-19.2505ZM75.3799-54.9551 104.843-54.9551 104.843-53.415 86.5249 1.13477 81.9858 1.13477 98.3994-48.3491 83.2827-48.3491C80.2296-48.3491 78.0547-47.9844 76.7578-47.2549 74.4883-46.012 72.6645-44.0937 71.2866-41.5L70.1113-41.9458ZM111.28-27.1533C111.28-33.4215 112.226-38.8184 114.117-43.344 116.008-47.8695 118.521-51.2401 121.655-53.4556 124.087-55.2117 126.6-56.0898 129.193-56.0898 133.408-56.0898 137.191-53.9419 140.541-49.646 144.729-44.3234 146.823-37.1095 146.823-28.0044 146.823-21.6281 145.904-16.2109 144.067-11.7529 142.23-7.29492 139.886-4.05949 137.035-2.04663 134.185-0.0337728 131.436 0.972656 128.788 0.972656 123.547 0.972656 119.183-2.12093 115.698-8.3081 112.753-13.5226 111.28-19.8044 111.28-27.1533ZM119.224-26.1401C119.224-18.575 120.156-12.4014 122.02-7.61914 123.56-3.59342 125.857-1.58057 128.91-1.58057 130.369-1.58057 131.882-2.23576 133.449-3.54614 135.016-4.85653 136.205-7.05176 137.015-10.1318 138.258-14.779 138.879-21.3309 138.879-29.7876 138.879-36.0558 138.231-41.2838 136.934-45.4717 135.961-48.5788 134.705-50.7808 133.165-52.0776 132.057-52.9692 130.72-53.415 129.153-53.415 127.316-53.415 125.681-52.591 124.249-50.9429 122.304-48.7004 120.98-45.1745 120.277-40.3652 119.575-35.556 119.224-30.8143 119.224-26.1401ZM152.53-27.1533C152.53-33.4215 153.476-38.8184 155.367-43.344 157.258-47.8695 159.771-51.2401 162.905-53.4556 165.337-55.2117 167.85-56.0898 170.443-56.0898 174.658-56.0898 178.441-53.9419 181.791-49.646 185.979-44.3234 188.073-37.1095 188.073-28.0044 188.073-21.6281 187.154-16.2109 185.317-11.7529 183.48-7.29492 181.136-4.05949 178.285-2.04663 175.435-0.0337728 172.686 0.972656 170.038 0.972656 164.797 0.972656 160.433-2.12093 156.948-8.3081 154.003-13.5226 152.53-19.8044 152.53-27.1533ZM160.474-26.1401C160.474-18.575 161.406-12.4014 163.27-7.61914 164.81-3.59342 167.107-1.58057 170.16-1.58057 171.619-1.58057 173.132-2.23576 174.699-3.54614 176.266-4.85653 177.455-7.05176 178.265-10.1318 179.508-14.779 180.129-21.3309 180.129-29.7876 180.129-36.0558 179.481-41.2838 178.184-45.4717 177.211-48.5788 175.955-50.7808 174.415-52.0776 173.307-52.9692 171.97-53.415 170.403-53.415 168.566-53.415 166.931-52.591 165.499-50.9429 163.554-48.7004 162.23-45.1745 161.527-40.3652 160.825-35.556 160.474-30.8143 160.474-26.1401Z" transform="matrix(1 0 0 1 56.86 112)"/></g></g><text font-family="Times New Roman,Times New Roman_MSFontService,sans-serif" font-weight="400" font-size="83" transform="matrix(1 0 0 1 1439.88 805)">= 700 </text><g clip-path="url(#clip30)" filter="url(#fx8)" transform="translate(1597 695)"><g clip-path="url(#clip31)"><path d="M13.6172-30.3145C16.319-33.0163 17.9131-34.5698 18.3994-34.9751 19.6152-36.0018 20.9256-36.7988 22.3306-37.3662 23.7355-37.9336 25.127-38.2173 26.5049-38.2173 28.8284-38.2173 30.8278-37.5418 32.5029-36.1909 34.1781-34.84 35.2993-32.8812 35.8667-30.3145 38.6496-33.5566 41.0002-35.6843 42.9185-36.6975 44.8367-37.7107 46.8091-38.2173 48.8354-38.2173 50.8078-38.2173 52.5572-37.7107 54.0837-36.6975 55.6103-35.6843 56.8193-34.0295 57.7109-31.7329 58.3053-30.1658 58.6025-27.7072 58.6025-24.3569L58.6025-8.38916C58.6025-6.06559 58.7782-4.47152 59.1294-3.60693 59.3996-3.01253 59.8994-2.50594 60.6289-2.08716 61.3584-1.66838 62.5472-1.45898 64.1953-1.45898L64.1953 0 45.8769 0 45.8769-1.45898 46.647-1.45898C48.241-1.45898 49.4839-1.76969 50.3755-2.39111 50.9969-2.8234 51.4427-3.51237 51.7129-4.45801 51.821-4.91732 51.875-6.2277 51.875-8.38916L51.875-24.3569C51.875-27.383 51.5102-29.5174 50.7808-30.7603 49.727-32.4894 48.0384-33.354 45.7148-33.354 44.2829-33.354 42.8442-32.996 41.3987-32.28 39.9532-31.564 38.2038-30.2334 36.1504-28.2881L36.0693-27.8423 36.1504-26.0996 36.1504-8.38916C36.1504-5.84945 36.2922-4.26888 36.5759-3.64746 36.8596-3.02604 37.3932-2.50594 38.1768-2.08716 38.9603-1.66838 40.2977-1.45898 42.189-1.45898L42.189 0 23.4248 0 23.4248-1.45898C25.4782-1.45898 26.8899-1.70215 27.6599-2.18848 28.4299-2.6748 28.9635-3.4043 29.2607-4.37695 29.3958-4.83626 29.4634-6.17366 29.4634-8.38916L29.4634-24.3569C29.4634-27.383 29.0176-29.5579 28.126-30.8818 26.9372-32.611 25.2756-33.4756 23.1411-33.4756 21.6821-33.4756 20.2367-33.0838 18.8047-32.3003 16.5622-31.1115 14.833-29.7741 13.6172-28.2881L13.6172-8.38916C13.6172-5.95752 13.7861-4.37695 14.1238-3.64746 14.4615-2.91797 14.9613-2.37085 15.6233-2.0061 16.2852-1.64136 17.6294-1.45898 19.6558-1.45898L19.6558 0 1.29687 0 1.29687-1.45898C2.99902-1.45898 4.18783-1.64136 4.86328-2.0061 5.53874-2.37085 6.05208-2.95174 6.40332-3.74878 6.75456-4.54582 6.93018-6.09261 6.93018-8.38916L6.93018-22.5737C6.93018-26.6535 6.80859-29.2878 6.56543-30.4766 6.3763-31.3682 6.0791-31.9828 5.67383-32.3206 5.26855-32.6583 4.71468-32.8271 4.01221-32.8271 3.2557-32.8271 2.35059-32.6245 1.29687-32.2192L0.688965-33.6782 11.8745-38.2173 13.6172-38.2173ZM72.4342-53.4556 72.4342-54.9551 95.9806-54.9551 95.9806-53.4556 93.9948-53.4556C91.7523-53.4556 90.1177-52.7936 89.091-51.4697 88.4425-50.6051 88.1183-48.5247 88.1183-45.2285L88.1183-18.3589C88.1183-14.2251 87.6658-10.8748 86.7607-8.3081 85.8555-5.74137 84.2952-3.50561 82.0798-1.60083 79.8643 0.303955 77.1895 1.25635 74.0553 1.25635 71.5156 1.25635 69.5163 0.628174 68.0573-0.628174 66.5983-1.88452 65.8688-3.32324 65.8688-4.94434 65.8688-6.26823 66.2065-7.2679 66.882-7.94336 67.7736-8.78092 68.8138-9.19971 70.0026-9.19971 70.8672-9.19971 71.644-8.91601 72.3329-8.34863 73.0219-7.78125 73.8932-6.26823 74.9469-3.80957 75.5684-2.35059 76.3654-1.62109 77.3381-1.62109 78.0675-1.62109 78.7497-2.06689 79.3847-2.9585 80.0196-3.8501 80.3371-5.43066 80.3371-7.70019L80.3371-45.2285C80.3371-48.0114 80.1615-49.8486 79.8102-50.7402 79.54-51.4157 78.9726-51.9966 78.1081-52.4829 76.9463-53.1313 75.7169-53.4556 74.4201-53.4556Z" transform="matrix(1 0 0 1 56.2662 112)"/></g></g><text font-family="Times New Roman,Times New Roman_MSFontService,sans-serif" font-weight="400" font-size="83" transform="matrix(1 0 0 1 1651.29 805)">mJ</text><g clip-path="url(#clip32)" filter="url(#fx9)" transform="translate(1693 695)"><g clip-path="url(#clip33)"><path d="M1.86426-55.9277 1.86426-57.6299C5.97103-55.6035 9.38883-53.2124 12.1177-50.4565 15.9813-46.5119 18.9668-41.885 21.0742-36.5759 23.1816-31.2668 24.2353-25.7349 24.2353-19.98 24.2353-11.6043 22.1752-3.96492 18.0549 2.93823 13.9347 9.84139 8.53776 14.779 1.86426 17.751L1.86426 16.2515C5.1875 14.3872 7.92309 11.8678 10.071 8.69311 12.219 5.51847 13.8131 1.47925 14.8533-3.42456 15.8935-8.32837 16.4136-13.4416 16.4136-18.7642 16.4136-24.519 15.9678-29.7741 15.0762-34.5293 14.4007-38.2578 13.5564-41.2433 12.5432-43.4858 11.53-45.7283 10.1859-47.8898 8.51074-49.9702 6.83561-52.0506 4.62012-54.0365 1.86426-55.9277Z" transform="matrix(1 0 0 1 56.5162 112)"/></g></g><text font-family="Times New Roman,Times New Roman_MSFontService,sans-serif" font-weight="400" font-size="83" transform="matrix(1 0 0 1 1747.54 805)">)</text><path d="M0 0 338.406 0.000360892" stroke="#C00000" stroke-width="18.3333" stroke-linejoin="bevel" stroke-miterlimit="10" stroke-opacity="0.501961" fill="none" fill-rule="evenodd" transform="matrix(-1 0 0 1 689.406 633)"/><path d="M0 0 0.000360892 958.976" stroke="#C00000" stroke-width="18.3333" stroke-linejoin="bevel" stroke-miterlimit="10" stroke-opacity="0.501961" fill="none" fill-rule="evenodd" transform="matrix(1 0 0 -1 351 1591.98)"/><path d="M0 0 800.996 1.33602" stroke="#C00000" stroke-width="18.3333" stroke-linejoin="bevel" stroke-miterlimit="10" stroke-opacity="0.501961" fill="none" fill-rule="evenodd" transform="matrix(-1 0 0 1 1152 1592)"/><path d="M388.711 608.505C387.419 607.241 372.601 620.287 355.614 637.644 338.627 655.001 325.903 670.097 327.195 671.361L313.16 657.625C311.868 656.36 324.591 641.265 341.579 623.908 358.566 606.551 373.384 593.505 374.676 594.769Z" fill="url(#fill34)" fill-rule="evenodd"/><path d="M388.711 608.505C390.003 609.77 377.28 624.866 360.292 642.223 343.305 659.58 328.487 672.625 327.195 671.361 325.903 670.097 338.627 655.001 355.614 637.644 372.601 620.287 387.419 607.241 388.711 608.505Z" fill="url(#fill35)" fill-rule="evenodd"/><path d="M327.195 671.361C325.903 670.097 338.627 655.001 355.614 637.644 372.601 620.287 387.419 607.241 388.711 608.505 390.003 609.77 377.28 624.866 360.292 642.223 343.305 659.58 328.487 672.625 327.195 671.361L313.16 657.625C311.868 656.36 324.591 641.265 341.579 623.908 358.566 606.551 373.384 593.505 374.676 594.769L388.711 608.505" stroke="#ED7D31" stroke-width="2.29167" stroke-miterlimit="8" fill="none" fill-rule="evenodd"/><path d="M326.553 1552.02C325.155 1553.16 336.503 1569.32 351.9 1588.1 367.296 1606.88 380.911 1621.18 382.309 1620.03L367.121 1632.48C365.723 1633.63 352.108 1619.33 336.712 1600.55 321.315 1581.77 309.967 1565.61 311.365 1564.47Z" fill="url(#fill36)" fill-rule="evenodd"/><path d="M326.553 1552.02C327.951 1550.87 341.565 1565.17 356.962 1583.95 372.359 1602.73 383.707 1618.89 382.309 1620.03 380.911 1621.18 367.296 1606.88 351.9 1588.1 336.503 1569.32 325.155 1553.16 326.553 1552.02Z" fill="url(#fill37)" fill-rule="evenodd"/><path d="M382.309 1620.03C380.911 1621.18 367.296 1606.88 351.9 1588.1 336.503 1569.32 325.155 1553.16 326.553 1552.02 327.951 1550.87 341.565 1565.17 356.962 1583.95 372.359 1602.73 383.707 1618.89 382.309 1620.03L367.121 1632.48C365.723 1633.63 352.108 1619.33 336.712 1600.55 321.315 1581.77 309.967 1565.61 311.365 1564.47L326.553 1552.02" stroke="#ED7D31" stroke-width="2.29167" stroke-miterlimit="8" fill="none" fill-rule="evenodd"/></g></svg>