<?xml version="1.0" encoding="utf-8"?>
<svg xmlns="http://www.w3.org/2000/svg" xmlns:xlink="http://www.w3.org/1999/xlink" width="450" height="350" viewBox="0 0 1800 1400">
<defs>
  <clipPath id="clip370">
    <rect x="0" y="0" width="1800" height="1400"/>
  </clipPath>
</defs>
<path clip-path="url(#clip370)" d="
M0 1400 L1800 1400 L1800 0 L0 0  Z
  " fill="#ffffff" fill-rule="evenodd" fill-opacity="1"/>
<defs>
  <clipPath id="clip371">
    <rect x="360" y="0" width="1261" height="1261"/>
  </clipPath>
</defs>
<defs>
  <clipPath id="clip372">
    <rect x="251" y="47" width="1502" height="1165"/>
  </clipPath>
</defs>
<path clip-path="url(#clip370)" d="
M251.462 1211.5 L1752.76 1211.5 L1752.76 47.2441 L251.462 47.2441  Z
  " fill="#ffffff" fill-rule="evenodd" fill-opacity="1"/>
<polyline clip-path="url(#clip372)" style="stroke:#000000; stroke-linecap:butt; stroke-linejoin:round; stroke-width:2; stroke-opacity:0.1; fill:none" points="
  251.462,1211.5 251.462,47.2441 
  "/>
<polyline clip-path="url(#clip372)" style="stroke:#000000; stroke-linecap:butt; stroke-linejoin:round; stroke-width:2; stroke-opacity:0.1; fill:none" points="
  581.687,1211.5 581.687,47.2441 
  "/>
<polyline clip-path="url(#clip372)" style="stroke:#000000; stroke-linecap:butt; stroke-linejoin:round; stroke-width:2; stroke-opacity:0.1; fill:none" points="
  911.912,1211.5 911.912,47.2441 
  "/>
<polyline clip-path="url(#clip372)" style="stroke:#000000; stroke-linecap:butt; stroke-linejoin:round; stroke-width:2; stroke-opacity:0.1; fill:none" points="
  1242.14,1211.5 1242.14,47.2441 
  "/>
<polyline clip-path="url(#clip372)" style="stroke:#000000; stroke-linecap:butt; stroke-linejoin:round; stroke-width:2; stroke-opacity:0.1; fill:none" points="
  1572.36,1211.5 1572.36,47.2441 
  "/>
<polyline clip-path="url(#clip370)" style="stroke:#000000; stroke-linecap:butt; stroke-linejoin:round; stroke-width:4; stroke-opacity:1; fill:none" points="
  251.462,1211.5 1752.76,1211.5 
  "/>
<polyline clip-path="url(#clip370)" style="stroke:#000000; stroke-linecap:butt; stroke-linejoin:round; stroke-width:4; stroke-opacity:1; fill:none" points="
  251.462,1211.5 251.462,1192.6 
  "/>
<polyline clip-path="url(#clip370)" style="stroke:#000000; stroke-linecap:butt; stroke-linejoin:round; stroke-width:4; stroke-opacity:1; fill:none" points="
  581.687,1211.5 581.687,1192.6 
  "/>
<polyline clip-path="url(#clip370)" style="stroke:#000000; stroke-linecap:butt; stroke-linejoin:round; stroke-width:4; stroke-opacity:1; fill:none" points="
  911.912,1211.5 911.912,1192.6 
  "/>
<polyline clip-path="url(#clip370)" style="stroke:#000000; stroke-linecap:butt; stroke-linejoin:round; stroke-width:4; stroke-opacity:1; fill:none" points="
  1242.14,1211.5 1242.14,1192.6 
  "/>
<polyline clip-path="url(#clip370)" style="stroke:#000000; stroke-linecap:butt; stroke-linejoin:round; stroke-width:4; stroke-opacity:1; fill:none" points="
  1572.36,1211.5 1572.36,1192.6 
  "/>
<path clip-path="url(#clip370)" d="M221.404 1252.27 L251.08 1252.27 L251.08 1256.21 L221.404 1256.21 L221.404 1252.27 Z" fill="#000000" fill-rule="evenodd" fill-opacity="1" /><path clip-path="url(#clip370)" d="M265.2 1265.16 L281.52 1265.16 L281.52 1269.1 L259.575 1269.1 L259.575 1265.16 Q262.237 1262.41 266.821 1257.78 Q271.427 1253.13 272.608 1251.79 Q274.853 1249.26 275.733 1247.53 Q276.636 1245.77 276.636 1244.08 Q276.636 1241.32 274.691 1239.59 Q272.77 1237.85 269.668 1237.85 Q267.469 1237.85 265.015 1238.61 Q262.585 1239.38 259.807 1240.93 L259.807 1236.21 Q262.631 1235.07 265.085 1234.49 Q267.538 1233.91 269.575 1233.91 Q274.946 1233.91 278.14 1236.6 Q281.335 1239.29 281.335 1243.78 Q281.335 1245.91 280.524 1247.83 Q279.737 1249.72 277.631 1252.32 Q277.052 1252.99 273.95 1256.21 Q270.849 1259.4 265.2 1265.16 Z" fill="#000000" fill-rule="evenodd" fill-opacity="1" /><path clip-path="url(#clip370)" d="M581.687 1237.62 Q578.076 1237.62 576.247 1241.18 Q574.442 1244.72 574.442 1251.85 Q574.442 1258.96 576.247 1262.53 Q578.076 1266.07 581.687 1266.07 Q585.321 1266.07 587.127 1262.53 Q588.955 1258.96 588.955 1251.85 Q588.955 1244.72 587.127 1241.18 Q585.321 1237.62 581.687 1237.62 M581.687 1233.91 Q587.497 1233.91 590.553 1238.52 Q593.631 1243.1 593.631 1251.85 Q593.631 1260.58 590.553 1265.19 Q587.497 1269.77 581.687 1269.77 Q575.877 1269.77 572.798 1265.19 Q569.743 1260.58 569.743 1251.85 Q569.743 1243.1 572.798 1238.52 Q575.877 1233.91 581.687 1233.91 Z" fill="#000000" fill-rule="evenodd" fill-opacity="1" /><path clip-path="url(#clip370)" d="M906.565 1265.16 L922.884 1265.16 L922.884 1269.1 L900.94 1269.1 L900.94 1265.16 Q903.602 1262.41 908.185 1257.78 Q912.792 1253.13 913.972 1251.79 Q916.217 1249.26 917.097 1247.53 Q918 1245.77 918 1244.08 Q918 1241.32 916.055 1239.59 Q914.134 1237.85 911.032 1237.85 Q908.833 1237.85 906.38 1238.61 Q903.949 1239.38 901.171 1240.93 L901.171 1236.21 Q903.995 1235.07 906.449 1234.49 Q908.903 1233.91 910.94 1233.91 Q916.31 1233.91 919.504 1236.6 Q922.699 1239.29 922.699 1243.78 Q922.699 1245.91 921.889 1247.83 Q921.102 1249.72 918.995 1252.32 Q918.416 1252.99 915.315 1256.21 Q912.213 1259.4 906.565 1265.16 Z" fill="#000000" fill-rule="evenodd" fill-opacity="1" /><path clip-path="url(#clip370)" d="M1245.15 1238.61 L1233.34 1257.06 L1245.15 1257.06 L1245.15 1238.61 M1243.92 1234.54 L1249.8 1234.54 L1249.8 1257.06 L1254.73 1257.06 L1254.73 1260.95 L1249.8 1260.95 L1249.8 1269.1 L1245.15 1269.1 L1245.15 1260.95 L1229.54 1260.95 L1229.54 1256.44 L1243.92 1234.54 Z" fill="#000000" fill-rule="evenodd" fill-opacity="1" /><path clip-path="url(#clip370)" d="M1572.77 1249.96 Q1569.62 1249.96 1567.77 1252.11 Q1565.94 1254.26 1565.94 1258.01 Q1565.94 1261.74 1567.77 1263.91 Q1569.62 1266.07 1572.77 1266.07 Q1575.91 1266.07 1577.74 1263.91 Q1579.6 1261.74 1579.6 1258.01 Q1579.6 1254.26 1577.74 1252.11 Q1575.91 1249.96 1572.77 1249.96 M1582.05 1235.3 L1582.05 1239.56 Q1580.29 1238.73 1578.48 1238.29 Q1576.7 1237.85 1574.94 1237.85 Q1570.31 1237.85 1567.86 1240.97 Q1565.43 1244.1 1565.08 1250.42 Q1566.45 1248.41 1568.51 1247.34 Q1570.57 1246.25 1573.04 1246.25 Q1578.25 1246.25 1581.26 1249.42 Q1584.29 1252.57 1584.29 1258.01 Q1584.29 1263.34 1581.15 1266.55 Q1578 1269.77 1572.77 1269.77 Q1566.77 1269.77 1563.6 1265.19 Q1560.43 1260.58 1560.43 1251.85 Q1560.43 1243.66 1564.32 1238.8 Q1568.21 1233.91 1574.76 1233.91 Q1576.52 1233.91 1578.3 1234.26 Q1580.1 1234.61 1582.05 1235.3 Z" fill="#000000" fill-rule="evenodd" fill-opacity="1" /><path clip-path="url(#clip370)" d="M962.233 1327.02 Q962.233 1328.82 961.105 1329.85 Q959.978 1330.85 958.69 1330.85 Q957.466 1330.85 956.822 1330.14 Q956.178 1329.43 956.178 1328.53 Q956.178 1327.31 957.08 1326.24 Q957.981 1325.18 959.334 1324.95 Q958.014 1324.12 956.049 1324.12 Q954.761 1324.12 953.634 1324.79 Q952.539 1325.47 951.862 1326.34 Q951.218 1327.21 950.638 1328.46 Q950.091 1329.69 949.866 1330.43 Q949.672 1331.14 949.511 1331.91 L947.257 1340.93 Q946.162 1345.21 946.162 1346.73 Q946.162 1348.59 947.064 1349.85 Q947.965 1351.07 949.769 1351.07 Q950.477 1351.07 951.283 1350.88 Q952.088 1350.65 953.118 1350.07 Q954.181 1349.46 955.115 1348.56 Q956.081 1347.63 957.015 1346.05 Q957.949 1344.47 958.561 1342.44 Q958.754 1341.73 959.398 1341.73 Q960.204 1341.73 960.204 1342.38 Q960.204 1342.93 959.753 1344.08 Q959.334 1345.21 958.4 1346.69 Q957.498 1348.14 956.307 1349.46 Q955.115 1350.75 953.344 1351.65 Q951.572 1352.55 949.64 1352.55 Q946.87 1352.55 945.035 1351.07 Q943.199 1349.59 942.523 1347.53 Q942.362 1347.82 942.136 1348.21 Q941.911 1348.59 941.234 1349.46 Q940.59 1350.3 939.85 1350.94 Q939.109 1351.56 937.949 1352.04 Q936.822 1352.55 935.598 1352.55 Q934.052 1352.55 932.668 1352.1 Q931.315 1351.65 930.349 1350.62 Q929.383 1349.59 929.383 1348.17 Q929.383 1346.6 930.445 1345.5 Q931.54 1344.37 933.022 1344.37 Q933.956 1344.37 934.697 1344.92 Q935.47 1345.47 935.47 1346.66 Q935.47 1347.98 934.568 1348.98 Q933.666 1349.98 932.378 1350.24 Q933.698 1351.07 935.663 1351.07 Q937.788 1351.07 939.463 1349.21 Q941.138 1347.34 941.943 1344.21 Q943.94 1336.71 944.713 1333.36 Q945.486 1329.98 945.486 1328.53 Q945.486 1327.18 945.131 1326.24 Q944.777 1325.31 944.165 1324.89 Q943.585 1324.44 943.038 1324.28 Q942.523 1324.12 941.943 1324.12 Q940.977 1324.12 939.882 1324.5 Q938.819 1324.89 937.531 1325.79 Q936.275 1326.66 935.083 1328.46 Q933.891 1330.27 933.086 1332.75 Q932.925 1333.49 932.217 1333.49 Q931.444 1333.46 931.444 1332.81 Q931.444 1332.26 931.862 1331.14 Q932.313 1329.98 933.215 1328.53 Q934.149 1327.08 935.341 1325.79 Q936.565 1324.47 938.336 1323.57 Q940.139 1322.67 942.072 1322.67 Q942.941 1322.67 943.779 1322.86 Q944.648 1323.02 945.679 1323.5 Q946.742 1323.99 947.676 1325.05 Q948.61 1326.11 949.189 1327.66 Q949.576 1326.92 950.091 1326.21 Q950.638 1325.5 951.476 1324.63 Q952.345 1323.73 953.537 1323.22 Q954.761 1322.67 956.113 1322.67 Q957.434 1322.67 958.722 1323.02 Q960.01 1323.34 961.105 1324.41 Q962.233 1325.44 962.233 1327.02 Z" fill="#000000" fill-rule="evenodd" fill-opacity="1" /><path clip-path="url(#clip370)" d="M984.159 1368.3 L984.159 1302.35 L994.11 1302.35 L994.11 1303.86 L988.571 1303.86 L988.571 1366.79 L994.11 1366.79 L994.11 1368.3 L984.159 1368.3 Z" fill="#000000" fill-rule="evenodd" fill-opacity="1" /><path clip-path="url(#clip370)" d="M1002.31 1351.81 L1002.31 1349.78 Q1005.82 1349.78 1006.62 1349.37 Q1007.43 1348.92 1007.43 1346.79 L1007.43 1329.11 Q1007.43 1326.66 1006.56 1326.05 Q1005.72 1325.44 1002.31 1325.44 L1002.31 1323.38 L1011.58 1322.67 L1011.58 1329.59 Q1014.67 1322.67 1021.34 1322.67 Q1029.07 1322.67 1030.13 1329.11 Q1031.26 1326.6 1033.61 1324.63 Q1035.99 1322.67 1039.7 1322.67 Q1044.66 1322.67 1046.62 1325.12 Q1048.07 1326.76 1048.36 1328.59 Q1048.65 1330.43 1048.65 1335.2 L1048.65 1347.79 Q1048.72 1349.17 1049.78 1349.5 Q1050.84 1349.78 1053.8 1349.78 L1053.8 1351.81 Q1047.07 1351.62 1046.43 1351.62 Q1045.91 1351.62 1038.96 1351.81 L1038.96 1349.78 Q1042.47 1349.78 1043.27 1349.37 Q1044.11 1348.92 1044.11 1346.79 L1044.11 1331.43 Q1044.11 1328.08 1043.08 1326.11 Q1042.05 1324.12 1039.21 1324.12 Q1035.8 1324.12 1033.06 1326.98 Q1030.33 1329.85 1030.33 1334.68 L1030.33 1346.79 Q1030.33 1348.92 1031.13 1349.37 Q1031.97 1349.78 1035.48 1349.78 L1035.48 1351.81 Q1028.75 1351.62 1028.07 1351.62 Q1027.56 1351.62 1020.63 1351.81 L1020.63 1349.78 Q1024.14 1349.78 1024.95 1349.37 Q1025.78 1348.92 1025.78 1346.79 L1025.78 1331.43 Q1025.78 1328.08 1024.75 1326.11 Q1023.72 1324.12 1020.89 1324.12 Q1017.48 1324.12 1014.74 1326.98 Q1012 1329.85 1012 1334.68 L1012 1346.79 Q1012 1348.92 1012.81 1349.37 Q1013.64 1349.78 1017.12 1349.78 L1017.12 1351.81 Q1010.39 1351.62 1009.75 1351.62 Q1009.23 1351.62 1002.31 1351.81 Z" fill="#000000" fill-rule="evenodd" fill-opacity="1" /><path clip-path="url(#clip370)" d="M1056.69 1366.79 L1062.23 1366.79 L1062.23 1303.86 L1056.69 1303.86 L1056.69 1302.35 L1066.64 1302.35 L1066.64 1368.3 L1056.69 1368.3 L1056.69 1366.79 Z" fill="#000000" fill-rule="evenodd" fill-opacity="1" /><polyline clip-path="url(#clip372)" style="stroke:#000000; stroke-linecap:butt; stroke-linejoin:round; stroke-width:2; stroke-opacity:0.1; fill:none" points="
  251.462,1211.5 1752.76,1211.5 
  "/>
<polyline clip-path="url(#clip372)" style="stroke:#000000; stroke-linecap:butt; stroke-linejoin:round; stroke-width:2; stroke-opacity:0.1; fill:none" points="
  251.462,916.202 1752.76,916.202 
  "/>
<polyline clip-path="url(#clip372)" style="stroke:#000000; stroke-linecap:butt; stroke-linejoin:round; stroke-width:2; stroke-opacity:0.1; fill:none" points="
  251.462,620.904 1752.76,620.904 
  "/>
<polyline clip-path="url(#clip372)" style="stroke:#000000; stroke-linecap:butt; stroke-linejoin:round; stroke-width:2; stroke-opacity:0.1; fill:none" points="
  251.462,325.605 1752.76,325.605 
  "/>
<polyline clip-path="url(#clip370)" style="stroke:#000000; stroke-linecap:butt; stroke-linejoin:round; stroke-width:4; stroke-opacity:1; fill:none" points="
  251.462,1211.5 251.462,47.2441 
  "/>
<polyline clip-path="url(#clip370)" style="stroke:#000000; stroke-linecap:butt; stroke-linejoin:round; stroke-width:4; stroke-opacity:1; fill:none" points="
  251.462,1211.5 270.36,1211.5 
  "/>
<polyline clip-path="url(#clip370)" style="stroke:#000000; stroke-linecap:butt; stroke-linejoin:round; stroke-width:4; stroke-opacity:1; fill:none" points="
  251.462,916.202 270.36,916.202 
  "/>
<polyline clip-path="url(#clip370)" style="stroke:#000000; stroke-linecap:butt; stroke-linejoin:round; stroke-width:4; stroke-opacity:1; fill:none" points="
  251.462,620.904 270.36,620.904 
  "/>
<polyline clip-path="url(#clip370)" style="stroke:#000000; stroke-linecap:butt; stroke-linejoin:round; stroke-width:4; stroke-opacity:1; fill:none" points="
  251.462,325.605 270.36,325.605 
  "/>
<path clip-path="url(#clip370)" d="M137.125 1197.3 Q133.513 1197.3 131.685 1200.86 Q129.879 1204.4 129.879 1211.53 Q129.879 1218.64 131.685 1222.21 Q133.513 1225.75 137.125 1225.75 Q140.759 1225.75 142.564 1222.21 Q144.393 1218.64 144.393 1211.53 Q144.393 1204.4 142.564 1200.86 Q140.759 1197.3 137.125 1197.3 M137.125 1193.59 Q142.935 1193.59 145.99 1198.2 Q149.069 1202.78 149.069 1211.53 Q149.069 1220.26 145.99 1224.87 Q142.935 1229.45 137.125 1229.45 Q131.314 1229.45 128.236 1224.87 Q125.18 1220.26 125.18 1211.53 Q125.18 1202.78 128.236 1198.2 Q131.314 1193.59 137.125 1193.59 Z" fill="#000000" fill-rule="evenodd" fill-opacity="1" /><path clip-path="url(#clip370)" d="M157.286 1222.9 L162.171 1222.9 L162.171 1228.78 L157.286 1228.78 L157.286 1222.9 Z" fill="#000000" fill-rule="evenodd" fill-opacity="1" /><path clip-path="url(#clip370)" d="M182.356 1197.3 Q178.745 1197.3 176.916 1200.86 Q175.11 1204.4 175.11 1211.53 Q175.11 1218.64 176.916 1222.21 Q178.745 1225.75 182.356 1225.75 Q185.99 1225.75 187.796 1222.21 Q189.624 1218.64 189.624 1211.53 Q189.624 1204.4 187.796 1200.86 Q185.99 1197.3 182.356 1197.3 M182.356 1193.59 Q188.166 1193.59 191.221 1198.2 Q194.3 1202.78 194.3 1211.53 Q194.3 1220.26 191.221 1224.87 Q188.166 1229.45 182.356 1229.45 Q176.546 1229.45 173.467 1224.87 Q170.411 1220.26 170.411 1211.53 Q170.411 1202.78 173.467 1198.2 Q176.546 1193.59 182.356 1193.59 Z" fill="#000000" fill-rule="evenodd" fill-opacity="1" /><path clip-path="url(#clip370)" d="M212.518 1197.3 Q208.907 1197.3 207.078 1200.86 Q205.272 1204.4 205.272 1211.53 Q205.272 1218.64 207.078 1222.21 Q208.907 1225.75 212.518 1225.75 Q216.152 1225.75 217.957 1222.21 Q219.786 1218.64 219.786 1211.53 Q219.786 1204.4 217.957 1200.86 Q216.152 1197.3 212.518 1197.3 M212.518 1193.59 Q218.328 1193.59 221.383 1198.2 Q224.462 1202.78 224.462 1211.53 Q224.462 1220.26 221.383 1224.87 Q218.328 1229.45 212.518 1229.45 Q206.707 1229.45 203.629 1224.87 Q200.573 1220.26 200.573 1211.53 Q200.573 1202.78 203.629 1198.2 Q206.707 1193.59 212.518 1193.59 Z" fill="#000000" fill-rule="evenodd" fill-opacity="1" /><path clip-path="url(#clip370)" d="M138.351 902 Q134.74 902 132.912 905.565 Q131.106 909.107 131.106 916.236 Q131.106 923.343 132.912 926.908 Q134.74 930.449 138.351 930.449 Q141.986 930.449 143.791 926.908 Q145.62 923.343 145.62 916.236 Q145.62 909.107 143.791 905.565 Q141.986 902 138.351 902 M138.351 898.297 Q144.162 898.297 147.217 902.903 Q150.296 907.486 150.296 916.236 Q150.296 924.963 147.217 929.57 Q144.162 934.153 138.351 934.153 Q132.541 934.153 129.463 929.57 Q126.407 924.963 126.407 916.236 Q126.407 907.486 129.463 902.903 Q132.541 898.297 138.351 898.297 Z" fill="#000000" fill-rule="evenodd" fill-opacity="1" /><path clip-path="url(#clip370)" d="M158.513 927.602 L163.398 927.602 L163.398 933.482 L158.513 933.482 L158.513 927.602 Z" fill="#000000" fill-rule="evenodd" fill-opacity="1" /><path clip-path="url(#clip370)" d="M183.583 902 Q179.972 902 178.143 905.565 Q176.337 909.107 176.337 916.236 Q176.337 923.343 178.143 926.908 Q179.972 930.449 183.583 930.449 Q187.217 930.449 189.022 926.908 Q190.851 923.343 190.851 916.236 Q190.851 909.107 189.022 905.565 Q187.217 902 183.583 902 M183.583 898.297 Q189.393 898.297 192.448 902.903 Q195.527 907.486 195.527 916.236 Q195.527 924.963 192.448 929.57 Q189.393 934.153 183.583 934.153 Q177.772 934.153 174.694 929.57 Q171.638 924.963 171.638 916.236 Q171.638 907.486 174.694 902.903 Q177.772 898.297 183.583 898.297 Z" fill="#000000" fill-rule="evenodd" fill-opacity="1" /><path clip-path="url(#clip370)" d="M204.555 929.547 L212.194 929.547 L212.194 903.181 L203.883 904.848 L203.883 900.588 L212.147 898.922 L216.823 898.922 L216.823 929.547 L224.462 929.547 L224.462 933.482 L204.555 933.482 L204.555 929.547 Z" fill="#000000" fill-rule="evenodd" fill-opacity="1" /><path clip-path="url(#clip370)" d="M138.722 606.702 Q135.111 606.702 133.282 610.267 Q131.476 613.809 131.476 620.938 Q131.476 628.045 133.282 631.61 Q135.111 635.151 138.722 635.151 Q142.356 635.151 144.162 631.61 Q145.99 628.045 145.99 620.938 Q145.99 613.809 144.162 610.267 Q142.356 606.702 138.722 606.702 M138.722 602.999 Q144.532 602.999 147.587 607.605 Q150.666 612.188 150.666 620.938 Q150.666 629.665 147.587 634.272 Q144.532 638.855 138.722 638.855 Q132.912 638.855 129.833 634.272 Q126.777 629.665 126.777 620.938 Q126.777 612.188 129.833 607.605 Q132.912 602.999 138.722 602.999 Z" fill="#000000" fill-rule="evenodd" fill-opacity="1" /><path clip-path="url(#clip370)" d="M158.884 632.304 L163.768 632.304 L163.768 638.184 L158.884 638.184 L158.884 632.304 Z" fill="#000000" fill-rule="evenodd" fill-opacity="1" /><path clip-path="url(#clip370)" d="M183.953 606.702 Q180.342 606.702 178.513 610.267 Q176.708 613.809 176.708 620.938 Q176.708 628.045 178.513 631.61 Q180.342 635.151 183.953 635.151 Q187.587 635.151 189.393 631.61 Q191.221 628.045 191.221 620.938 Q191.221 613.809 189.393 610.267 Q187.587 606.702 183.953 606.702 M183.953 602.999 Q189.763 602.999 192.819 607.605 Q195.897 612.188 195.897 620.938 Q195.897 629.665 192.819 634.272 Q189.763 638.855 183.953 638.855 Q178.143 638.855 175.064 634.272 Q172.009 629.665 172.009 620.938 Q172.009 612.188 175.064 607.605 Q178.143 602.999 183.953 602.999 Z" fill="#000000" fill-rule="evenodd" fill-opacity="1" /><path clip-path="url(#clip370)" d="M208.143 634.248 L224.462 634.248 L224.462 638.184 L202.518 638.184 L202.518 634.248 Q205.18 631.494 209.763 626.864 Q214.369 622.211 215.55 620.869 Q217.795 618.346 218.675 616.61 Q219.578 614.85 219.578 613.161 Q219.578 610.406 217.633 608.67 Q215.712 606.934 212.61 606.934 Q210.411 606.934 207.957 607.698 Q205.527 608.461 202.749 610.012 L202.749 605.29 Q205.573 604.156 208.027 603.577 Q210.481 602.999 212.518 602.999 Q217.888 602.999 221.082 605.684 Q224.277 608.369 224.277 612.86 Q224.277 614.989 223.467 616.911 Q222.68 618.809 220.573 621.401 Q219.994 622.073 216.893 625.29 Q213.791 628.485 208.143 634.248 Z" fill="#000000" fill-rule="evenodd" fill-opacity="1" /><path clip-path="url(#clip370)" d="M137.773 311.404 Q134.162 311.404 132.333 314.969 Q130.527 318.511 130.527 325.64 Q130.527 332.747 132.333 336.311 Q134.162 339.853 137.773 339.853 Q141.407 339.853 143.212 336.311 Q145.041 332.747 145.041 325.64 Q145.041 318.511 143.212 314.969 Q141.407 311.404 137.773 311.404 M137.773 307.7 Q143.583 307.7 146.638 312.307 Q149.717 316.89 149.717 325.64 Q149.717 334.367 146.638 338.973 Q143.583 343.557 137.773 343.557 Q131.963 343.557 128.884 338.973 Q125.828 334.367 125.828 325.64 Q125.828 316.89 128.884 312.307 Q131.963 307.7 137.773 307.7 Z" fill="#000000" fill-rule="evenodd" fill-opacity="1" /><path clip-path="url(#clip370)" d="M157.935 337.006 L162.819 337.006 L162.819 342.885 L157.935 342.885 L157.935 337.006 Z" fill="#000000" fill-rule="evenodd" fill-opacity="1" /><path clip-path="url(#clip370)" d="M183.004 311.404 Q179.393 311.404 177.564 314.969 Q175.759 318.511 175.759 325.64 Q175.759 332.747 177.564 336.311 Q179.393 339.853 183.004 339.853 Q186.638 339.853 188.444 336.311 Q190.272 332.747 190.272 325.64 Q190.272 318.511 188.444 314.969 Q186.638 311.404 183.004 311.404 M183.004 307.7 Q188.814 307.7 191.87 312.307 Q194.948 316.89 194.948 325.64 Q194.948 334.367 191.87 338.973 Q188.814 343.557 183.004 343.557 Q177.194 343.557 174.115 338.973 Q171.06 334.367 171.06 325.64 Q171.06 316.89 174.115 312.307 Q177.194 307.7 183.004 307.7 Z" fill="#000000" fill-rule="evenodd" fill-opacity="1" /><path clip-path="url(#clip370)" d="M217.332 324.251 Q220.689 324.969 222.564 327.237 Q224.462 329.506 224.462 332.839 Q224.462 337.955 220.944 340.756 Q217.425 343.557 210.944 343.557 Q208.768 343.557 206.453 343.117 Q204.161 342.7 201.708 341.844 L201.708 337.33 Q203.652 338.464 205.967 339.043 Q208.282 339.622 210.805 339.622 Q215.203 339.622 217.494 337.885 Q219.809 336.149 219.809 332.839 Q219.809 329.784 217.657 328.071 Q215.527 326.335 211.707 326.335 L207.68 326.335 L207.68 322.492 L211.893 322.492 Q215.342 322.492 217.17 321.126 Q218.999 319.737 218.999 317.145 Q218.999 314.483 217.101 313.071 Q215.226 311.636 211.707 311.636 Q209.786 311.636 207.587 312.052 Q205.388 312.469 202.749 313.349 L202.749 309.182 Q205.411 308.441 207.726 308.071 Q210.064 307.7 212.124 307.7 Q217.448 307.7 220.55 310.131 Q223.652 312.538 223.652 316.659 Q223.652 319.529 222.008 321.52 Q220.365 323.487 217.332 324.251 Z" fill="#000000" fill-rule="evenodd" fill-opacity="1" /><path clip-path="url(#clip370)" d="M60.6772 660.615 Q61.579 660.615 61.8044 661.034 Q61.9976 661.452 61.9976 662.612 L61.9976 668.795 L81.45 673.69 Q83.1569 674.077 84.6061 674.077 Q86.2164 674.077 86.925 673.594 Q87.6335 673.079 87.6335 672.016 Q87.6335 669.922 85.7334 667.668 Q83.8332 665.381 79.1956 663.449 Q78.5837 663.191 78.4548 663.063 Q78.2938 662.902 78.2938 662.483 Q78.2938 661.678 78.9379 661.678 Q79.1634 661.678 80.1939 662.129 Q81.2245 662.547 82.7382 663.481 Q84.2519 664.383 85.6689 665.575 Q87.086 666.734 88.1166 668.505 Q89.115 670.277 89.115 672.177 Q89.115 674.85 87.4081 676.557 Q85.7011 678.232 83.0281 678.232 Q82.1585 678.232 79.3888 677.555 Q76.5869 676.879 61.9976 673.207 L61.9976 679.037 Q61.9976 679.842 61.9654 680.164 Q61.9332 680.454 61.7722 680.679 Q61.579 680.872 61.1925 680.872 Q60.5806 680.872 60.3229 680.615 Q60.0331 680.357 60.0009 680.035 Q59.9365 679.681 59.9365 678.876 L59.9365 672.692 L49.4696 670.116 Q48.439 669.858 47.8593 669.214 Q47.2474 668.538 47.1829 668.151 Q47.0863 667.765 47.0863 667.475 Q47.0863 666.605 47.5694 666.09 Q48.0203 665.575 48.8576 665.575 Q49.3085 665.575 59.9365 668.28 L59.9365 662.483 Q59.9365 661.742 59.9687 661.452 Q60.0009 661.13 60.1619 660.873 Q60.3229 660.615 60.6772 660.615 Z" fill="#000000" fill-rule="evenodd" fill-opacity="1" /><path clip-path="url(#clip370)" d="M104.864 639.875 L38.906 639.875 L38.906 629.923 L40.4197 629.923 L40.4197 635.463 L103.35 635.463 L103.35 629.923 L104.864 629.923 L104.864 639.875 Z" fill="#000000" fill-rule="evenodd" fill-opacity="1" /><path clip-path="url(#clip370)" d="M87.5047 621.727 L78.8091 621.727 Q78.0684 621.727 77.8107 621.695 Q77.5531 621.662 77.3598 621.469 Q77.1666 621.276 77.1666 620.889 Q77.1666 620.438 77.3598 620.277 Q77.5531 620.084 78.2938 619.955 Q82.8348 618.957 85.2503 616.831 Q87.6335 614.674 87.6335 610.777 Q87.6335 607.073 85.991 605.205 Q84.3485 603.337 81.6432 603.337 Q76.8123 603.337 75.5885 610.197 Q74.7834 614.158 74.2681 615.801 Q73.7206 617.443 72.529 618.893 Q70.2101 621.727 66.9251 621.727 Q63.6401 621.727 61.2247 619.247 Q58.8093 616.735 58.8093 611.195 Q58.8093 607.492 60.6772 604.98 Q60.0975 604.239 59.6144 603.852 Q58.8093 602.983 58.8093 602.532 Q58.8093 602.017 59.1635 601.92 Q59.4856 601.824 60.4195 601.824 L67.054 601.824 Q67.7947 601.824 68.0523 601.856 Q68.31 601.888 68.5032 602.081 Q68.6642 602.274 68.6642 602.693 Q68.6642 603.434 68.0523 603.466 Q60.0653 603.981 60.0653 611.195 Q60.0653 615.092 61.579 616.831 Q63.0604 618.571 65.0894 618.571 Q66.2166 618.571 67.0862 618.055 Q67.9235 617.508 68.4388 616.831 Q68.9219 616.123 69.405 614.835 Q69.8559 613.546 70.0169 612.774 Q70.1779 611.968 70.5 610.455 Q71.4984 605.173 73.6562 602.951 Q76.4259 600.181 79.9363 600.181 Q83.8332 600.181 86.4741 602.822 Q89.115 605.463 89.115 610.777 Q89.115 615.06 86.2486 618.055 Q86.6351 618.442 86.9894 618.732 Q87.3114 619.021 87.4403 619.15 Q87.5691 619.247 87.6657 619.279 Q87.7301 619.311 87.7945 619.376 Q89.115 620.696 89.115 621.018 Q89.115 621.533 88.7607 621.63 Q88.4386 621.727 87.5047 621.727 Z" fill="#000000" fill-rule="evenodd" fill-opacity="1" /><path clip-path="url(#clip370)" d="M103.35 596.02 L103.35 590.48 L40.4197 590.48 L40.4197 596.02 L38.906 596.02 L38.906 586.068 L104.864 586.068 L104.864 596.02 L103.35 596.02 Z" fill="#000000" fill-rule="evenodd" fill-opacity="1" /><polyline clip-path="url(#clip372)" style="stroke:#ff0000; stroke-linecap:butt; stroke-linejoin:round; stroke-width:4; stroke-opacity:1; fill:none" points="
  581.687,2375.76 581.687,-1117.01 
  "/>
<polyline clip-path="url(#clip372)" style="stroke:#808080; stroke-linecap:butt; stroke-linejoin:round; stroke-width:4; stroke-opacity:1; fill:none" points="
  1629.89,2375.76 1629.89,-1117.01 
  "/>
<polyline clip-path="url(#clip372)" style="stroke:#808080; stroke-linecap:butt; stroke-linejoin:round; stroke-width:4; stroke-opacity:1; fill:none" points="
  1667.63,2375.76 1667.63,-1117.01 
  "/>
<circle clip-path="url(#clip372)" cx="665.302" cy="974.11" r="14" fill="#3da44d" fill-rule="evenodd" fill-opacity="1" stroke="#000000" stroke-opacity="1" stroke-width="2.8"/>
<circle clip-path="url(#clip372)" cx="806.583" cy="936.193" r="14" fill="#3da44d" fill-rule="evenodd" fill-opacity="1" stroke="#000000" stroke-opacity="1" stroke-width="2.8"/>
<circle clip-path="url(#clip372)" cx="885.742" cy="916.113" r="14" fill="#3da44d" fill-rule="evenodd" fill-opacity="1" stroke="#000000" stroke-opacity="1" stroke-width="2.8"/>
<circle clip-path="url(#clip372)" cx="920.865" cy="907.136" r="14" fill="#3da44d" fill-rule="evenodd" fill-opacity="1" stroke="#000000" stroke-opacity="1" stroke-width="2.8"/>
<circle clip-path="url(#clip372)" cx="968.046" cy="895.678" r="14" fill="#3da44d" fill-rule="evenodd" fill-opacity="1" stroke="#000000" stroke-opacity="1" stroke-width="2.8"/>
<circle clip-path="url(#clip372)" cx="1216.53" cy="833.607" r="14" fill="#3da44d" fill-rule="evenodd" fill-opacity="1" stroke="#000000" stroke-opacity="1" stroke-width="2.8"/>
<circle clip-path="url(#clip372)" cx="1324.52" cy="806.617" r="14" fill="#3da44d" fill-rule="evenodd" fill-opacity="1" stroke="#000000" stroke-opacity="1" stroke-width="2.8"/>
<circle clip-path="url(#clip372)" cx="1424.13" cy="779.272" r="14" fill="#3da44d" fill-rule="evenodd" fill-opacity="1" stroke="#000000" stroke-opacity="1" stroke-width="2.8"/>
<circle clip-path="url(#clip372)" cx="1477.6" cy="767.992" r="14" fill="#3da44d" fill-rule="evenodd" fill-opacity="1" stroke="#000000" stroke-opacity="1" stroke-width="2.8"/>
<circle clip-path="url(#clip372)" cx="1569.6" cy="745.047" r="14" fill="#3da44d" fill-rule="evenodd" fill-opacity="1" stroke="#000000" stroke-opacity="1" stroke-width="2.8"/>
<circle clip-path="url(#clip372)" cx="1656.1" cy="723.224" r="14" fill="#3da44d" fill-rule="evenodd" fill-opacity="1" stroke="#000000" stroke-opacity="1" stroke-width="2.8"/>
<circle clip-path="url(#clip372)" cx="1696.99" cy="713.007" r="14" fill="#3da44d" fill-rule="evenodd" fill-opacity="1" stroke="#000000" stroke-opacity="1" stroke-width="2.8"/>
<circle clip-path="url(#clip372)" cx="806.583" cy="102.685" r="14" fill="#c271d2" fill-rule="evenodd" fill-opacity="1" stroke="#000000" stroke-opacity="1" stroke-width="2.8"/>
<circle clip-path="url(#clip372)" cx="885.742" cy="147.541" r="14" fill="#c271d2" fill-rule="evenodd" fill-opacity="1" stroke="#000000" stroke-opacity="1" stroke-width="2.8"/>
<circle clip-path="url(#clip372)" cx="920.865" cy="167.562" r="14" fill="#c271d2" fill-rule="evenodd" fill-opacity="1" stroke="#000000" stroke-opacity="1" stroke-width="2.8"/>
<circle clip-path="url(#clip372)" cx="968.046" cy="195.32" r="14" fill="#c271d2" fill-rule="evenodd" fill-opacity="1" stroke="#000000" stroke-opacity="1" stroke-width="2.8"/>
<circle clip-path="url(#clip372)" cx="1216.53" cy="363.906" r="14" fill="#c271d2" fill-rule="evenodd" fill-opacity="1" stroke="#000000" stroke-opacity="1" stroke-width="2.8"/>
<circle clip-path="url(#clip372)" cx="1324.52" cy="441.008" r="14" fill="#c271d2" fill-rule="evenodd" fill-opacity="1" stroke="#000000" stroke-opacity="1" stroke-width="2.8"/>
<circle clip-path="url(#clip372)" cx="1424.13" cy="555.2" r="14" fill="#c271d2" fill-rule="evenodd" fill-opacity="1" stroke="#000000" stroke-opacity="1" stroke-width="2.8"/>
<circle clip-path="url(#clip372)" cx="1477.6" cy="606.198" r="14" fill="#c271d2" fill-rule="evenodd" fill-opacity="1" stroke="#000000" stroke-opacity="1" stroke-width="2.8"/>
<circle clip-path="url(#clip372)" cx="1569.6" cy="657.402" r="14" fill="#c271d2" fill-rule="evenodd" fill-opacity="1" stroke="#000000" stroke-opacity="1" stroke-width="2.8"/>
<circle clip-path="url(#clip372)" cx="1656.1" cy="695.201" r="14" fill="#c271d2" fill-rule="evenodd" fill-opacity="1" stroke="#000000" stroke-opacity="1" stroke-width="2.8"/>
<circle clip-path="url(#clip372)" cx="1696.99" cy="712.978" r="14" fill="#c271d2" fill-rule="evenodd" fill-opacity="1" stroke="#000000" stroke-opacity="1" stroke-width="2.8"/>
<polyline clip-path="url(#clip372)" style="stroke:#0000ff; stroke-linecap:butt; stroke-linejoin:round; stroke-width:4; stroke-opacity:1; fill:none" points="
  1741.03,904.301 1696.99,884.365 
  "/>
<polyline clip-path="url(#clip372)" style="stroke:#0000ff; stroke-linecap:butt; stroke-linejoin:round; stroke-width:4; stroke-opacity:1; fill:none" points="
  1716.02,907.799 1696.99,884.365 1727.16,883.202 
  "/>
<polyline clip-path="url(#clip372)" style="stroke:#0000ff; stroke-linecap:butt; stroke-linejoin:round; stroke-width:4; stroke-opacity:1; fill:none" points="
  1696.99,884.365 1741.03,904.301 
  "/>
<polyline clip-path="url(#clip372)" style="stroke:#0000ff; stroke-linecap:butt; stroke-linejoin:round; stroke-width:4; stroke-opacity:1; fill:none" points="
  1696.99,884.365 1616.92,732.692 
  "/>
<polyline clip-path="url(#clip372)" style="stroke:#0000ff; stroke-linecap:butt; stroke-linejoin:round; stroke-width:4; stroke-opacity:1; fill:none" points="
  1617.58,762.871 1616.92,732.692 1641.46,750.266 
  "/>
<polyline clip-path="url(#clip372)" style="stroke:#0000ff; stroke-linecap:butt; stroke-linejoin:round; stroke-width:4; stroke-opacity:1; fill:none" points="
  1616.92,732.692 1696.99,884.365 
  "/>
<polyline clip-path="url(#clip372)" style="stroke:#0000ff; stroke-linecap:butt; stroke-linejoin:round; stroke-width:4; stroke-opacity:1; fill:none" points="
  1616.87,732.692 1696.99,695.707 
  "/>
<polyline clip-path="url(#clip372)" style="stroke:#0000ff; stroke-linecap:butt; stroke-linejoin:round; stroke-width:4; stroke-opacity:1; fill:none" points="
  1666.82,694.766 1696.99,695.707 1678.13,719.28 
  "/>
<polyline clip-path="url(#clip372)" style="stroke:#0000ff; stroke-linecap:butt; stroke-linejoin:round; stroke-width:4; stroke-opacity:1; fill:none" points="
  1696.99,695.707 1616.87,732.692 
  "/>
<path clip-path="url(#clip372)" d="
M-1249.83 827.612 L3254.05 827.612 L3254.05 532.314 L-1249.83 532.314 L-1249.83 827.612  Z
  " fill="#ed5d92" fill-rule="evenodd" fill-opacity="0.3"/>
<polyline clip-path="url(#clip372)" style="stroke:#000000; stroke-linecap:butt; stroke-linejoin:round; stroke-width:0; stroke-opacity:0.3; fill:none" points="
  -1249.83,827.612 3254.05,827.612 3254.05,532.314 -1249.83,532.314 -1249.83,827.612 
  "/>
<path clip-path="url(#clip372)" d="
M1629.89 2375.76 L1629.89 -1117.01 L1667.63 -1117.01 L1667.63 2375.76 L1629.89 2375.76  Z
  " fill="#808080" fill-rule="evenodd" fill-opacity="0.3"/>
<polyline clip-path="url(#clip372)" style="stroke:#000000; stroke-linecap:butt; stroke-linejoin:round; stroke-width:0; stroke-opacity:0.3; fill:none" points="
  1629.89,2375.76 1629.89,-1117.01 1667.63,-1117.01 1667.63,2375.76 1629.89,2375.76 
  "/>
<path clip-path="url(#clip370)" d="
M301.505 448.933 L794.402 448.933 L794.402 86.0526 L301.505 86.0526  Z
  " fill="#ffffff" fill-rule="evenodd" fill-opacity="1"/>
<polyline clip-path="url(#clip370)" style="stroke:#000000; stroke-linecap:butt; stroke-linejoin:round; stroke-width:4; stroke-opacity:1; fill:none" points="
  301.505,448.933 794.402,448.933 794.402,86.0526 301.505,86.0526 301.505,448.933 
  "/>
<polyline clip-path="url(#clip370)" style="stroke:#ff0000; stroke-linecap:butt; stroke-linejoin:round; stroke-width:4; stroke-opacity:1; fill:none" points="
  318.186,137.893 418.272,137.893 
  "/>
<path clip-path="url(#clip370)" d="M439.629 124.455 L439.629 151.33 L445.278 151.33 Q452.43 151.33 455.74 148.089 Q459.074 144.849 459.074 137.858 Q459.074 130.913 455.74 127.696 Q452.43 124.455 445.278 124.455 L439.629 124.455 M434.954 120.613 L444.56 120.613 Q454.606 120.613 459.305 124.802 Q464.004 128.969 464.004 137.858 Q464.004 146.793 459.282 150.983 Q454.56 155.173 444.56 155.173 L434.954 155.173 L434.954 120.613 Z" fill="#000000" fill-rule="evenodd" fill-opacity="1" /><path clip-path="url(#clip370)" d="M471.273 129.247 L475.532 129.247 L475.532 155.173 L471.273 155.173 L471.273 129.247 M471.273 119.154 L475.532 119.154 L475.532 124.548 L471.273 124.548 L471.273 119.154 Z" fill="#000000" fill-rule="evenodd" fill-opacity="1" /><path clip-path="url(#clip370)" d="M496.226 142.14 Q491.064 142.14 489.074 143.321 Q487.083 144.501 487.083 147.349 Q487.083 149.617 488.564 150.96 Q490.069 152.279 492.638 152.279 Q496.18 152.279 498.31 149.779 Q500.462 147.256 500.462 143.089 L500.462 142.14 L496.226 142.14 M504.722 140.381 L504.722 155.173 L500.462 155.173 L500.462 151.237 Q499.004 153.599 496.828 154.733 Q494.652 155.844 491.504 155.844 Q487.523 155.844 485.162 153.622 Q482.824 151.376 482.824 147.626 Q482.824 143.251 485.74 141.029 Q488.68 138.807 494.49 138.807 L500.462 138.807 L500.462 138.39 Q500.462 135.451 498.518 133.853 Q496.597 132.233 493.101 132.233 Q490.879 132.233 488.773 132.765 Q486.666 133.298 484.722 134.363 L484.722 130.427 Q487.06 129.525 489.259 129.085 Q491.458 128.622 493.541 128.622 Q499.166 128.622 501.944 131.538 Q504.722 134.455 504.722 140.381 Z" fill="#000000" fill-rule="evenodd" fill-opacity="1" /><path clip-path="url(#clip370)" d="M517.615 151.284 L517.615 165.034 L513.333 165.034 L513.333 129.247 L517.615 129.247 L517.615 133.182 Q518.958 130.867 520.995 129.756 Q523.055 128.622 525.902 128.622 Q530.624 128.622 533.564 132.372 Q536.527 136.122 536.527 142.233 Q536.527 148.344 533.564 152.094 Q530.624 155.844 525.902 155.844 Q523.055 155.844 520.995 154.733 Q518.958 153.599 517.615 151.284 M532.106 142.233 Q532.106 137.534 530.161 134.872 Q528.24 132.187 524.86 132.187 Q521.481 132.187 519.536 134.872 Q517.615 137.534 517.615 142.233 Q517.615 146.932 519.536 149.617 Q521.481 152.279 524.86 152.279 Q528.24 152.279 530.161 149.617 Q532.106 146.932 532.106 142.233 Z" fill="#000000" fill-rule="evenodd" fill-opacity="1" /><path clip-path="url(#clip370)" d="M565.138 139.525 L565.138 155.173 L560.879 155.173 L560.879 139.663 Q560.879 135.983 559.444 134.154 Q558.008 132.326 555.138 132.326 Q551.689 132.326 549.698 134.525 Q547.708 136.724 547.708 140.52 L547.708 155.173 L543.425 155.173 L543.425 119.154 L547.708 119.154 L547.708 133.275 Q549.235 130.937 551.295 129.779 Q553.379 128.622 556.087 128.622 Q560.555 128.622 562.846 131.4 Q565.138 134.154 565.138 139.525 Z" fill="#000000" fill-rule="evenodd" fill-opacity="1" /><path clip-path="url(#clip370)" d="M588.656 133.228 Q587.939 132.812 587.082 132.626 Q586.249 132.418 585.23 132.418 Q581.619 132.418 579.675 134.779 Q577.754 137.117 577.754 141.515 L577.754 155.173 L573.471 155.173 L573.471 129.247 L577.754 129.247 L577.754 133.275 Q579.096 130.913 581.249 129.779 Q583.402 128.622 586.48 128.622 Q586.92 128.622 587.453 128.691 Q587.985 128.738 588.633 128.853 L588.656 133.228 Z" fill="#000000" fill-rule="evenodd" fill-opacity="1" /><path clip-path="url(#clip370)" d="M604.906 142.14 Q599.744 142.14 597.754 143.321 Q595.763 144.501 595.763 147.349 Q595.763 149.617 597.244 150.96 Q598.749 152.279 601.318 152.279 Q604.86 152.279 606.99 149.779 Q609.142 147.256 609.142 143.089 L609.142 142.14 L604.906 142.14 M613.402 140.381 L613.402 155.173 L609.142 155.173 L609.142 151.237 Q607.684 153.599 605.508 154.733 Q603.332 155.844 600.184 155.844 Q596.203 155.844 593.842 153.622 Q591.504 151.376 591.504 147.626 Q591.504 143.251 594.42 141.029 Q597.36 138.807 603.17 138.807 L609.142 138.807 L609.142 138.39 Q609.142 135.451 607.198 133.853 Q605.277 132.233 601.781 132.233 Q599.559 132.233 597.453 132.765 Q595.346 133.298 593.402 134.363 L593.402 130.427 Q595.74 129.525 597.939 129.085 Q600.138 128.622 602.221 128.622 Q607.846 128.622 610.624 131.538 Q613.402 134.455 613.402 140.381 Z" fill="#000000" fill-rule="evenodd" fill-opacity="1" /><path clip-path="url(#clip370)" d="M639.235 141.909 Q639.235 137.279 637.314 134.733 Q635.415 132.187 631.966 132.187 Q628.54 132.187 626.619 134.733 Q624.721 137.279 624.721 141.909 Q624.721 146.515 626.619 149.062 Q628.54 151.608 631.966 151.608 Q635.415 151.608 637.314 149.062 Q639.235 146.515 639.235 141.909 M643.494 151.955 Q643.494 158.575 640.554 161.793 Q637.614 165.034 631.55 165.034 Q629.304 165.034 627.314 164.686 Q625.323 164.362 623.448 163.668 L623.448 159.524 Q625.323 160.543 627.152 161.029 Q628.98 161.515 630.878 161.515 Q635.068 161.515 637.151 159.316 Q639.235 157.14 639.235 152.719 L639.235 150.612 Q637.915 152.904 635.855 154.038 Q633.795 155.173 630.925 155.173 Q626.156 155.173 623.24 151.538 Q620.323 147.904 620.323 141.909 Q620.323 135.89 623.24 132.256 Q626.156 128.622 630.925 128.622 Q633.795 128.622 635.855 129.756 Q637.915 130.89 639.235 133.182 L639.235 129.247 L643.494 129.247 L643.494 151.955 Z" fill="#000000" fill-rule="evenodd" fill-opacity="1" /><path clip-path="url(#clip370)" d="M672.452 134.224 Q674.049 131.353 676.272 129.988 Q678.494 128.622 681.503 128.622 Q685.554 128.622 687.753 131.469 Q689.952 134.293 689.952 139.525 L689.952 155.173 L685.67 155.173 L685.67 139.663 Q685.67 135.937 684.35 134.131 Q683.031 132.326 680.323 132.326 Q677.012 132.326 675.091 134.525 Q673.17 136.724 673.17 140.52 L673.17 155.173 L668.887 155.173 L668.887 139.663 Q668.887 135.913 667.568 134.131 Q666.249 132.326 663.494 132.326 Q660.23 132.326 658.309 134.548 Q656.388 136.747 656.388 140.52 L656.388 155.173 L652.105 155.173 L652.105 129.247 L656.388 129.247 L656.388 133.275 Q657.846 130.89 659.883 129.756 Q661.92 128.622 664.721 128.622 Q667.545 128.622 669.512 130.057 Q671.503 131.492 672.452 134.224 Z" fill="#000000" fill-rule="evenodd" fill-opacity="1" /><circle clip-path="url(#clip370)" cx="368.229" cy="189.733" r="23" fill="#3da44d" fill-rule="evenodd" fill-opacity="1" stroke="#000000" stroke-opacity="1" stroke-width="4.48"/>
<path clip-path="url(#clip370)" d="M449.686 188.378 Q449.686 189.034 449.382 189.198 Q449.077 189.339 448.234 189.339 L443.737 189.339 L440.177 203.486 Q439.896 204.727 439.896 205.781 Q439.896 206.952 440.247 207.468 Q440.622 207.983 441.395 207.983 Q442.917 207.983 444.557 206.601 Q446.22 205.219 447.625 201.846 Q447.812 201.401 447.906 201.307 Q448.023 201.19 448.328 201.19 Q448.913 201.19 448.913 201.659 Q448.913 201.823 448.585 202.572 Q448.281 203.322 447.602 204.423 Q446.946 205.523 446.079 206.554 Q445.236 207.585 443.948 208.334 Q442.659 209.06 441.278 209.06 Q439.334 209.06 438.092 207.819 Q436.874 206.578 436.874 204.633 Q436.874 204.001 437.366 201.987 Q437.858 199.949 440.528 189.339 L436.289 189.339 Q435.703 189.339 435.469 189.315 Q435.258 189.292 435.094 189.175 Q434.954 189.034 434.954 188.753 Q434.954 188.308 435.141 188.121 Q435.328 187.91 435.562 187.886 Q435.82 187.84 436.406 187.84 L440.903 187.84 L442.777 180.227 Q442.964 179.478 443.432 179.056 Q443.924 178.611 444.205 178.564 Q444.486 178.494 444.697 178.494 Q445.33 178.494 445.704 178.845 Q446.079 179.173 446.079 179.782 Q446.079 180.11 444.112 187.84 L448.328 187.84 Q448.866 187.84 449.077 187.863 Q449.311 187.886 449.499 188.004 Q449.686 188.121 449.686 188.378 Z" fill="#000000" fill-rule="evenodd" fill-opacity="1" /><path clip-path="url(#clip370)" d="M455.168 196.529 Q455.168 188.425 458.19 181.89 Q459.478 179.15 461.281 176.854 Q463.085 174.559 464.28 173.552 Q465.474 172.545 465.802 172.545 Q466.27 172.545 466.294 173.013 Q466.294 173.247 465.661 173.833 Q457.932 181.703 457.955 196.529 Q457.955 211.403 465.474 218.968 Q466.294 219.788 466.294 220.045 Q466.294 220.514 465.802 220.514 Q465.474 220.514 464.326 219.554 Q463.179 218.593 461.399 216.392 Q459.618 214.19 458.33 211.496 Q455.168 204.961 455.168 196.529 Z" fill="#000000" fill-rule="evenodd" fill-opacity="1" /><path clip-path="url(#clip370)" d="M492.121 194.983 Q492.121 198.403 490.388 201.706 Q488.678 205.008 485.984 207.046 Q483.291 209.06 480.55 209.06 Q478.911 209.06 477.81 208.17 Q476.732 207.257 476.147 205.969 Q475.702 207.561 474.741 211.379 Q473.781 215.197 473.781 215.572 Q473.781 215.783 473.828 215.876 Q473.875 215.97 474.086 216.087 Q474.296 216.228 474.812 216.274 Q475.327 216.345 476.194 216.345 Q476.639 216.345 476.803 216.345 Q476.99 216.368 477.154 216.485 Q477.341 216.602 477.341 216.86 Q477.341 217.82 476.475 217.82 Q475.702 217.82 474.109 217.75 Q472.516 217.68 471.72 217.68 Q471.041 217.68 469.682 217.75 Q468.324 217.82 467.691 217.82 Q467.059 217.82 467.059 217.258 Q467.059 216.93 467.152 216.719 Q467.223 216.532 467.41 216.438 Q467.597 216.368 467.761 216.345 Q467.902 216.345 468.183 216.345 Q469.26 216.345 469.729 216.157 Q470.197 215.993 470.361 215.642 Q470.549 215.314 470.76 214.377 L476.147 193.016 Q476.475 191.587 476.475 190.58 Q476.475 189.315 476.076 188.847 Q475.678 188.378 474.976 188.378 Q473.758 188.378 472.961 189.83 Q472.165 191.283 471.486 194.093 Q471.275 194.866 471.134 195.03 Q471.017 195.194 470.666 195.194 Q470.08 195.171 470.08 194.702 Q470.08 194.585 470.268 193.836 Q470.455 193.063 470.806 191.938 Q471.181 190.791 471.579 190.065 Q471.814 189.573 472.024 189.245 Q472.235 188.917 472.657 188.402 Q473.102 187.886 473.734 187.605 Q474.367 187.324 475.14 187.324 Q476.639 187.324 477.88 188.214 Q479.121 189.104 479.449 190.908 Q480.784 189.339 482.424 188.331 Q484.063 187.324 485.726 187.324 Q488.49 187.324 490.294 189.479 Q492.121 191.611 492.121 194.983 M488.654 192.875 Q488.654 190.744 487.834 189.573 Q487.038 188.378 485.586 188.378 Q483.782 188.378 481.698 190.205 Q479.637 191.938 479.215 193.555 L476.849 202.947 L476.709 203.72 Q476.709 203.861 476.779 204.282 Q476.873 204.68 477.13 205.336 Q477.411 205.992 477.786 206.578 Q478.184 207.14 478.887 207.561 Q479.613 207.983 480.503 207.983 Q481.932 207.983 483.478 206.718 Q485.047 205.453 486.218 203.064 Q486.944 201.518 487.788 198.192 Q488.654 194.843 488.654 192.875 Z" fill="#000000" fill-rule="evenodd" fill-opacity="1" /><path clip-path="url(#clip370)" d="M504.262 209.435 Q504.262 209.154 504.472 208.99 Q504.707 208.849 505.409 208.522 L528.832 197.771 Q530.659 196.904 531.596 196.529 Q530.635 196.155 528.832 195.288 L505.409 184.537 Q505.316 184.49 505.105 184.396 Q504.894 184.303 504.753 184.232 Q504.636 184.162 504.519 184.069 Q504.402 183.951 504.332 183.858 Q504.262 183.764 504.262 183.624 Q504.262 183.155 504.8 183.155 Q505.035 183.155 505.995 183.624 L532.603 195.756 Q532.65 195.756 532.767 195.827 Q532.907 195.897 533.001 195.991 Q533.095 196.061 533.188 196.131 Q533.282 196.201 533.329 196.295 Q533.376 196.389 533.376 196.529 Q533.329 196.951 531.994 197.583 L505.995 209.435 Q505.035 209.903 504.8 209.903 Q504.262 209.903 504.262 209.435 Z" fill="#000000" fill-rule="evenodd" fill-opacity="1" /><path clip-path="url(#clip370)" d="M554.524 200.605 L554.524 199.129 L569.257 176.62 Q569.632 176.035 570.217 176.058 Q570.756 176.058 570.873 176.269 Q570.99 176.48 570.99 177.299 L570.99 199.129 L575.792 199.129 L575.792 200.605 L570.99 200.605 L570.99 204.774 Q570.99 206.156 571.552 206.601 Q572.138 207.046 574.621 207.046 L575.628 207.046 L575.628 208.522 Q573.661 208.381 569.117 208.381 Q564.596 208.381 562.629 208.522 L562.629 207.046 L563.636 207.046 Q566.118 207.046 566.704 206.624 Q567.29 206.179 567.29 204.774 L567.29 200.605 L554.524 200.605 M555.883 199.129 L567.571 199.129 L567.571 181.234 L555.883 199.129 Z" fill="#000000" fill-rule="evenodd" fill-opacity="1" /><path clip-path="url(#clip370)" d="M579.43 202.057 Q579.43 200.628 580.25 199.949 Q581.07 199.27 582.124 199.27 Q583.225 199.27 583.998 199.996 Q584.794 200.698 584.794 201.94 Q584.794 203.275 583.857 204.024 Q582.944 204.774 581.632 204.587 Q582.78 206.507 584.888 207.374 Q587.019 208.241 588.987 208.241 Q591.048 208.241 592.711 206.46 Q594.397 204.68 594.397 200.324 Q594.397 196.623 592.945 194.492 Q591.516 192.36 588.682 192.36 L586.574 192.36 Q585.848 192.36 585.637 192.29 Q585.426 192.22 585.426 191.821 Q585.426 191.353 586.153 191.259 Q586.879 191.259 588.026 191.119 Q590.814 191.025 592.289 188.612 Q593.624 186.364 593.624 183.155 Q593.624 180.227 592.219 179.009 Q590.837 177.768 589.033 177.768 Q587.347 177.768 585.497 178.471 Q583.646 179.173 582.639 180.743 Q585.614 180.743 585.614 183.155 Q585.614 184.209 584.935 184.912 Q584.279 185.591 583.178 185.591 Q582.124 185.591 581.421 184.935 Q580.719 184.256 580.719 183.108 Q580.719 180.368 583.154 178.471 Q585.614 176.573 589.221 176.573 Q592.781 176.573 595.404 178.447 Q598.051 180.321 598.051 183.202 Q598.051 186.036 596.177 188.355 Q594.304 190.674 591.329 191.634 Q594.983 192.36 597.161 194.843 Q599.339 197.302 599.339 200.324 Q599.339 204.071 596.388 206.835 Q593.437 209.576 589.127 209.576 Q585.145 209.576 582.288 207.421 Q579.43 205.266 579.43 202.057 Z" fill="#000000" fill-rule="evenodd" fill-opacity="1" /><path clip-path="url(#clip370)" d="M609.522 216.345 Q612.075 216.345 612.661 216.017 Q613.27 215.712 613.27 214.19 L613.27 191.728 Q613.27 190.135 612.661 189.737 Q612.075 189.339 609.522 189.339 L609.522 187.84 L616.432 187.324 L616.432 190.486 Q619.313 187.324 623.154 187.324 Q627.23 187.324 630.204 190.486 Q633.179 193.648 633.179 198.169 Q633.179 202.736 630.017 205.898 Q626.855 209.06 622.475 209.06 Q620.086 209.06 618.47 207.842 Q616.877 206.601 616.572 205.687 L616.572 206.132 L616.572 214.19 Q616.572 215.736 617.181 216.04 Q617.79 216.345 620.32 216.345 L620.32 217.82 Q615.284 217.68 614.909 217.68 Q614.441 217.68 609.522 217.82 L609.522 216.345 M616.572 203.064 Q616.572 203.79 616.666 204.048 Q616.783 204.306 617.252 205.078 Q619.149 207.983 622.241 207.983 Q622.264 207.983 622.288 207.983 Q625.028 207.983 627.113 205.196 Q629.197 202.385 629.197 198.169 Q629.197 194.14 627.3 191.329 Q625.403 188.519 622.779 188.519 Q620.906 188.519 619.266 189.526 Q617.626 190.533 616.572 192.36 L616.572 203.064 Z" fill="#000000" fill-rule="evenodd" fill-opacity="1" /><path clip-path="url(#clip370)" d="M639.906 207.889 L639.906 201.565 Q639.906 201.026 639.93 200.839 Q639.953 200.652 640.094 200.511 Q640.234 200.371 640.515 200.371 Q640.843 200.371 640.96 200.511 Q641.101 200.652 641.195 201.19 Q641.921 204.493 643.466 206.25 Q645.036 207.983 647.87 207.983 Q650.563 207.983 651.922 206.788 Q653.28 205.594 653.28 203.626 Q653.28 200.113 648.292 199.223 Q645.411 198.637 644.216 198.263 Q643.021 197.864 641.967 196.998 Q639.906 195.311 639.906 192.922 Q639.906 190.533 641.71 188.776 Q643.537 187.02 647.565 187.02 Q650.259 187.02 652.086 188.378 Q652.625 187.957 652.906 187.605 Q653.538 187.02 653.866 187.02 Q654.241 187.02 654.311 187.277 Q654.381 187.512 654.381 188.191 L654.381 193.016 Q654.381 193.555 654.358 193.742 Q654.334 193.929 654.194 194.07 Q654.053 194.187 653.749 194.187 Q653.21 194.187 653.187 193.742 Q652.812 187.933 647.565 187.933 Q644.731 187.933 643.466 189.034 Q642.202 190.112 642.202 191.587 Q642.202 192.407 642.576 193.039 Q642.975 193.648 643.466 194.023 Q643.982 194.374 644.919 194.726 Q645.856 195.054 646.418 195.171 Q647.003 195.288 648.104 195.522 Q651.945 196.248 653.562 197.818 Q655.576 199.832 655.576 202.385 Q655.576 205.219 653.655 207.14 Q651.735 209.06 647.87 209.06 Q644.755 209.06 642.576 206.976 Q642.295 207.257 642.085 207.514 Q641.874 207.749 641.78 207.842 Q641.71 207.936 641.686 208.006 Q641.663 208.053 641.616 208.1 Q640.656 209.06 640.422 209.06 Q640.047 209.06 639.977 208.803 Q639.906 208.568 639.906 207.889 Z" fill="#000000" fill-rule="evenodd" fill-opacity="1" /><path clip-path="url(#clip370)" d="M657.451 208.522 L657.451 207.046 Q660.004 207.046 660.59 206.741 Q661.175 206.414 661.175 204.868 L661.175 191.962 Q661.175 190.182 660.566 189.76 Q659.981 189.339 657.639 189.339 L657.639 187.84 L664.337 187.324 L664.337 204.915 Q664.337 206.343 664.853 206.695 Q665.368 207.046 667.71 207.046 L667.71 208.522 Q662.815 208.381 662.721 208.381 Q662.065 208.381 657.451 208.522 M659.466 178.962 Q659.466 178.002 660.192 177.229 Q660.941 176.433 661.995 176.433 Q663.049 176.433 663.799 177.159 Q664.548 177.862 664.548 178.986 Q664.548 180.087 663.799 180.813 Q663.049 181.515 661.995 181.515 Q660.894 181.515 660.168 180.743 Q659.466 179.97 659.466 178.962 Z" fill="#000000" fill-rule="evenodd" fill-opacity="1" /><path clip-path="url(#clip370)" d="M670.604 220.045 Q670.604 219.811 671.213 219.226 Q678.942 211.356 678.942 196.529 Q678.942 181.656 671.517 174.137 Q670.604 173.271 670.604 173.013 Q670.604 172.545 671.072 172.545 Q671.4 172.545 672.548 173.505 Q673.719 174.465 675.476 176.667 Q677.256 178.869 678.568 181.562 Q681.73 188.097 681.73 196.529 Q681.73 204.633 678.708 211.168 Q677.42 213.909 675.616 216.204 Q673.813 218.5 672.618 219.507 Q671.424 220.514 671.072 220.514 Q670.604 220.514 670.604 220.045 Z" fill="#000000" fill-rule="evenodd" fill-opacity="1" /><circle clip-path="url(#clip370)" cx="368.229" cy="241.573" r="23" fill="#c271d2" fill-rule="evenodd" fill-opacity="1" stroke="#000000" stroke-opacity="1" stroke-width="4.48"/>
<path clip-path="url(#clip370)" d="M449.686 240.218 Q449.686 240.874 449.382 241.038 Q449.077 241.179 448.234 241.179 L443.737 241.179 L440.177 255.326 Q439.896 256.567 439.896 257.621 Q439.896 258.792 440.247 259.308 Q440.622 259.823 441.395 259.823 Q442.917 259.823 444.557 258.441 Q446.22 257.059 447.625 253.686 Q447.812 253.241 447.906 253.147 Q448.023 253.03 448.328 253.03 Q448.913 253.03 448.913 253.499 Q448.913 253.663 448.585 254.412 Q448.281 255.162 447.602 256.263 Q446.946 257.363 446.079 258.394 Q445.236 259.425 443.948 260.174 Q442.659 260.9 441.278 260.9 Q439.334 260.9 438.092 259.659 Q436.874 258.418 436.874 256.473 Q436.874 255.841 437.366 253.827 Q437.858 251.789 440.528 241.179 L436.289 241.179 Q435.703 241.179 435.469 241.155 Q435.258 241.132 435.094 241.015 Q434.954 240.874 434.954 240.593 Q434.954 240.148 435.141 239.961 Q435.328 239.75 435.562 239.726 Q435.82 239.68 436.406 239.68 L440.903 239.68 L442.777 232.067 Q442.964 231.318 443.432 230.896 Q443.924 230.451 444.205 230.404 Q444.486 230.334 444.697 230.334 Q445.33 230.334 445.704 230.685 Q446.079 231.013 446.079 231.622 Q446.079 231.95 444.112 239.68 L448.328 239.68 Q448.866 239.68 449.077 239.703 Q449.311 239.726 449.499 239.844 Q449.686 239.961 449.686 240.218 Z" fill="#000000" fill-rule="evenodd" fill-opacity="1" /><path clip-path="url(#clip370)" d="M455.168 248.369 Q455.168 240.265 458.19 233.73 Q459.478 230.99 461.281 228.694 Q463.085 226.399 464.28 225.392 Q465.474 224.385 465.802 224.385 Q466.27 224.385 466.294 224.853 Q466.294 225.087 465.661 225.673 Q457.932 233.543 457.955 248.369 Q457.955 263.243 465.474 270.808 Q466.294 271.628 466.294 271.885 Q466.294 272.354 465.802 272.354 Q465.474 272.354 464.326 271.394 Q463.179 270.433 461.399 268.232 Q459.618 266.03 458.33 263.336 Q455.168 256.801 455.168 248.369 Z" fill="#000000" fill-rule="evenodd" fill-opacity="1" /><path clip-path="url(#clip370)" d="M492.121 246.823 Q492.121 250.243 490.388 253.546 Q488.678 256.848 485.984 258.886 Q483.291 260.9 480.55 260.9 Q478.911 260.9 477.81 260.01 Q476.732 259.097 476.147 257.809 Q475.702 259.401 474.741 263.219 Q473.781 267.037 473.781 267.412 Q473.781 267.623 473.828 267.716 Q473.875 267.81 474.086 267.927 Q474.296 268.068 474.812 268.114 Q475.327 268.185 476.194 268.185 Q476.639 268.185 476.803 268.185 Q476.99 268.208 477.154 268.325 Q477.341 268.442 477.341 268.7 Q477.341 269.66 476.475 269.66 Q475.702 269.66 474.109 269.59 Q472.516 269.52 471.72 269.52 Q471.041 269.52 469.682 269.59 Q468.324 269.66 467.691 269.66 Q467.059 269.66 467.059 269.098 Q467.059 268.77 467.152 268.559 Q467.223 268.372 467.41 268.278 Q467.597 268.208 467.761 268.185 Q467.902 268.185 468.183 268.185 Q469.26 268.185 469.729 267.997 Q470.197 267.833 470.361 267.482 Q470.549 267.154 470.76 266.217 L476.147 244.856 Q476.475 243.427 476.475 242.42 Q476.475 241.155 476.076 240.687 Q475.678 240.218 474.976 240.218 Q473.758 240.218 472.961 241.67 Q472.165 243.123 471.486 245.933 Q471.275 246.706 471.134 246.87 Q471.017 247.034 470.666 247.034 Q470.08 247.011 470.08 246.542 Q470.08 246.425 470.268 245.676 Q470.455 244.903 470.806 243.778 Q471.181 242.631 471.579 241.905 Q471.814 241.413 472.024 241.085 Q472.235 240.757 472.657 240.242 Q473.102 239.726 473.734 239.445 Q474.367 239.164 475.14 239.164 Q476.639 239.164 477.88 240.054 Q479.121 240.944 479.449 242.748 Q480.784 241.179 482.424 240.171 Q484.063 239.164 485.726 239.164 Q488.49 239.164 490.294 241.319 Q492.121 243.451 492.121 246.823 M488.654 244.715 Q488.654 242.584 487.834 241.413 Q487.038 240.218 485.586 240.218 Q483.782 240.218 481.698 242.045 Q479.637 243.778 479.215 245.395 L476.849 254.787 L476.709 255.56 Q476.709 255.701 476.779 256.122 Q476.873 256.52 477.13 257.176 Q477.411 257.832 477.786 258.418 Q478.184 258.98 478.887 259.401 Q479.613 259.823 480.503 259.823 Q481.932 259.823 483.478 258.558 Q485.047 257.293 486.218 254.904 Q486.944 253.358 487.788 250.032 Q488.654 246.683 488.654 244.715 Z" fill="#000000" fill-rule="evenodd" fill-opacity="1" /><path clip-path="url(#clip370)" d="M504.262 261.275 Q504.262 260.994 504.472 260.83 Q504.707 260.689 505.409 260.362 L528.832 249.611 Q530.659 248.744 531.596 248.369 Q530.635 247.995 528.832 247.128 L505.409 236.377 Q505.316 236.33 505.105 236.236 Q504.894 236.143 504.753 236.072 Q504.636 236.002 504.519 235.909 Q504.402 235.791 504.332 235.698 Q504.262 235.604 504.262 235.464 Q504.262 234.995 504.8 234.995 Q505.035 234.995 505.995 235.464 L532.603 247.596 Q532.65 247.596 532.767 247.667 Q532.907 247.737 533.001 247.831 Q533.095 247.901 533.188 247.971 Q533.282 248.041 533.329 248.135 Q533.376 248.229 533.376 248.369 Q533.329 248.791 531.994 249.423 L505.995 261.275 Q505.035 261.743 504.8 261.743 Q504.262 261.743 504.262 261.275 Z" fill="#000000" fill-rule="evenodd" fill-opacity="1" /><path clip-path="url(#clip370)" d="M554.524 232.981 L554.524 231.482 Q560.286 231.482 563.261 228.413 Q564.081 228.413 564.221 228.601 Q564.362 228.788 564.362 229.655 L564.362 256.567 Q564.362 257.996 565.064 258.441 Q565.767 258.886 568.835 258.886 L570.358 258.886 L570.358 260.362 Q568.672 260.221 562.582 260.221 Q556.492 260.221 554.829 260.362 L554.829 258.886 L556.351 258.886 Q559.373 258.886 560.099 258.464 Q560.825 258.019 560.825 256.567 L560.825 231.716 Q558.319 232.981 554.524 232.981 Z" fill="#000000" fill-rule="evenodd" fill-opacity="1" /><path clip-path="url(#clip370)" d="M574.024 252.632 Q574.024 251.203 574.796 250.665 Q575.569 250.103 576.389 250.103 Q577.49 250.103 578.122 250.805 Q578.778 251.484 578.778 252.445 Q578.778 253.405 578.122 254.108 Q577.49 254.787 576.389 254.787 Q575.85 254.787 575.569 254.693 Q576.202 256.895 578.122 258.488 Q580.067 260.081 582.62 260.081 Q585.828 260.081 587.749 256.965 Q588.897 254.951 588.897 250.384 Q588.897 246.355 588.03 244.341 Q586.695 241.272 583.955 241.272 Q580.067 241.272 577.771 244.622 Q577.49 245.043 577.162 245.067 Q576.694 245.067 576.577 244.809 Q576.483 244.528 576.483 243.802 L576.483 229.608 Q576.483 228.46 576.951 228.46 Q577.139 228.46 577.537 228.601 Q580.558 229.936 583.908 229.959 Q587.351 229.959 590.443 228.554 Q590.677 228.413 590.817 228.413 Q591.286 228.413 591.309 228.952 Q591.309 229.139 590.911 229.702 Q590.536 230.24 589.717 230.966 Q588.897 231.669 587.843 232.348 Q586.789 233.028 585.243 233.496 Q583.72 233.941 582.034 233.941 Q580.02 233.941 577.959 233.309 L577.959 242.654 Q580.441 240.218 584.048 240.218 Q587.89 240.218 590.536 243.31 Q593.183 246.402 593.183 250.712 Q593.183 255.232 590.044 258.324 Q586.929 261.416 582.713 261.416 Q578.872 261.416 576.436 258.675 Q574.024 255.935 574.024 252.632 Z" fill="#000000" fill-rule="evenodd" fill-opacity="1" /><path clip-path="url(#clip370)" d="M597.969 245.02 Q597.969 237.97 599.75 234.128 Q602.232 228.413 608.088 228.413 Q609.329 228.413 610.618 228.765 Q611.929 229.093 613.569 230.381 Q615.232 231.669 616.239 233.777 Q618.16 237.853 618.16 245.02 Q618.16 252.023 616.379 255.841 Q613.78 261.416 608.041 261.416 Q605.886 261.416 603.685 260.315 Q601.506 259.214 600.124 256.567 Q597.969 252.609 597.969 245.02 M601.951 244.434 Q601.951 251.672 602.467 254.553 Q603.052 257.668 604.645 259.026 Q606.261 260.362 608.041 260.362 Q609.962 260.362 611.554 258.933 Q613.171 257.481 613.662 254.365 Q614.201 251.297 614.178 244.434 Q614.178 237.759 613.709 235.089 Q613.077 231.974 611.391 230.732 Q609.728 229.467 608.041 229.467 Q607.409 229.467 606.729 229.655 Q606.074 229.842 605.113 230.381 Q604.153 230.92 603.403 232.255 Q602.677 233.59 602.326 235.604 Q601.951 238.204 601.951 244.434 Z" fill="#000000" fill-rule="evenodd" fill-opacity="1" /><path clip-path="url(#clip370)" d="M628.061 268.185 Q630.614 268.185 631.2 267.857 Q631.809 267.552 631.809 266.03 L631.809 243.568 Q631.809 241.975 631.2 241.577 Q630.614 241.179 628.061 241.179 L628.061 239.68 L634.971 239.164 L634.971 242.326 Q637.852 239.164 641.693 239.164 Q645.769 239.164 648.743 242.326 Q651.718 245.488 651.718 250.009 Q651.718 254.576 648.556 257.738 Q645.394 260.9 641.014 260.9 Q638.625 260.9 637.009 259.682 Q635.416 258.441 635.112 257.527 L635.112 257.972 L635.112 266.03 Q635.112 267.576 635.721 267.88 Q636.33 268.185 638.859 268.185 L638.859 269.66 Q633.823 269.52 633.449 269.52 Q632.98 269.52 628.061 269.66 L628.061 268.185 M635.112 254.904 Q635.112 255.63 635.205 255.888 Q635.322 256.146 635.791 256.918 Q637.688 259.823 640.78 259.823 Q640.803 259.823 640.827 259.823 Q643.567 259.823 645.652 257.036 Q647.736 254.225 647.736 250.009 Q647.736 245.98 645.839 243.169 Q643.942 240.359 641.319 240.359 Q639.445 240.359 637.805 241.366 Q636.166 242.373 635.112 244.2 L635.112 254.904 Z" fill="#000000" fill-rule="evenodd" fill-opacity="1" /><path clip-path="url(#clip370)" d="M658.445 259.729 L658.445 253.405 Q658.445 252.866 658.469 252.679 Q658.492 252.492 658.633 252.351 Q658.773 252.211 659.054 252.211 Q659.382 252.211 659.499 252.351 Q659.64 252.492 659.734 253.03 Q660.46 256.333 662.006 258.09 Q663.575 259.823 666.409 259.823 Q669.103 259.823 670.461 258.628 Q671.82 257.434 671.82 255.466 Q671.82 251.953 666.831 251.063 Q663.95 250.477 662.755 250.103 Q661.561 249.704 660.507 248.838 Q658.445 247.151 658.445 244.762 Q658.445 242.373 660.249 240.616 Q662.076 238.86 666.105 238.86 Q668.798 238.86 670.625 240.218 Q671.164 239.797 671.445 239.445 Q672.077 238.86 672.405 238.86 Q672.78 238.86 672.85 239.117 Q672.92 239.352 672.92 240.031 L672.92 244.856 Q672.92 245.395 672.897 245.582 Q672.874 245.769 672.733 245.91 Q672.593 246.027 672.288 246.027 Q671.749 246.027 671.726 245.582 Q671.351 239.773 666.105 239.773 Q663.27 239.773 662.006 240.874 Q660.741 241.952 660.741 243.427 Q660.741 244.247 661.116 244.879 Q661.514 245.488 662.006 245.863 Q662.521 246.214 663.458 246.566 Q664.395 246.894 664.957 247.011 Q665.542 247.128 666.643 247.362 Q670.485 248.088 672.101 249.658 Q674.115 251.672 674.115 254.225 Q674.115 257.059 672.194 258.98 Q670.274 260.9 666.409 260.9 Q663.294 260.9 661.116 258.816 Q660.835 259.097 660.624 259.354 Q660.413 259.589 660.319 259.682 Q660.249 259.776 660.226 259.846 Q660.202 259.893 660.155 259.94 Q659.195 260.9 658.961 260.9 Q658.586 260.9 658.516 260.643 Q658.445 260.408 658.445 259.729 Z" fill="#000000" fill-rule="evenodd" fill-opacity="1" /><path clip-path="url(#clip370)" d="M675.99 260.362 L675.99 258.886 Q678.543 258.886 679.129 258.581 Q679.715 258.254 679.715 256.708 L679.715 243.802 Q679.715 242.022 679.106 241.6 Q678.52 241.179 676.178 241.179 L676.178 239.68 L682.877 239.164 L682.877 256.755 Q682.877 258.183 683.392 258.535 Q683.907 258.886 686.249 258.886 L686.249 260.362 Q681.354 260.221 681.26 260.221 Q680.605 260.221 675.99 260.362 M678.005 230.802 Q678.005 229.842 678.731 229.069 Q679.48 228.273 680.534 228.273 Q681.588 228.273 682.338 228.999 Q683.087 229.702 683.087 230.826 Q683.087 231.927 682.338 232.653 Q681.588 233.355 680.534 233.355 Q679.433 233.355 678.707 232.583 Q678.005 231.81 678.005 230.802 Z" fill="#000000" fill-rule="evenodd" fill-opacity="1" /><path clip-path="url(#clip370)" d="M689.143 271.885 Q689.143 271.651 689.752 271.066 Q697.482 263.196 697.482 248.369 Q697.482 233.496 690.057 225.977 Q689.143 225.111 689.143 224.853 Q689.143 224.385 689.612 224.385 Q689.94 224.385 691.087 225.345 Q692.258 226.305 694.015 228.507 Q695.795 230.709 697.107 233.402 Q700.269 239.937 700.269 248.369 Q700.269 256.473 697.247 263.008 Q695.959 265.749 694.156 268.044 Q692.352 270.34 691.157 271.347 Q689.963 272.354 689.612 272.354 Q689.143 272.354 689.143 271.885 Z" fill="#000000" fill-rule="evenodd" fill-opacity="1" /><polyline clip-path="url(#clip370)" style="stroke:#0000ff; stroke-linecap:butt; stroke-linejoin:round; stroke-width:4; stroke-opacity:1; fill:none" points="
  318.186,293.413 418.272,293.413 
  "/>
<path clip-path="url(#clip370)" d="M448.148 310.693 L434.954 276.133 L439.838 276.133 L450.787 305.23 L461.759 276.133 L466.62 276.133 L453.449 310.693 L448.148 310.693 Z" fill="#000000" fill-rule="evenodd" fill-opacity="1" /><path clip-path="url(#clip370)" d="M477.847 287.753 Q474.421 287.753 472.43 290.438 Q470.439 293.1 470.439 297.753 Q470.439 302.406 472.407 305.091 Q474.398 307.753 477.847 307.753 Q481.25 307.753 483.24 305.068 Q485.231 302.382 485.231 297.753 Q485.231 293.146 483.24 290.461 Q481.25 287.753 477.847 287.753 M477.847 284.142 Q483.402 284.142 486.574 287.753 Q489.745 291.364 489.745 297.753 Q489.745 304.119 486.574 307.753 Q483.402 311.364 477.847 311.364 Q472.268 311.364 469.097 307.753 Q465.949 304.119 465.949 297.753 Q465.949 291.364 469.097 287.753 Q472.268 284.142 477.847 284.142 Z" fill="#000000" fill-rule="evenodd" fill-opacity="1" /><path clip-path="url(#clip370)" d="M511.828 288.748 Q511.111 288.332 510.254 288.146 Q509.421 287.938 508.402 287.938 Q504.791 287.938 502.847 290.299 Q500.925 292.637 500.925 297.035 L500.925 310.693 L496.643 310.693 L496.643 284.767 L500.925 284.767 L500.925 288.795 Q502.268 286.433 504.421 285.299 Q506.573 284.142 509.652 284.142 Q510.092 284.142 510.624 284.211 Q511.157 284.258 511.805 284.373 L511.828 288.748 Z" fill="#000000" fill-rule="evenodd" fill-opacity="1" /><path clip-path="url(#clip370)" d="M520.509 277.406 L520.509 284.767 L529.282 284.767 L529.282 288.077 L520.509 288.077 L520.509 302.151 Q520.509 305.322 521.365 306.225 Q522.245 307.128 524.907 307.128 L529.282 307.128 L529.282 310.693 L524.907 310.693 Q519.976 310.693 518.101 308.864 Q516.226 307.012 516.226 302.151 L516.226 288.077 L513.101 288.077 L513.101 284.767 L516.226 284.767 L516.226 277.406 L520.509 277.406 Z" fill="#000000" fill-rule="evenodd" fill-opacity="1" /><path clip-path="url(#clip370)" d="M557.059 296.665 L557.059 298.748 L537.476 298.748 Q537.754 303.146 540.115 305.461 Q542.499 307.753 546.735 307.753 Q549.189 307.753 551.481 307.151 Q553.795 306.549 556.064 305.345 L556.064 309.373 Q553.772 310.345 551.365 310.855 Q548.958 311.364 546.481 311.364 Q540.277 311.364 536.643 307.753 Q533.032 304.142 533.032 297.984 Q533.032 291.619 536.458 287.892 Q539.907 284.142 545.74 284.142 Q550.971 284.142 554.004 287.521 Q557.059 290.878 557.059 296.665 M552.8 295.415 Q552.754 291.92 550.833 289.836 Q548.934 287.753 545.786 287.753 Q542.221 287.753 540.069 289.767 Q537.939 291.781 537.615 295.438 L552.8 295.415 Z" fill="#000000" fill-rule="evenodd" fill-opacity="1" /><path clip-path="url(#clip370)" d="M584.768 284.767 L575.393 297.383 L585.254 310.693 L580.231 310.693 L572.684 300.507 L565.138 310.693 L560.115 310.693 L570.184 297.128 L560.971 284.767 L565.994 284.767 L572.869 294.003 L579.744 284.767 L584.768 284.767 Z" fill="#000000" fill-rule="evenodd" fill-opacity="1" /><path clip-path="url(#clip370)" d="M621.365 288.748 Q620.647 288.332 619.79 288.146 Q618.957 287.938 617.939 287.938 Q614.328 287.938 612.383 290.299 Q610.462 292.637 610.462 297.035 L610.462 310.693 L606.179 310.693 L606.179 284.767 L610.462 284.767 L610.462 288.795 Q611.804 286.433 613.957 285.299 Q616.11 284.142 619.189 284.142 Q619.628 284.142 620.161 284.211 Q620.693 284.258 621.341 284.373 L621.365 288.748 Z" fill="#000000" fill-rule="evenodd" fill-opacity="1" /><path clip-path="url(#clip370)" d="M625.832 284.767 L630.091 284.767 L630.091 310.693 L625.832 310.693 L625.832 284.767 M625.832 274.674 L630.091 274.674 L630.091 280.068 L625.832 280.068 L625.832 274.674 Z" fill="#000000" fill-rule="evenodd" fill-opacity="1" /><path clip-path="url(#clip370)" d="M660.554 295.045 L660.554 310.693 L656.295 310.693 L656.295 295.183 Q656.295 291.503 654.86 289.674 Q653.425 287.846 650.554 287.846 Q647.105 287.846 645.114 290.045 Q643.124 292.244 643.124 296.04 L643.124 310.693 L638.841 310.693 L638.841 284.767 L643.124 284.767 L643.124 288.795 Q644.651 286.457 646.712 285.299 Q648.795 284.142 651.503 284.142 Q655.971 284.142 658.262 286.92 Q660.554 289.674 660.554 295.045 Z" fill="#000000" fill-rule="evenodd" fill-opacity="1" /><path clip-path="url(#clip370)" d="M686.11 297.429 Q686.11 292.799 684.188 290.253 Q682.29 287.707 678.841 287.707 Q675.415 287.707 673.494 290.253 Q671.596 292.799 671.596 297.429 Q671.596 302.035 673.494 304.582 Q675.415 307.128 678.841 307.128 Q682.29 307.128 684.188 304.582 Q686.11 302.035 686.11 297.429 M690.369 307.475 Q690.369 314.095 687.429 317.313 Q684.489 320.554 678.424 320.554 Q676.179 320.554 674.188 320.206 Q672.198 319.882 670.323 319.188 L670.323 315.044 Q672.198 316.063 674.026 316.549 Q675.855 317.035 677.753 317.035 Q681.943 317.035 684.026 314.836 Q686.11 312.66 686.11 308.239 L686.11 306.132 Q684.79 308.424 682.73 309.558 Q680.67 310.693 677.799 310.693 Q673.031 310.693 670.114 307.058 Q667.198 303.424 667.198 297.429 Q667.198 291.41 670.114 287.776 Q673.031 284.142 677.799 284.142 Q680.67 284.142 682.73 285.276 Q684.79 286.41 686.11 288.702 L686.11 284.767 L690.369 284.767 L690.369 307.475 Z" fill="#000000" fill-rule="evenodd" fill-opacity="1" /><path clip-path="url(#clip370)" d="
M318.186 365.989 L418.272 365.989 L418.272 324.517 L318.186 324.517 L318.186 365.989  Z
  " fill="#ed5d92" fill-rule="evenodd" fill-opacity="0.3"/>
<polyline clip-path="url(#clip370)" style="stroke:#000000; stroke-linecap:butt; stroke-linejoin:round; stroke-width:0; stroke-opacity:1; fill:none" points="
  318.186,365.989 418.272,365.989 418.272,324.517 318.186,324.517 318.186,365.989 
  "/>
<path clip-path="url(#clip370)" d="M434.954 327.973 L439.629 327.973 L439.629 362.533 L434.954 362.533 L434.954 327.973 Z" fill="#000000" fill-rule="evenodd" fill-opacity="1" /><path clip-path="url(#clip370)" d="M468.935 341.584 Q470.532 338.713 472.754 337.348 Q474.976 335.982 477.986 335.982 Q482.037 335.982 484.236 338.829 Q486.435 341.653 486.435 346.885 L486.435 362.533 L482.152 362.533 L482.152 347.023 Q482.152 343.297 480.833 341.491 Q479.513 339.686 476.805 339.686 Q473.495 339.686 471.574 341.885 Q469.652 344.084 469.652 347.88 L469.652 362.533 L465.37 362.533 L465.37 347.023 Q465.37 343.273 464.051 341.491 Q462.731 339.686 459.977 339.686 Q456.713 339.686 454.791 341.908 Q452.87 344.107 452.87 347.88 L452.87 362.533 L448.588 362.533 L448.588 336.607 L452.87 336.607 L452.87 340.635 Q454.328 338.25 456.365 337.116 Q458.402 335.982 461.203 335.982 Q464.027 335.982 465.995 337.417 Q467.986 338.852 468.935 341.584 Z" fill="#000000" fill-rule="evenodd" fill-opacity="1" /><path clip-path="url(#clip370)" d="M506.712 349.5 Q501.55 349.5 499.56 350.681 Q497.569 351.861 497.569 354.709 Q497.569 356.977 499.05 358.32 Q500.555 359.639 503.124 359.639 Q506.666 359.639 508.796 357.139 Q510.948 354.616 510.948 350.449 L510.948 349.5 L506.712 349.5 M515.208 347.741 L515.208 362.533 L510.948 362.533 L510.948 358.597 Q509.49 360.959 507.314 362.093 Q505.138 363.204 501.99 363.204 Q498.009 363.204 495.648 360.982 Q493.31 358.736 493.31 354.986 Q493.31 350.611 496.226 348.389 Q499.166 346.167 504.976 346.167 L510.948 346.167 L510.948 345.75 Q510.948 342.811 509.004 341.213 Q507.083 339.593 503.587 339.593 Q501.365 339.593 499.259 340.125 Q497.152 340.658 495.208 341.723 L495.208 337.787 Q497.546 336.885 499.745 336.445 Q501.944 335.982 504.027 335.982 Q509.652 335.982 512.43 338.898 Q515.208 341.815 515.208 347.741 Z" fill="#000000" fill-rule="evenodd" fill-opacity="1" /><path clip-path="url(#clip370)" d="M541.041 349.269 Q541.041 344.639 539.12 342.093 Q537.221 339.547 533.772 339.547 Q530.347 339.547 528.425 342.093 Q526.527 344.639 526.527 349.269 Q526.527 353.875 528.425 356.422 Q530.347 358.968 533.772 358.968 Q537.221 358.968 539.12 356.422 Q541.041 353.875 541.041 349.269 M545.3 359.315 Q545.3 365.935 542.36 369.153 Q539.421 372.394 533.356 372.394 Q531.11 372.394 529.12 372.046 Q527.129 371.722 525.254 371.028 L525.254 366.884 Q527.129 367.903 528.958 368.389 Q530.786 368.875 532.684 368.875 Q536.874 368.875 538.958 366.676 Q541.041 364.5 541.041 360.079 L541.041 357.972 Q539.721 360.264 537.661 361.398 Q535.601 362.533 532.731 362.533 Q527.962 362.533 525.046 358.898 Q522.129 355.264 522.129 349.269 Q522.129 343.25 525.046 339.616 Q527.962 335.982 532.731 335.982 Q535.601 335.982 537.661 337.116 Q539.721 338.25 541.041 340.542 L541.041 336.607 L545.3 336.607 L545.3 359.315 Z" fill="#000000" fill-rule="evenodd" fill-opacity="1" /><path clip-path="url(#clip370)" d="M554.073 336.607 L558.332 336.607 L558.332 362.533 L554.073 362.533 L554.073 336.607 M554.073 326.514 L558.332 326.514 L558.332 331.908 L554.073 331.908 L554.073 326.514 Z" fill="#000000" fill-rule="evenodd" fill-opacity="1" /><path clip-path="url(#clip370)" d="M588.795 346.885 L588.795 362.533 L584.536 362.533 L584.536 347.023 Q584.536 343.343 583.101 341.514 Q581.666 339.686 578.795 339.686 Q575.346 339.686 573.356 341.885 Q571.365 344.084 571.365 347.88 L571.365 362.533 L567.082 362.533 L567.082 336.607 L571.365 336.607 L571.365 340.635 Q572.893 338.297 574.953 337.139 Q577.036 335.982 579.744 335.982 Q584.212 335.982 586.504 338.76 Q588.795 341.514 588.795 346.885 Z" fill="#000000" fill-rule="evenodd" fill-opacity="1" /><path clip-path="url(#clip370)" d="M614.351 349.269 Q614.351 344.639 612.429 342.093 Q610.531 339.547 607.082 339.547 Q603.656 339.547 601.735 342.093 Q599.837 344.639 599.837 349.269 Q599.837 353.875 601.735 356.422 Q603.656 358.968 607.082 358.968 Q610.531 358.968 612.429 356.422 Q614.351 353.875 614.351 349.269 M618.61 359.315 Q618.61 365.935 615.67 369.153 Q612.73 372.394 606.666 372.394 Q604.42 372.394 602.429 372.046 Q600.439 371.722 598.564 371.028 L598.564 366.884 Q600.439 367.903 602.267 368.389 Q604.096 368.875 605.994 368.875 Q610.184 368.875 612.267 366.676 Q614.351 364.5 614.351 360.079 L614.351 357.972 Q613.031 360.264 610.971 361.398 Q608.911 362.533 606.041 362.533 Q601.272 362.533 598.355 358.898 Q595.439 355.264 595.439 349.269 Q595.439 343.25 598.355 339.616 Q601.272 335.982 606.041 335.982 Q608.911 335.982 610.971 337.116 Q613.031 338.25 614.351 340.542 L614.351 336.607 L618.61 336.607 L618.61 359.315 Z" fill="#000000" fill-rule="evenodd" fill-opacity="1" /><path clip-path="url(#clip370)" d="M646.665 329.246 L646.665 336.607 L655.438 336.607 L655.438 339.917 L646.665 339.917 L646.665 353.991 Q646.665 357.162 647.522 358.065 Q648.401 358.968 651.063 358.968 L655.438 358.968 L655.438 362.533 L651.063 362.533 Q646.133 362.533 644.258 360.704 Q642.383 358.852 642.383 353.991 L642.383 339.917 L639.258 339.917 L639.258 336.607 L642.383 336.607 L642.383 329.246 L646.665 329.246 Z" fill="#000000" fill-rule="evenodd" fill-opacity="1" /><path clip-path="url(#clip370)" d="M661.04 336.607 L665.299 336.607 L665.299 362.533 L661.04 362.533 L661.04 336.607 M661.04 326.514 L665.299 326.514 L665.299 331.908 L661.04 331.908 L661.04 326.514 Z" fill="#000000" fill-rule="evenodd" fill-opacity="1" /><path clip-path="url(#clip370)" d="M694.397 341.584 Q695.994 338.713 698.216 337.348 Q700.438 335.982 703.447 335.982 Q707.498 335.982 709.697 338.829 Q711.896 341.653 711.896 346.885 L711.896 362.533 L707.614 362.533 L707.614 347.023 Q707.614 343.297 706.295 341.491 Q704.975 339.686 702.267 339.686 Q698.957 339.686 697.035 341.885 Q695.114 344.084 695.114 347.88 L695.114 362.533 L690.832 362.533 L690.832 347.023 Q690.832 343.273 689.512 341.491 Q688.193 339.686 685.438 339.686 Q682.174 339.686 680.253 341.908 Q678.332 344.107 678.332 347.88 L678.332 362.533 L674.049 362.533 L674.049 336.607 L678.332 336.607 L678.332 340.635 Q679.79 338.25 681.827 337.116 Q683.864 335.982 686.665 335.982 Q689.489 335.982 691.457 337.417 Q693.447 338.852 694.397 341.584 Z" fill="#000000" fill-rule="evenodd" fill-opacity="1" /><path clip-path="url(#clip370)" d="M742.568 348.505 L742.568 350.588 L722.984 350.588 Q723.262 354.986 725.623 357.301 Q728.007 359.593 732.244 359.593 Q734.697 359.593 736.989 358.991 Q739.304 358.389 741.572 357.185 L741.572 361.213 Q739.281 362.185 736.873 362.695 Q734.466 363.204 731.989 363.204 Q725.785 363.204 722.151 359.593 Q718.54 355.982 718.54 349.824 Q718.54 343.459 721.966 339.732 Q725.415 335.982 731.248 335.982 Q736.48 335.982 739.512 339.361 Q742.568 342.718 742.568 348.505 M738.308 347.255 Q738.262 343.76 736.341 341.676 Q734.443 339.593 731.295 339.593 Q727.73 339.593 725.577 341.607 Q723.447 343.621 723.123 347.278 L738.308 347.255 Z" fill="#000000" fill-rule="evenodd" fill-opacity="1" /><path clip-path="url(#clip370)" d="
M318.186 417.829 L418.272 417.829 L418.272 376.357 L318.186 376.357 L318.186 417.829  Z
  " fill="#808080" fill-rule="evenodd" fill-opacity="0.3"/>
<polyline clip-path="url(#clip370)" style="stroke:#000000; stroke-linecap:butt; stroke-linejoin:round; stroke-width:0; stroke-opacity:1; fill:none" points="
  318.186,417.829 418.272,417.829 418.272,376.357 318.186,376.357 318.186,417.829 
  "/>
<path clip-path="url(#clip370)" d="M434.954 379.813 L439.676 379.813 L446.944 409.025 L454.19 379.813 L459.444 379.813 L466.713 409.025 L473.958 379.813 L478.703 379.813 L470.023 414.373 L464.143 414.373 L456.852 384.373 L449.49 414.373 L443.611 414.373 L434.954 379.813 Z" fill="#000000" fill-rule="evenodd" fill-opacity="1" /><path clip-path="url(#clip370)" d="M498.171 383.887 L486.365 402.336 L498.171 402.336 L498.171 383.887 M496.944 379.813 L502.824 379.813 L502.824 402.336 L507.754 402.336 L507.754 406.225 L502.824 406.225 L502.824 414.373 L498.171 414.373 L498.171 406.225 L482.569 406.225 L482.569 401.711 L496.944 379.813 Z" fill="#000000" fill-rule="evenodd" fill-opacity="1" /><path clip-path="url(#clip370)" d="M548.61 389.442 L548.61 393.424 Q546.805 392.428 544.976 391.942 Q543.171 391.433 541.319 391.433 Q537.175 391.433 534.884 394.072 Q532.592 396.688 532.592 401.433 Q532.592 406.178 534.884 408.817 Q537.175 411.433 541.319 411.433 Q543.171 411.433 544.976 410.947 Q546.805 410.437 548.61 409.442 L548.61 413.377 Q546.828 414.211 544.907 414.627 Q543.008 415.044 540.856 415.044 Q534.999 415.044 531.55 411.363 Q528.101 407.683 528.101 401.433 Q528.101 395.09 531.573 391.456 Q535.069 387.822 541.133 387.822 Q543.101 387.822 544.976 388.239 Q546.851 388.632 548.61 389.442 Z" fill="#000000" fill-rule="evenodd" fill-opacity="1" /><path clip-path="url(#clip370)" d="M578.193 400.345 L578.193 402.428 L558.61 402.428 Q558.888 406.826 561.249 409.141 Q563.633 411.433 567.869 411.433 Q570.323 411.433 572.615 410.831 Q574.93 410.229 577.198 409.025 L577.198 413.053 Q574.906 414.025 572.499 414.535 Q570.092 415.044 567.615 415.044 Q561.411 415.044 557.777 411.433 Q554.166 407.822 554.166 401.664 Q554.166 395.299 557.592 391.572 Q561.041 387.822 566.874 387.822 Q572.106 387.822 575.138 391.201 Q578.193 394.558 578.193 400.345 M573.934 399.095 Q573.888 395.6 571.967 393.516 Q570.069 391.433 566.92 391.433 Q563.356 391.433 561.203 393.447 Q559.073 395.461 558.749 399.118 L573.934 399.095 Z" fill="#000000" fill-rule="evenodd" fill-opacity="1" /><path clip-path="url(#clip370)" d="M606.735 398.725 L606.735 414.373 L602.476 414.373 L602.476 398.863 Q602.476 395.183 601.041 393.354 Q599.605 391.526 596.735 391.526 Q593.286 391.526 591.295 393.725 Q589.305 395.924 589.305 399.72 L589.305 414.373 L585.022 414.373 L585.022 388.447 L589.305 388.447 L589.305 392.475 Q590.832 390.137 592.892 388.979 Q594.976 387.822 597.684 387.822 Q602.152 387.822 604.443 390.6 Q606.735 393.354 606.735 398.725 Z" fill="#000000" fill-rule="evenodd" fill-opacity="1" /><path clip-path="url(#clip370)" d="M619.443 381.086 L619.443 388.447 L628.216 388.447 L628.216 391.757 L619.443 391.757 L619.443 405.831 Q619.443 409.002 620.3 409.905 Q621.179 410.808 623.841 410.808 L628.216 410.808 L628.216 414.373 L623.841 414.373 Q618.911 414.373 617.036 412.544 Q615.161 410.692 615.161 405.831 L615.161 391.757 L612.036 391.757 L612.036 388.447 L615.161 388.447 L615.161 381.086 L619.443 381.086 Z" fill="#000000" fill-rule="evenodd" fill-opacity="1" /><path clip-path="url(#clip370)" d="M655.994 400.345 L655.994 402.428 L636.411 402.428 Q636.689 406.826 639.05 409.141 Q641.434 411.433 645.67 411.433 Q648.124 411.433 650.415 410.831 Q652.73 410.229 654.999 409.025 L654.999 413.053 Q652.707 414.025 650.3 414.535 Q647.892 415.044 645.415 415.044 Q639.212 415.044 635.577 411.433 Q631.966 407.822 631.966 401.664 Q631.966 395.299 635.392 391.572 Q638.841 387.822 644.675 387.822 Q649.906 387.822 652.938 391.201 Q655.994 394.558 655.994 400.345 M651.735 399.095 Q651.688 395.6 649.767 393.516 Q647.869 391.433 644.721 391.433 Q641.156 391.433 639.003 393.447 Q636.874 395.461 636.55 399.118 L651.735 399.095 Z" fill="#000000" fill-rule="evenodd" fill-opacity="1" /><path clip-path="url(#clip370)" d="M678.008 392.428 Q677.29 392.012 676.434 391.826 Q675.6 391.618 674.582 391.618 Q670.971 391.618 669.026 393.979 Q667.105 396.317 667.105 400.715 L667.105 414.373 L662.823 414.373 L662.823 388.447 L667.105 388.447 L667.105 392.475 Q668.448 390.113 670.6 388.979 Q672.753 387.822 675.832 387.822 Q676.272 387.822 676.804 387.891 Q677.336 387.938 677.985 388.053 L678.008 392.428 Z" fill="#000000" fill-rule="evenodd" fill-opacity="1" /><path clip-path="url(#clip370)" d="M682.475 378.354 L686.735 378.354 L686.735 414.373 L682.475 414.373 L682.475 378.354 Z" fill="#000000" fill-rule="evenodd" fill-opacity="1" /><path clip-path="url(#clip370)" d="M695.647 388.447 L699.906 388.447 L699.906 414.373 L695.647 414.373 L695.647 388.447 M695.647 378.354 L699.906 378.354 L699.906 383.748 L695.647 383.748 L695.647 378.354 Z" fill="#000000" fill-rule="evenodd" fill-opacity="1" /><path clip-path="url(#clip370)" d="M730.369 398.725 L730.369 414.373 L726.109 414.373 L726.109 398.863 Q726.109 395.183 724.674 393.354 Q723.239 391.526 720.369 391.526 Q716.92 391.526 714.929 393.725 Q712.938 395.924 712.938 399.72 L712.938 414.373 L708.656 414.373 L708.656 388.447 L712.938 388.447 L712.938 392.475 Q714.466 390.137 716.526 388.979 Q718.609 387.822 721.318 387.822 Q725.785 387.822 728.077 390.6 Q730.369 393.354 730.369 398.725 Z" fill="#000000" fill-rule="evenodd" fill-opacity="1" /><path clip-path="url(#clip370)" d="M761.04 400.345 L761.04 402.428 L741.456 402.428 Q741.734 406.826 744.095 409.141 Q746.48 411.433 750.716 411.433 Q753.169 411.433 755.461 410.831 Q757.776 410.229 760.044 409.025 L760.044 413.053 Q757.753 414.025 755.345 414.535 Q752.938 415.044 750.461 415.044 Q744.257 415.044 740.623 411.433 Q737.012 407.822 737.012 401.664 Q737.012 395.299 740.438 391.572 Q743.887 387.822 749.72 387.822 Q754.952 387.822 757.984 391.201 Q761.04 394.558 761.04 400.345 M756.78 399.095 Q756.734 395.6 754.813 393.516 Q752.915 391.433 749.767 391.433 Q746.202 391.433 744.049 393.447 Q741.919 395.461 741.595 399.118 L756.78 399.095 Z" fill="#000000" fill-rule="evenodd" fill-opacity="1" /></svg>
